<svg xmlns="http://www.w3.org/2000/svg" viewBox="0 0 315.34 195.04"><g id="Layer_2" data-name="Layer 2"><g id="Layer_4" data-name="Layer 4"><path d="M176.15,124.88c.43-.74.9-1.49,1.31-2.28a6,6,0,0,0,.43-1.25c.3-1,.52-2,.88-2.95a1.25,1.25,0,0,1,2-.56c.54.33,1.06.67,1.6,1,.06,0,.17,0,.26,0,.46-1,.42-1.59-.32-1.74a1.69,1.69,0,0,1-1.34-1.63,4.08,4.08,0,0,1,.32-2.2c.73-1.64,2.12-2.82,3.26-4.18a5.73,5.73,0,0,1,1.37-.83c.64,1.08,1.19,2.05,1.78,3,.09.15.39.17.56.23.57-.47,1.09-.92,1.63-1.34a.75.75,0,0,0,.23-1.06c-.33-.62-.61-1.27-1-1.87-.52-.89-1.23-1.7-.79-3.06l.66-.39c.58-.34,1.17-.66,1.74-1,.76-.47,1.41-1.17,2.42-1.09a.2.2,0,0,0,.13,0c1.47-1.2,3.34-1,5.21-1.48.24,1.15-.58,2.24-.22,3.44l6.33-1.16c.08.39.15.83.26,1.25.19.68.45,1.35.59,2a7.52,7.52,0,0,1,0,1.37c.76.18,1.44-.31,2.17-.53.26-.08.49-.22.73-.32,1-.38,1.09-.35,1.64.55a16.53,16.53,0,0,1,2.13,5.51c.14.74.34,1.47.54,2.31l.87-.4c1,1.33,2.15,2.61,3,4,1.3,2.08,2.42,4.26,3.61,6.4.16.27.31.55.47.83.66,1.12,1.36,2.23,2,3.38,1.26,2.34,2.55,4.68,3.72,7.08,1,2.06,1.86,4.19,2.79,6.29.6,1.35,1.19,2.72,1.84,4.05.73,1.5.54,2.09-1.09,2.73l.18.87c-.54.19-1.11.43-1.69.59a27.68,27.68,0,0,0-5.08,2.23c-.69.33-1.61.41-2.08.91-.74.79-1.88.7-2.57,1.55a15.94,15.94,0,0,1-2.26,1.89,2.32,2.32,0,0,0-.52.68,18.16,18.16,0,0,0-2.2,5.21,2.43,2.43,0,0,1-.38.61,13.08,13.08,0,0,1-2.89-1.36c-2.27-1.88-4.86-3.32-7-5.44-1.32-1.33-2.95-2.35-4.4-3.56a44.62,44.62,0,0,1-3.47-3.12,47.58,47.58,0,0,0-5.52-4.7,6.68,6.68,0,0,1-.55-.54c.76-.87.23-1.49-.39-2.15-.85-.92-1.66-1.88-2.47-2.84a1.28,1.28,0,0,1-.26-.61c-.07-.48.4-.86.76-.56.63.53,1.11.51,1.49-.14l1.15.46.18-.27c-.39-.31-.76-.65-1.17-.93-1.49-1-3-1.95-4.5-3a5.82,5.82,0,0,1-1.35-1.27,3.52,3.52,0,0,0-1.89-1.24c-.82-.25-.89-.49-.52-1.27l.88-1.86a14.65,14.65,0,0,0-3.9-2.75A2.42,2.42,0,0,1,176.15,124.88Zm33,1.23-1.66,1c-1.94-5.58-4.81-10.67-6.57-16.08l-2.57,1.69a1.57,1.57,0,0,0-.74,2,53.72,53.72,0,0,0,2.74,5.85c.49.83,1,1.66,1.43,2.53,1.09,2.12,2.29,4.19,3.45,6.28.21.38.44.75.74,1.26a27.63,27.63,0,0,0,3.15-4.48,2.2,2.2,0,0,0,0-3,5.59,5.59,0,0,1-1.15-2.7c-.11-.92-1.27-1.6-.67-2.75.07-.12-.12-.44-.27-.58a1.36,1.36,0,0,1-.44-.9,7.27,7.27,0,0,0-.67-2.75c-1.05-1.74-1.21-3.76-2-5.58a.79.79,0,0,1,0-.64c.72-1.17,0-2.24-.08-3.53-.61.12-1.08.18-1.54.31-.9.27-1.78.66-2.7.85s-1.25.56-1.3,1c.41.87.68,1.45,1,2,.4.78.6,1.73,1.74,1.86.24,0,.48.4.63.66a16.8,16.8,0,0,1,.91,1.67c1,2.16,1.94,4.34,2.93,6.5s1.92,4.07,2.89,6.1C208.7,125.2,209,125.65,209.19,126.11Zm-17.48,15.37c.54.71.95,1.29,1.4,1.83,1,1.21,2,2.42,3.08,3.6,1.24,1.39,2.44,2.83,3.8,4.1,2.35,2.21,4.8,4.31,7.22,6.43a17.91,17.91,0,0,0,2.13,1.66,3.61,3.61,0,0,1,1.53,1.47,1.17,1.17,0,0,0,1.45.77,24.79,24.79,0,0,1,6.11-9.66c2.91-2.74,6.57-4.12,10.6-5.09-.67-1.15-1.32-2.14-1.85-3.19-.7-1.4-1.31-2.86-2-4.3s-1.18-2.62-1.8-3.92c-1.17-2.47-2.26-5-3.58-7.38-1.69-3-3.57-6-5.44-9.11-.15.31-.25.5-.33.7-.72,1.86-1.42,3.73-2.17,5.57a18.09,18.09,0,0,1-1.21,2.41,40.81,40.81,0,0,1-2.49,3.85,24.66,24.66,0,0,1-2.78,2.91,23.76,23.76,0,0,1-5.6,4.38,29.7,29.7,0,0,1-6.07,2.23A17.41,17.41,0,0,0,191.71,141.48Zm11.2-11.61a13.08,13.08,0,0,0-.59-1.77c-1.56-3-3.17-6-4.73-9-.9-1.76-1.74-3.55-2.58-5.24l.77-1.36c-1.19-1-1.67-2.56-3.07-3.25a20.13,20.13,0,0,0-3.69,4.8c1,.89,1.55,2.05,2.46,3s1.84,2.29,2.79,3.42c.84,1,1.78,1.89,2.62,2.87.6.7,1.78,1.06,1.48,2.34,0,.09.12.24.22.33q1.92,1.85,3.85,3.68A1.54,1.54,0,0,0,202.91,129.87Zm-.41,3.38c-.37-.45-.69-.82-1-1.18a15.59,15.59,0,0,0-1.06-1.23c-2.63-2.51-5.07-5.22-7.5-7.93a1.18,1.18,0,0,1-.36-.82c.16-1.17-.73-1.63-1.41-2.45-.26,1-.43,1.75-.69,2.53s-.66,1.64-1,2.38c1.08,1.14,2.06,2.11,3,3.14,1.26,1.41,2.44,2.89,3.72,4.28s2.47,2.52,3.69,3.76c1.48-.72,3.51-2.45,3.82-3.33Zm-20.13-1.56a30.66,30.66,0,0,1,3,1.78c2,1.56,3.95,3.23,5.95,4.8a2,2,0,0,0,1.38.46,37.8,37.8,0,0,0,3.88-1.07,3.31,3.31,0,0,0,.86-.62,135.32,135.32,0,0,0-14-8.88C183,129.45,182.67,130.65,182.37,131.69Zm28.46-8.63c.3-.75.53-1.27.73-1.81a11.41,11.41,0,0,0,.45-1.4,4.83,4.83,0,0,0,.24-1.7c-.26-1.69-.56-3.38-1-5-.5-2-2.06-3.09-3.66-4.09-.74-.46-1.26-.12-1.38.77a2.37,2.37,0,0,0,.05.92q.42,1.38.9,2.76c.44,1.26.88,2.53,1.35,3.79a4.69,4.69,0,0,1,.62,2.67c0,.1,0,.31.09.32,1.17.25.56,1.09.54,1.65C210.1,122.25,210.36,122.55,210.83,123.06Zm-12.08-12c-.26-.8-.44-1.44-.66-2.06-.42-1.19-.82-2.39-1.31-3.56a1.6,1.6,0,0,1-.05-1.4,10.19,10.19,0,0,0,.42-1.78c-1.77.62-3.32,1.14-4.85,1.69-1,.34-1.89.72-3,1.14-.33.78.7,1.12,1,1.77s.84,1.44,1.31,2.25a9.39,9.39,0,0,1,.65-.82,1.3,1.3,0,0,1,1.72-.17,13.57,13.57,0,0,1,1,1.52,3.82,3.82,0,0,0,.49.78c.53.47,1.11.87,1.76,1.38Zm-7.78,7a12.69,12.69,0,0,1-1.29-1.22c-.35-.42-.55-1-.89-1.41-.55-.71-1.2-1.35-1.73-2.08s-.88-1.68-1.85-2.08c-.2-.08-.27-.47-.49-.89l-3.38,4.35a14.12,14.12,0,0,0,2.44,1.18,6,6,0,0,1,2.82,1.69,12.85,12.85,0,0,0,3.11,2.59Zm-13.34,6.56,4.33,2.71c.48-1.07.51-1.15,1.3-.93a9.24,9.24,0,0,1,2.43.92c1.79,1.08,3.51,2.28,5.28,3.4.16.11.43,0,.66,0l.08-.25-9.08-6.24-.83.33a7.28,7.28,0,0,0-.28-1.75,1.33,1.33,0,0,1,.13-1.28c.2-.39.46-.74.74-1.19a15.92,15.92,0,0,0-1.61-1c-.69-.35-.93-.21-1.21.51Zm5.65-2.26,4.26,2.72,1.74-3.19a13.73,13.73,0,0,0-1.5-1.39c-1-.65-2-1.15-2.95-1.84-.47-.35-.76-.3-1.27,0C184.33,120,183,121.08,183.28,122.4ZM208.39,108c.23,1.15,1.65,1.09,1.72,2.21.38-1-.44-1.8-.33-2.93Zm21.42,38.88c.25-1.28.07-1.74-.84-2.27Zm-38.94-5.24-.37.22c.35.44.69.88,1,1.31l.16-.12Zm5.08-7.46.26-.24c-.2-.36-.28-.85-1.18-.75Zm-2.56-2.34,1.09.33C194,131.39,194,131.39,193.39,131.84Zm26.31,21.25-.11-.22-.58.35.09.16Zm-30.77-26.72-.19.28.72.42.13-.2Z" fill="#f7931e"/><path d="M222.23,121.54a4.86,4.86,0,0,1,1.05,1c.72,1.25,1.34,2.55,2,3.81.59,1.07,1.18,2.15,1.83,3.18.54.83,1.17,1.59,1.82,2.45l-.72.36c.23.67.45,1.35.69,2l-.79.46c-.12-.12-.25-.19-.3-.3a45.2,45.2,0,0,1-2-4.38,23.16,23.16,0,0,0-2-4c-.62-1.1-1.25-2.2-1.82-3.32a3.64,3.64,0,0,1-.18-1.11Z" fill="#f7931e"/><path d="M176.61,131.53c1.95,1.88,3.7,3.93,6.53,4.81a1.89,1.89,0,0,1-2.3-.09c-1.44-1-2.78-2.11-4.12-3.23C176.24,132.62,176.33,132.08,176.61,131.53Z" fill="#f7931e"/><path d="M194.68,153.48c.54-.49.87-.72,1.51-.35a10,10,0,0,1,3.62,3.53c-.35.38-.64.58-1,.17-.21-.22-.42-.46-.64-.68a7.87,7.87,0,0,0-3-2.24C195,153.86,194.92,153.69,194.68,153.48Z" fill="#f7931e"/><path d="M200,98.85c-.78-.1-1.64.38-2.36-.29C198.14,98.11,198.14,98.11,200,98.85Z" fill="#f7931e"/><path d="M204.48,147.49a4.59,4.59,0,0,1-.49-4.74,9.11,9.11,0,0,1,4.07-4.25c.88-.45,1.68-1.08,2.58-1.48a7.31,7.31,0,0,1,5-.3,4,4,0,0,1,2.43,3c.59,2,.22,3.91.05,5.87a10.44,10.44,0,0,1-1.87,4.28,6,6,0,0,1-2.78,2.18c-2.41,1.16-4.34.19-6.24-1.08a7.53,7.53,0,0,1-1.48-1.68C205.3,148.68,204.9,148.08,204.48,147.49Zm2.25-1c.25.42.37.61.48.81,1.11,2.1,3.15,2.8,5.64,1.86a9,9,0,0,0,3.36-2.67,5.09,5.09,0,0,0,1.21-2.77,11.58,11.58,0,0,0-.44-3.32c-.31-1.54-.85-1.94-2.37-2a9.24,9.24,0,0,0-4.2.84,9.76,9.76,0,0,0-2.63,1.91c-1,.88-1.11,2-1.64,3S206.34,146,206.73,146.54Z" fill="#f7931e"/><path d="M198.57,144c.8.31.92,1.16,1.36,1.76s1,.9,1.2,1.71c.13.62.77,1.13,1.35,1.91a4.5,4.5,0,0,1-.91-.11c-.11,0-.19-.18-.26-.29a29.18,29.18,0,0,0-2.83-3.72C198.1,144.86,198,144.39,198.57,144Z" fill="#f7931e"/><path d="M220.12,131.6c.93.77,1.68,1.25,1.73,2.28C220.74,134,220.57,133.75,220.12,131.6Z" fill="#f7931e"/><path d="M224.73,141.07c.65.31,1,.69.81,1.23a1.13,1.13,0,0,1-.63.7c-.35.09-.68-.54-.55-1C224.45,141.75,224.57,141.48,224.73,141.07Z" fill="#f7931e"/><path d="M83.8,46c-.09.55-.16.9-.23,1.3-.18-.1-.35-.13-.41-.23a12.46,12.46,0,0,1-1.87-4.71,57.36,57.36,0,0,1-.94-8.13,9.44,9.44,0,0,1,1.05-5c1-1.72,1.1-3.69,1.94-5.43.26-.54.48-1.11.7-1.67.15-.4.25-.76.81-.81.25,0,.52-.36.7-.61.77-1,1.44-2.14,2.26-3.12A71.52,71.52,0,0,1,100.6,5.93a32.54,32.54,0,0,1,3.11-2.17A16.34,16.34,0,0,1,107.45,2c.86-.23,1.68-.58,1.72-1.63a5.09,5.09,0,0,1,3.76,0c1.78.79,4.07.89,5.09,3,1.43.66,1.58,2.13,1.89,3.36a16.27,16.27,0,0,1,.17,2,.75.75,0,0,0,.3.55c.89.35.67.91.27,1.43a2.3,2.3,0,0,0-.17,2.95,3.49,3.49,0,0,1,.25,1.12,2.08,2.08,0,0,1,2.1,1.8,1.27,1.27,0,0,1,0,.66,2.76,2.76,0,0,0,.3,2.52,15.91,15.91,0,0,0,3.17,4.45c.16.16.4.32.44.52.23,1.31,1.3,1.94,2.16,2.74a3.68,3.68,0,0,1,1.51,2.83,14.49,14.49,0,0,0,.22,1.92,2.35,2.35,0,0,1,.87.4,24.28,24.28,0,0,1,1.54,1.94,20.77,20.77,0,0,0,2.41,3.2c1.61,1.45,2.24,3.57,3.75,5a17.07,17.07,0,0,1,2.49,3.8,6,6,0,0,1,.54,1.69,5.89,5.89,0,0,0,1.61,2.7c.24.27.51.52.75.8.81,1,.8,1,.16,2.08a1.29,1.29,0,0,0,0,.35c.72.21,1.46.4,2.19.65s1.15.41,1.38,1.28c.15.56.58,1,.38,1.72a7.89,7.89,0,0,0,0,2.11,3.1,3.1,0,0,1-2.34.75,2.81,2.81,0,0,0-1,.1c-1.51.43-2.94-.13-4.37-.38a22,22,0,0,1-3.11-1.14c-1.81-.58-3.61-1.18-5.45-1.65a25.35,25.35,0,0,0-3.18-.38c-.73-.09-1.46-.16-2.18-.28l-5.88-1c-.23,0-.55,0-.67-.13-1-1.13-2.46-.95-3.7-1.39-.17-.06-.49,0-.52-.15-.56-1.68-2.28-1.13-3.4-1.7a4.77,4.77,0,0,0-3.54-.21,2.57,2.57,0,0,1-2.54-.67,8.07,8.07,0,0,0-3-1q-3.39-1-6.81-1.9c-.66-.18-1.36-.26-2-.39a11.65,11.65,0,0,1-3.5-.8,2.09,2.09,0,0,0-2,.21,2.08,2.08,0,0,1-2.1-.05c-.81-.44-1.64-.84-2.47-1.24C84.66,46.27,84.31,46.16,83.8,46Zm59,13.49,1.73.18a1.13,1.13,0,0,0,1.34-.66c.26-.48.89-.75,1.33-1.14.26-.22.73-.52.69-.71a1.39,1.39,0,0,0-.69-.91,6,6,0,0,0-1.87-.44,25.6,25.6,0,0,1-3.17-.09A41.17,41.17,0,0,1,137,54.31a2.13,2.13,0,0,1-1.12-1.09,7.67,7.67,0,0,1-.1-5,3.35,3.35,0,0,1,.56-1.41c.79-.82,1.69-1.53,2.68-2.4-.8-1.07-1.59-2.17-2.43-3.24A15.84,15.84,0,0,0,134.76,39c-.83-.72-1.82-1.25-2.69-1.93a3,3,0,0,1-.8-1.11c-.27-.54-.4-1.15-.64-1.7-.14-.32-.33-.72-.6-.84-.73-.33-.71-.9-.71-1.52s0-1.17-.06-1.69l-1.48-.48c0-.26-.06-.37,0-.45a1.3,1.3,0,0,0-.61-1.77c-.67-.45-1.15-.06-1.63.29a18.29,18.29,0,0,0-3.12,2.42,6.28,6.28,0,0,1-3,1.53,4.77,4.77,0,0,1-2.58.33,22,22,0,0,1-3.89-1.17,10.63,10.63,0,0,1-3.87-2.86,5.8,5.8,0,0,1-.08-6.25,10,10,0,0,1,2.66-2.35,24,24,0,0,1,5.18-2.26,10.41,10.41,0,0,1,2.13-.3c-.08-1.24.33-2.45-.39-3.58-.38-.21-.78-.41-1-.52-1.36.85-2.54,1.65-3.78,2.34-.84.47-1.84.67-2.65,1.19q-3,1.91-5.8,4A7.54,7.54,0,0,0,102.78,23c-.9,1.77-2.1,3.37-3.17,5.05a1.81,1.81,0,0,0-.2.5c-.14.58-.22,1.18-.4,1.75-.88,2.68-1.7,5.4-2.72,8a46.59,46.59,0,0,0-2,6,11.14,11.14,0,0,0,1.25.62c2.19.74,4.37,1.53,6.59,2.16a5.52,5.52,0,0,1,2.17,1.17,9,9,0,0,0,6.25,2.34,6.53,6.53,0,0,0,0-.77c-.47-3.11.92-5.64,2.7-7.94a14.61,14.61,0,0,1,3.28-2.75,6.06,6.06,0,0,1,7.17,0,12.5,12.5,0,0,1,4.46,5.17,6.5,6.5,0,0,1,.55,4.07,8.81,8.81,0,0,1-.75,1.87,8.72,8.72,0,0,1-2.89,4,5.66,5.66,0,0,0-.79.85l3.44.69c2.22.44,4.44.93,6.67,1.33s4.76.8,7.14,1.14A1.17,1.17,0,0,1,142.77,59.46ZM116.47,6.28a3.08,3.08,0,0,1-.09-1.11A1,1,0,0,0,115.93,4c-2.72-2.13-5.53-2.65-8.64-.82-1.43.84-2.73,1.91-4.16,2.76-.69.41-1.57.5-1.72,1.52,0,.15-.2.31-.35.41L99,9.28c-1.75,1.27-3.73,2.26-5,4.09a4.5,4.5,0,0,1-.46.52c-.78.83-1.59,1.65-2.35,2.5s-1.89,1.45-1.71,2.86c0,.1-.18.2-.25.32-.58.95-1.21,1.88-1.72,2.87-1.07,2.11-2.09,4.25-3.1,6.4a1.45,1.45,0,0,0-.12,1.07,2.32,2.32,0,0,1-.29,2,27.44,27.44,0,0,0-1.14,2.69,11.55,11.55,0,0,0,.06,6.54c.7,2.44.67,2.45,3.19,3.11.6.16,1.21.29,2,.47a35.85,35.85,0,0,0,0-4c-.41-3.28,1-6.15,2.32-8.87,1-2,1.49-4.38,3.09-6.16a18.53,18.53,0,0,0,1.38-2.23,33.48,33.48,0,0,1,2.06-2.93c.33-.41,1-.53,1.39-.92a31.52,31.52,0,0,0,3.69-4,21.29,21.29,0,0,1,2.3-2.37l.25.55c.32-.23.66-.45,1-.7a28.83,28.83,0,0,0,2.36-1.9c1-1,1.83-2.19,3.48-2.07.2,0,.41-.21.61-.32Zm.7,1.51c-.38.07-.74.09-1.09.19-3.25.94-5.67,3.27-8.39,5.09-.37.25-.64.66-1,.94-.9.7-1.9,1.28-2.72,2.06-1.17,1.1-2.19,2.36-3.32,3.51-.67.69-1.45,1.27-2.14,1.94a27.92,27.92,0,0,0-5.1,7.23c-.26.49-.83.88-.93,1.38-.41,2.22-1.6,4.23-1.64,6.57a31.42,31.42,0,0,1-.65,4.39c-.22,1.35-.47,2.7-.73,4.2,1.05-.07,1.82.68,2.85.16a28.7,28.7,0,0,0,.56-3,38.91,38.91,0,0,1,1.69-7.86,12.48,12.48,0,0,1,.58-2.14C96,30.67,97,29,97.93,27.28c.81-1.46,1.59-2.93,2.46-4.34.57-.92,1-2,2.28-2.27a1,1,0,0,0,.46-.3c1-1.09,2-2.2,3.08-3.27s2-1.9,3-2.92l.61,1,5.84-3.52c.84.83,1.36-.26,2.13-.16C117.61,10.23,117.41,9.12,117.17,7.79Zm10.22,40.12A8.51,8.51,0,0,0,122.88,41a4,4,0,0,0-2.57-.37,8.87,8.87,0,0,0-1.36.28c-1.66.49-3.28,1.07-4.21,2.69a14.48,14.48,0,0,0-1.56,3.06,4,4,0,0,0,0,2.72,6.33,6.33,0,0,0,3.27,3.37c1.09.4,2.17.83,3.27,1.2a22.31,22.31,0,0,0,2.66.74,1.62,1.62,0,0,0,1.13-.25A14.59,14.59,0,0,0,125,53.17,7.05,7.05,0,0,0,127.39,47.91ZM120,18.5a14.34,14.34,0,0,0-8.65,2.56c-2.94,2.13-3,5.8.07,7.77a18.76,18.76,0,0,0,2.75,1.31,1.89,1.89,0,0,0,.93.18c1.34-.1,2.69-.18,4-.4s2.74-.53,3.49-1.94c.09-.18.34-.27.51-.42.38-.32.77-.63,1.12-1s.35-.85-.12-1.3a16.92,16.92,0,0,1-2-2.2c-.71-1-1.17-2.13-2-3A1.06,1.06,0,0,1,120,18.5Zm18.76,28.24a4.11,4.11,0,0,0-1.67,2.44c-.78,2.21,1.08,4.2,2.7,4.55a19.23,19.23,0,0,0,3.88.05C142.85,50.82,140.71,48.88,138.78,46.74ZM93.63,45.9c.69.31,1.13.63,1.84.08C94.82,45.82,94.43,45.28,93.63,45.9Zm18,4.52.28-.11c-.18-.47-.35-1-.53-1.42l-.26.1ZM83.35,27.26c.82-1.08.82-1.08.66-2Z" fill="#f7931e"/><path d="M94.19,54.87c.29-.21.44-.41.62-.44a9.24,9.24,0,0,1,1.39-.06A4.41,4.41,0,0,0,98.47,54a6,6,0,0,1,2.62-.22c1.38,0,2.74.19,4.12.29l0,.3h-4.7c1.91,1.44,4,.49,6.05,1.35-.4.25-.64.54-.87.53a21.8,21.8,0,0,1-3.62-.22,28.27,28.27,0,0,0-7.26-.91C94.65,55.17,94.49,55,94.19,54.87Z" fill="#f7931e"/><path d="M123.58,60.9c-1.92.09-3.26-1.11-5-1.59l1-1.31a6.92,6.92,0,0,0-3.47-.7c-.55.06-1,0-1.23-.8,2.64-.75,4.85.37,7.29,1.56l-1.38.88C121.59,59.66,123.06,59.45,123.58,60.9Z" fill="#f7931e"/><path d="M130.6,26c1,.3,1.24,1.4,2,2a13.52,13.52,0,0,1,2.11,2.35,29.77,29.77,0,0,1,1.69,2.51c.53.85,1,1.73,1.5,2.6-.75,0-1.3-.64-2.5-3.09-.85.27-1.36-.07-1.82-.9-.91-1.66-2-3.21-3-4.81a2.48,2.48,0,0,1-.17-.37Z" fill="#f7931e"/><path d="M142.71,41.55c-.79,1-.88,1.07-1.45.41s-1.17-1.52-1.76-2.28c-.25-.32-.53-.61-.8-.91.73-.82.91-.81,1.57-.18C141.19,39.48,141.4,40.88,142.71,41.55Z" fill="#f7931e"/><path d="M149.93,49.29c.17.93.39,1.85.5,2.78,0,.22-.29.48-.44.72-.19-.17-.49-.29-.55-.5a13.06,13.06,0,0,1-.45-1.87C148.89,49.84,149.11,49.44,149.93,49.29Z" fill="#f7931e"/><path d="M113.87,36c-1.14,1.73-2.82,1.85-4.65,1.41s-3.58-.87-5.36-1.32a3.79,3.79,0,0,1-2.17-1.75c1.8-2,4.17-2.18,6.63-2.15C111,32.23,112.55,33.94,113.87,36Zm-1.77,0c-2.76-2.29-6.39-3.65-8.64-1.79a8.75,8.75,0,0,0,1.2.63c1.14.39,2.32.66,3.43,1.1A6.74,6.74,0,0,0,112.1,36Z" fill="#f7931e"/><path d="M124.29,34.38a3.11,3.11,0,0,1,.63-1c.48-.38,1-.18,1.54.18s.86.53,1.28.81a3.67,3.67,0,0,1,1.66,2.9A2.72,2.72,0,0,1,127,39.85a.89.89,0,0,1-.71-.32A15.05,15.05,0,0,1,124.29,34.38Zm2.24.51a3.9,3.9,0,0,0,.38,2.79c.17.21.53.26.85.4C128.33,36.54,127.31,35.8,126.53,34.89Z" fill="#f7931e"/><path d="M131.42,44c.31-.14.72-.48,1.12-.47a2.51,2.51,0,0,1,1.4.5,1.39,1.39,0,0,1,.52,1.82c-.77,1.3-1.29,1.66-2.13,1.44-.44-.12-1.23-1-1.2-1.39C131.17,45.32,131.3,44.74,131.42,44Zm2.49,1.14c-.55-.37-.88-.76-1.09-.7-.58.15-.65.66-.49,1.39Z" fill="#f7931e"/><path d="M103.87,42.73c.09-1.36.27-1.65,1-1.71a2.5,2.5,0,0,1,2.22,1.56,1.42,1.42,0,0,1-.87,1.94,2.41,2.41,0,0,1-1.72.11A1.56,1.56,0,0,1,103.87,42.73ZM105,41.45c-.1.63-.2,1-.22,1.42a3.8,3.8,0,0,0,.16.87,9.4,9.4,0,0,0,.92-.39c.13-.08.17-.3.29-.53Z" fill="#f7931e"/><path d="M109.76,8.46a1.58,1.58,0,0,1-1.72.32,1.06,1.06,0,0,0-1.36.64c-.32.7-.91.85-1.84.54a5.56,5.56,0,0,1,1-1C107,8.28,108.19,7.66,109.76,8.46Z" fill="#f7931e"/><path d="M109.3,5.37c1.25-1.25,3.07-1.28,4.82,0H109.3Z" fill="#f7931e"/><path d="M85.4,43.64c-.91-.86-.72-1.66.65-2.65A2.1,2.1,0,0,1,85.4,43.64Z" fill="#f7931e"/><path d="M122.13,48.88c-.2.83.12,1.63-.7,2-1,.49-1.91,1.2-3.12.89a3.32,3.32,0,0,1-2.16-3.23c0-.62-.17-1.19.26-1.79a2,2,0,0,1,1.56-1,4.26,4.26,0,0,1,3.9,1.92A2.61,2.61,0,0,1,122.13,48.88Zm-4.24.6.81.68c.68.52,1,.51,1.58,0,.77-.68.83-1,.44-1.78-.6-1.14-1.72-1.24-2.93-1.57l-.62,1.65,1.09.27C118.12,49,118,49.19,117.89,49.48Z" fill="#f7931e"/><path d="M124.06,46.36c-.26-.23-.48-.58-.76-.62a1,1,0,0,1-1-1.23,1.31,1.31,0,0,1,1.16-1.34,2.42,2.42,0,0,0,.42-.19L126,44.43A2.56,2.56,0,0,1,124.06,46.36Z" fill="#f7931e"/><path d="M115.92,23.82l-.55.78a2.15,2.15,0,0,1-2,.89c-.78-.11-1.18-.82-1.38-1.57a6,6,0,0,1-.21-.93,1.54,1.54,0,0,1,2.89-1c.28.41.62.77.92,1.17A4.44,4.44,0,0,1,115.92,23.82Zm-3-.93c.31.47.58.89.85,1.32l.37-.09c0-.35.24-.77.12-1.05C114.1,22.58,113.62,22.57,113,22.89Z" fill="#f7931e"/><path d="M120.61,24.06A7.11,7.11,0,0,1,122,25a1.65,1.65,0,0,1-.58,2.41,4.77,4.77,0,0,1-2,.51c-1.54,0-2.14-.86-1.72-2.35.06-.22.15-.43.22-.65.19-.67.55-1.05,1.32-.83a5.83,5.83,0,0,0,1,.13c.23.59,0,.83-.55.74s-.88-.33-1,.22a1,1,0,0,0,.6,1.13c.72.41.81.44,1.94,0Z" fill="#f7931e"/><path d="M201.55,68.48a8.9,8.9,0,0,0-1,1.17,6.81,6.81,0,0,1-8.1,2.89,1.48,1.48,0,0,0-.27-.1c-2.34-.21-3.68-1.87-5.15-3.44a11.6,11.6,0,0,1-2.46-4.79,5.07,5.07,0,0,1,2.08-5.9A15.39,15.39,0,0,1,189,56.89a5.33,5.33,0,0,1,4.6-.15,3.68,3.68,0,0,0,1,.14c-.07-1.23-.91-2.05-1.35-3s-1-2.06-.63-3.3a5.15,5.15,0,0,1,1-1.6c2.24-3,5.32-5,8.5-6.8,1.39-.81,3-1.28,4.22-2.39a11.15,11.15,0,0,1,3.07-1.38,27.06,27.06,0,0,1,7.31-1.73c2.79-.34,5.27.27,7.1,2.57a5.11,5.11,0,0,1,.59,1.5,10,10,0,0,0,.78,2.35,21,21,0,0,1,3.39,11.08c0,.87.24,1.75.22,2.62-.05,2.62-1,5.07-1.64,7.56-.85,3.06-3.06,5.12-5.42,7a12,12,0,0,1-3.36,1.3c-1,.38-2.11.72-3.16,1.12a4.55,4.55,0,0,1-2.58.42,3.9,3.9,0,0,0-1.52,0,6.76,6.76,0,0,1-5-1.26A13,13,0,0,1,201.55,68.48ZM197.2,47.15a1.32,1.32,0,0,0-.28,0c-1.38.32-1.84,1.56-2.47,2.59-.19.3.15.68.73.61a17.4,17.4,0,0,1,.85-1.66c.33-.54.74-1,1.11-1.54l.77-.71C197.4,46.46,196.67,46.37,197.2,47.15Zm-.91,9.73c1.44,2.44,2.76,4.76,4.18,7a12.32,12.32,0,0,0,3.1,3.86c1.75,1.25,3.29,2.85,5.58,3.17s4.3.7,6.46,1a3.14,3.14,0,0,0,1.09-.21,11.77,11.77,0,0,0,4.6-2.54,10.71,10.71,0,0,0,4-5.95,51,51,0,0,0,1.35-9.87c.13-3.48-1.26-6.36-2.54-9.39-.16.12-.25.16-.29.23a23.73,23.73,0,0,1-3.09,4.88A20.39,20.39,0,0,1,214.51,54a19.6,19.6,0,0,1-8,2c-2.54.11-5.08.28-7.63.18-.22,0-.59,0-.63.1C197.9,57.26,197.1,56.83,196.29,56.88Zm2.17-4c.08.18.09.24.12.26a1.57,1.57,0,0,0,.33.26,11.16,11.16,0,0,0,8.75.64A36.73,36.73,0,0,0,213,51.78c1.5-.79,3.07-1.48,4.53-2.35a8.17,8.17,0,0,0,3.35-3.65,9.52,9.52,0,0,0-1.74-1.21,6.14,6.14,0,0,0-3.69-.27,7.86,7.86,0,0,1-2.76.19c-.29.29-.46.59-.7.67a29.48,29.48,0,0,0-3,1,42.7,42.7,0,0,0-7,3.67C200.72,50.75,199.26,51.44,198.46,52.91Zm23.19-8a19.68,19.68,0,0,0,0-2.82c-.42-2.68-2.09-3.75-4.3-3.56a18.69,18.69,0,0,0-3.13.64,29.88,29.88,0,0,0-6.6,2.53A64.6,64.6,0,0,0,201.92,45a19.34,19.34,0,0,0-4,3.32,4.57,4.57,0,0,0-1,2.83,20.25,20.25,0,0,0,3.23-2.42,11,11,0,0,1,3.46-2.25,52.19,52.19,0,0,1,7.36-2.81,18.55,18.55,0,0,1,5.67-1.33c1.18,0,2.22-.12,3,1.12C219.93,44,220.78,44.33,221.65,44.94ZM200.09,66.8a4.77,4.77,0,0,0-.88.32c-.68.4-1.32.86-2,1.24a6.11,6.11,0,0,1-3.33.62c-2.26-.07-3.37-.7-4.1-2.79-.1-.31-.2-.62-.32-.93-1-2.46.55-4.24,2.65-4.76a20.92,20.92,0,0,1,3.81-.23c0-1.27-.92-1.86-2.19-2.05a15.62,15.62,0,0,0-2.62-.32c-1,0-2-.18-2.8.59a5.74,5.74,0,0,0-1.91,3.33,10,10,0,0,0,.95,5.7,6.53,6.53,0,0,0,8.51,3.08A29.49,29.49,0,0,0,199,68.84,1.79,1.79,0,0,0,200.09,66.8Zm-3.2-.75.81-.45c.91-.51,1-.73.42-1.61a5.7,5.7,0,0,1-.56-1.1,1.6,1.6,0,0,0-1.51-1.21c-.32,0-.64-.08-1-.13a3.1,3.1,0,0,0-3.53,1.79A2.76,2.76,0,0,0,193,66.65a1,1,0,0,0,.41.06Zm23.2-27.94c.65,1.24,1.36,1.94,2.11,2.11C222.23,38.79,221.23,38.46,220.09,38.11ZM197.28,53.7l-.2.42c.54.49,1,1.15,1.95.75Zm14.46,18.59.1-.27c-.35-.29-.7-.58-1.32,0Zm15.8-16.06h.25c0-.35,0-.71,0-1.07h-.23ZM210,72l.11-.35-1.07-.22-.05.24Zm-24.9-9.58.3,0,.16-1.39-.31,0Z" fill="#c69c6d"/><path d="M230.56,59.86c-1-2.25-.68-4.57-1-6.8a.75.75,0,0,1,0-.42c.71-1.37.07-2.62-.38-3.88-.07-.21-.11-.43-.16-.63.62-.39.87,0,1,.43a27.31,27.31,0,0,1,.75,3.66c.19,1.83.22,3.68.34,5.52A3.41,3.41,0,0,1,230.56,59.86Z" fill="#c69c6d"/><path d="M208.77,76.34c-2.41.58-4.51-.1-6.82-.42l.84-1.2-.89-.67c.21-.06.32-.13.4-.1a9.8,9.8,0,0,1,3.19,1,4.29,4.29,0,0,0,1.43.34,11.66,11.66,0,0,1,1.47.35C208.55,75.74,208.61,76,208.77,76.34Z" fill="#c69c6d"/><path d="M227.79,42.47c.36,1.1,1.37,1.93.48,3.34a7.53,7.53,0,0,1-1-2.8C227.26,42.9,227.55,42.72,227.79,42.47Z" fill="#c69c6d"/><path d="M201.37,60.44a10.81,10.81,0,0,1,1,2.13,3.71,3.71,0,0,0,1,1.89,13.44,13.44,0,0,0,4,3.23c.64.31,1.34.49,2.19.8a1.87,1.87,0,0,1-2.55-.09,2.57,2.57,0,0,0-2.52-.58c-1-1.22-1.6-2.64-2.94-3.42-.14-.08-.3-.37-.25-.47.39-.88-.32-1.55-.39-2.32C201,61.33,201.18,61,201.37,60.44Z" fill="#c69c6d"/><path d="M297,64.86a4.34,4.34,0,0,0-2.71-.19,9.89,9.89,0,0,1-4.29-.16c-1.46-.42-3-.7-4.47-1a1.17,1.17,0,0,0-.55,0c-2,.62-3.7-.3-5.4-1.22a14,14,0,0,0-2.18-.73,18,18,0,0,1-5.48-2.53s-.07-.09-.11-.1c-1.88-.21-3.23-1.59-4.9-2.29a23.27,23.27,0,0,1-5.38-3.24c-.14-.12-.23-.37-.38-.4-1.65-.31-2.59-1.68-3.84-2.59-.8-.58-1.5-1.28-2.53-2.17a17.33,17.33,0,0,1-.71-2.06,2.39,2.39,0,0,1,.57-2.55,36.27,36.27,0,0,0,2.66-3.33c1-1.25,2.1-2.43,3.05-3.72,1.65-2.23,3.22-4.52,4.83-6.79.18-.25.4-.69.59-.69.93,0,1.1-.79,1.48-1.32.78-1.06,1.47-2.19,2.15-3.22-1.29-1.35-2.63-2.61-3.79-4a5.67,5.67,0,0,1,0-6.63,16,16,0,0,1,3.36-3.51,11.61,11.61,0,0,1,4.65-2,19.43,19.43,0,0,1,7.2-.57c.58.09,1.22-.15,1.79,0a34.44,34.44,0,0,1,3.63.92q2.85.89,5.66,1.91c.9.33,1.75.81,2.63,1.2a13.15,13.15,0,0,0,2.42,1,13.61,13.61,0,0,1,4,1.86c2.18,1.26,4.2,2.81,6.42,4a19.61,19.61,0,0,1,2.33,2c.33.24.58.6.92.85a11.31,11.31,0,0,1,2.71,3.43,16.9,16.9,0,0,1,2,6.41A7.23,7.23,0,0,1,312.48,38a6.75,6.75,0,0,1-4.38,1.83,4.08,4.08,0,0,0-1.42.32,1.48,1.48,0,0,0-.8.67c-.52,1.28-1,2.59-1.44,3.89.62,2-1,3.37-1.39,5.1a16,16,0,0,1-.89,2.45,25,25,0,0,1-1.79,4.47c-1,1.6-1.23,3.47-2.17,5.08A20.38,20.38,0,0,0,297,64.86ZM254.62,45.53a6.23,6.23,0,0,0,.53.75,33.41,33.41,0,0,0,3.15,2.92c1.93,1.43,3.92,2.8,6,4s4.28,2.17,6.32,3.42c1.35.83,3.06.7,4.27,1.79.05,0,.19,0,.27,0a18.52,18.52,0,0,1,1.78.74,10.52,10.52,0,0,0,1.82.88c2,.57,4,1.18,6,1.65,2.42.57,4.85,1.15,7.31,1.48a18.67,18.67,0,0,0,4-.26c.34-1,.62-1.82.91-2.64s.61-1.89,1-2.81.73-1.59,1-2.4a13.4,13.4,0,0,0,.52-1.88,16.48,16.48,0,0,1,.35-1.86c.27-.78.74-1.49,1-2.26,1.39-3.51,2.76-7,4.22-10.76a11,11,0,0,0,1.34.09,12.56,12.56,0,0,0,2.61-.26c.69-.19,1.28-.74,2-1,2.83-1.06,3.64-4,3-6.49a23.59,23.59,0,0,0-1.25-4,7.71,7.71,0,0,0-2.92-3.79,45,45,0,0,1-4.21-3,22.7,22.7,0,0,0-5.24-3.28c-2.29-.9-4.3-2.42-6.76-2.91a1.72,1.72,0,0,1-.67-.46c-.21-.18-.35-.48-.59-.57-1.75-.69-3.51-1.39-5.29-2a15,15,0,0,0-2.24-.39c-1.41-.24-2.83-.44-4.22-.76a12.09,12.09,0,0,0-5.22,0c-1.15.23-2.25.59-3.37.91a5.26,5.26,0,0,0-2.5,1.42,2.82,2.82,0,0,1-.73.65c-1.69.8-2.13,2.61-3.2,3.92a1.16,1.16,0,0,0-.08.94,8.58,8.58,0,0,0,5.41,6.07,5.87,5.87,0,0,1-1.16,2.69,56.58,56.58,0,0,1-4.22,6.29c-1.51,1.8-2.84,3.76-4.35,5.56C259.06,40.51,256.87,43,254.62,45.53Z" fill="#fbb03b"/><path d="M303.73,36.54a26.49,26.49,0,0,1-1.08,3.26c-.78,1.64-1,3.46-1.82,5.09a43.26,43.26,0,0,0-1.77,4.65c-.69,1.78-1.42,3.55-2.11,5.33-.29.74-.5,1.5-.81,2.22a10.73,10.73,0,0,1-1.16,2.2,2.89,2.89,0,0,1-3,1c-2.75-.61-5.43-1.53-8.19-2.1a56.26,56.26,0,0,1-8.53-3c-2.41-.93-4.83-1.81-7.21-2.79a35.84,35.84,0,0,1-3.19-1.67,19,19,0,0,1-2.28-1.31c-1.22-.9-2.38-1.88-3.54-2.86A1.07,1.07,0,0,1,258.9,45c1.42-2,2.82-4,4.24-6a23.84,23.84,0,0,1,2-2.68c1.49-1.6,2.31-3.64,3.62-5.35a74.74,74.74,0,0,0,4.18-6.69c.46-.77.42-1.05-.43-1.36-2-.72-2.76-2.51-3.67-4.12-.72-1.27.11-3.35,1.47-4.43a8.85,8.85,0,0,1,4.14-1.88c1.59-.27,3.18-.59,4.79-.7a12.11,12.11,0,0,1,3,.33,37,37,0,0,1,6.41,1.7c2.29.87,4.66,1.55,6.95,2.4a26.43,26.43,0,0,1,3.11,1.54c1.18.63,2.32,1.32,3.51,1.94A23.29,23.29,0,0,1,308.8,25a10.67,10.67,0,0,1,2.69,4.15,5.71,5.71,0,0,1,.24,1.36,16.85,16.85,0,0,1-.07,2.56,5.2,5.2,0,0,1-3.21,3.46,5.07,5.07,0,0,1-3.13.06A4.62,4.62,0,0,0,303.73,36.54ZM260,45.81c1.45,2.37,3.77,3.35,5.81,4.64a30.84,30.84,0,0,0,6.11,2.6c2.66,1,5.25,2.07,7.89,3.08a74.16,74.16,0,0,0,10,2.89,22.69,22.69,0,0,0,2.47.4c.21,0,.61-.05.62-.13.15-.95,1.23-1.13,1.55-1.88.56-1.31,1-2.67,1.56-4l.81-2.06c.84-2.15,1.83-4.25,2.46-6.45.93-3.27,2.36-6.31,3.58-9.43a40.51,40.51,0,0,0,4.23.47,3.52,3.52,0,0,0,3.08-4.78c-.24-.55-.43-1.12-.66-1.68-.57-1.41-1-2.9-2.31-3.89a25,25,0,0,1-2-1.76A9.4,9.4,0,0,0,304,22.6c-2.16-1.31-4-3-6.37-4.16-2.09-1-4.25-1.78-6.39-2.62-1.89-.72-3.84-1.25-5.77-1.86a6.2,6.2,0,0,0-1-.16,26,26,0,0,1-3.57-.52,11.42,11.42,0,0,0-7.37.66,8.56,8.56,0,0,0-2.8,2,3.08,3.08,0,0,0-.84,2c0,1.92,2.32,4.36,4.27,4.53,1,.08,1.37.61,2,1.44h-1.82c-1.26,2.18-2.43,4.22-3.62,6.24a114.89,114.89,0,0,1-7.23,10.54C262.23,42.3,261.18,44.06,260,45.81Z" fill="#fbb03b"/><path d="M291.12,47.58l-1.19,1.29-1-.42,2.34-1.74c1.81.32,1.48,1.67,1.51,2.61a3.44,3.44,0,0,1-1.94,3.3,2.15,2.15,0,0,1-3.05-1.1c-.32-1-.07-1.22,1-1.12l.7,1.41C291.61,51,291.8,49.58,291.12,47.58Z" fill="#fbb03b"/><path d="M278.83,20.8c.23-.93.62-1.65,1.68-1.75s1.93-.24,2.89-.26a1.18,1.18,0,0,1,1.27,1.06c-.95,1.52-1.81,0-2.69,0l-1.63.43.55.69A1.68,1.68,0,0,1,278.83,20.8Z" fill="#fbb03b"/><path d="M276.9,33.83c.34-1.15,1.44-1.09,2.23-1.55C279.17,33.53,278.33,34.12,276.9,33.83Z" fill="#fbb03b"/><path d="M291.56,42.91c.71-.49,1.4-1.06,2.36-.66C293.77,43.35,292.9,43.6,291.56,42.91Z" fill="#fbb03b"/><path d="M296.69,162.17a12.9,12.9,0,0,0-4.23.87,6.81,6.81,0,0,1-2.57.19,10.62,10.62,0,0,0-4.1.64c-.47.19-1,.17-1.12-.45a.71.71,0,0,0-.86-.52c-1.72.15-3.17-.69-4.67-1.28-2.33-.9-4.57-2-6.81-3.13-2.4-1.19-3.95-3.14-5.77-4.87a18.5,18.5,0,0,1-1.83-1.82,18.19,18.19,0,0,1-1.4-2.23c-.28-.48-.49-1-.74-1.48a2.78,2.78,0,0,0-.56-1c-1.37-1.07-1.72-2.78-2.6-4.14-.51-.79-.9-1.65-1.33-2.48-.08-.16-.17-.41-.1-.53.74-1.33-.21-2.52-.34-3.76a20.15,20.15,0,0,1-.06-3.56c.13-1.82.88-3.57.53-5.46a3.64,3.64,0,0,1,.43-2,14.36,14.36,0,0,1,4-5.38c1.08-.83,2.21-1.58,3.28-2.41.45-.34.77-.84,1.2-1.2a15.11,15.11,0,0,1,1.47-1c.15-.09.45-.18.51-.12.54.6,1.2.14,1.68.06,1.18-.19,2.36.2,3.51-.19a.76.76,0,0,1,.55,0c1.89,1.24,4.25,1.2,6.19,2.29,1,.56,1.88,1.29,2.83,1.92a16.73,16.73,0,0,1,3,2.75,15.62,15.62,0,0,0,3.62,2.55,12.91,12.91,0,0,0,3.22,1.5,24,24,0,0,0,5.49.82,11.45,11.45,0,0,1,3.08.65,37.31,37.31,0,0,1,4.85,2c1.45.68,1.94,2.19,3.22,2.91a.47.47,0,0,1,.17.37,8.6,8.6,0,0,0,1.17,4c.07.16.14.43.06.53-.71.86-.32,1.89-.45,2.83a11,11,0,0,0-.12,2.58,9.15,9.15,0,0,1-.71,2.93c-.06.22-.23.42-.24.64a11.36,11.36,0,0,1-1.76,4.76c-.2.35-.16.86-.4,1.18a9.43,9.43,0,0,1-1.62,1.66c-.88.67-1.85,1.2-2.28,2.33a2.21,2.21,0,0,1-.74.82,47,47,0,0,0-3.8,2.85,6.26,6.26,0,0,1-2,.9C296.88,160.94,296.21,161.2,296.69,162.17Zm-20.39-3.38c.07-.11.13-.25.17-.24a7.93,7.93,0,0,1,3.66,1.65c.29.2.48.52.92.59a52.68,52.68,0,0,0,6,.92c1.3,0,2.56,0,3.86,0a10.63,10.63,0,0,0,3.71-1.13,36,36,0,0,0,9-6.15,5.72,5.72,0,0,0,1.62-2c.32-.73.64-1.65,1.5-1.8a7.27,7.27,0,0,1,.28-1.34c.85.05.64-.59.75-1a7.38,7.38,0,0,1,.61-2.08c.92-1.46.8-3,.67-4.59a20.83,20.83,0,0,1-.21-3.6,8.8,8.8,0,0,0-1.78-6c-1.22-1.79-2.66-3.33-5.16-3a11.62,11.62,0,0,1-1.67,0,4.32,4.32,0,0,1-2.88-.76c-.3-.24-.86-.13-1.29-.23a14.77,14.77,0,0,1-3.08-.58,37.48,37.48,0,0,1-5.76-3.5,14,14,0,0,1-2.91-2.56,10,10,0,0,0-5.6-3.81,17.21,17.21,0,0,0-4.2-.76,29.63,29.63,0,0,0-5.31,1,10.26,10.26,0,0,0-1.44.73c-1.54.61-2.35,2.24-3.94,2.77-.11,0-.16.21-.25.31-.49.58-1,1.15-1.49,1.73a11.65,11.65,0,0,1-1.34,3.76,9.49,9.49,0,0,1,.56,2.62,33.19,33.19,0,0,1-.79,4,9.86,9.86,0,0,0,.19,5.06,2.31,2.31,0,0,1,.09,1.87,2.4,2.4,0,0,0,.24,2.27c.61,1.18,1.4,2.27,2,3.47a27.33,27.33,0,0,0,7.23,9.52,8.38,8.38,0,0,0,2.85,1.64c.76.25,1.84-.08,2,1.3,0,.44,1.58.69,2.42.5Zm-16.83-25.37c.79-1.08,1.11-3.75.49-4.48A5.57,5.57,0,0,0,259.47,133.42Zm13.1-17-.06-.35-.69.16.1.36Z" fill="#c1272d"/><path d="M288.14,154.69a9,9,0,0,1-6.53-2.14,10.7,10.7,0,0,1-3.58-6.37,21.06,21.06,0,0,1-.59-3,18.93,18.93,0,0,1,1-6.28,7.68,7.68,0,0,1,2.39-3,15.13,15.13,0,0,1,3-2.22,6.15,6.15,0,0,1,2.29-.46,12.42,12.42,0,0,1,5.38.34,10.35,10.35,0,0,1,3.47,2.39c1,.85,1.81,1.86,2.73,2.79a6,6,0,0,1,1.16,2.48c.68,2,.17,4.13.19,6.19a5.3,5.3,0,0,1-1.2,3.18,18.76,18.76,0,0,1-4.81,4.76A8.62,8.62,0,0,1,288.14,154.69Zm-.23-21.22a7.6,7.6,0,0,0-5.71,2.65,2.71,2.71,0,0,0-.69,1,17.08,17.08,0,0,0-.69,9.43,7.61,7.61,0,0,0,4.16,5.53,4.9,4.9,0,0,1,.82.51,4.29,4.29,0,0,0,4.61.35,11,11,0,0,0,4.64-3.85,12.68,12.68,0,0,0,2.56-8.51,7.63,7.63,0,0,0-2.87-5.18C292.9,133.74,290.61,133.41,287.91,133.47Zm-5.16,18.34a1.73,1.73,0,0,0,2,1.37Zm2.79-19.12,0-.51-1.37.33.08.36Z" fill="#c1272d"/><path d="M280.9,158c-2.42.49-9.92-3-10.7-5.45.77-.44,1.16.29,1.64.58.75.46,1.38,1.12,2.15,1.52A53.11,53.11,0,0,0,280.9,158Z" fill="#c1272d"/><path d="M266.29,146.73c.46.7.95,1.41,1.4,2.15.32.52.05.85-.49,1.11a3.87,3.87,0,0,1-1.64-2.13C265.34,147.3,265.55,146.88,266.29,146.73Z" fill="#c1272d"/><path d="M262.4,138.21c.55.53,1.33.77,1.39,1.65,0,.66.62,1.37-.19,2.06-.19-.2-.45-.36-.54-.58-.37-.93-.68-1.88-1-2.82C262.05,138.48,262.19,138.4,262.4,138.21Z" fill="#c1272d"/><path d="M300.21,131A5.1,5.1,0,0,1,303.9,132c-1.13.53-2,.06-2.95,0-.31,0-.59-.47-.88-.73Z" fill="#c1272d"/><path d="M286.37,157.9c2-.27,2-.25,2.26.95C287.87,158.48,286.88,158.92,286.37,157.9Z" fill="#c1272d"/><path d="M287.8,151.4l4.41-2.24c.41.19.74.51.22,1a5.7,5.7,0,0,1-3.81,1.69C288.24,151.82,287.72,151.89,287.8,151.4Z" fill="#c1272d"/><path d="M284,147.61c-1.64-.31-2.2-1.41-1.61-3.16C283.64,145.17,283.75,146.4,284,147.61Z" fill="#c1272d"/><path d="M286.07,150.9c-1.05.08-1.44-.62-2-1.22C285.44,149.53,285.75,149.71,286.07,150.9Z" fill="#c1272d"/><path d="M54.22,116.5c.21-1,.49-1.22,1.32-.78a11.49,11.49,0,0,1,4.59,3.81c1.37,2.18,2.66,4.45,2.85,7.09a13.1,13.1,0,0,1-1,6,4.94,4.94,0,0,0-.19.78c1.18.11,1.79,1.15,2.83,1.5.34.11.57.71.75,1.13.45,1.05.74,2.19,1.27,3.2a12,12,0,0,1,.89,4.6c0,.22,0,.49.11.64a3.28,3.28,0,0,1,.39,2.77c-.24,1.79-.56,3.56-.84,5.34a6.43,6.43,0,0,1-.2,1.08c-.89,2.55-1.8,5.08-2.69,7.63-.19.56-.29,1.15-.45,1.72a5.18,5.18,0,0,1-.34.91c-.51,1-1,1.95-1.57,2.92s-1,1.77-1.45,2.68a20,20,0,0,1-.8,1.9c-.68,1-1.51,2-2.22,3-1.49,2.15-3.33,4-4.6,6.36a7.41,7.41,0,0,1-1.18,1.34c-.09.1-.31.14-.33.23-.31,1.5-1.89,1.51-2.71,2.38s-2.09.68-2.74,1.65a58.94,58.94,0,0,1-6.24,2,11,11,0,0,1-4.57.05,25.39,25.39,0,0,0-3-.32.92.92,0,0,0-.73.46c-.52,1.32-1.69,2.08-2.54,3.11a8.31,8.31,0,0,1-4.69,2.75,18.07,18.07,0,0,1-5.42.58,4.14,4.14,0,0,1-3.45-2.17,13.27,13.27,0,0,1-1.65-3.25c-.43-1.46-.87-2.89-.27-4.41.47-1.21.89-2.44,1.35-3.65a1.88,1.88,0,0,1,1.38-1.07c2.38-.74,4.45.07,6.42,1.31a2.52,2.52,0,0,0,2.19.53A1.54,1.54,0,0,0,26,180.59c0-.69,0-1.38-.06-2.07a6.58,6.58,0,0,1,1.1-4.2,2.71,2.71,0,0,0,.8-2.3.71.71,0,0,1,.29-.58c1.68-.93,3-2.42,4.73-3.28a24.14,24.14,0,0,0,3.93-2.81c.27-.2.35-.64.54-1,.55-.89.94-1.93,2.18-2.17.26-.05.44-.49.66-.74s.25-.4.4-.43c.73-.12,1-.78,1.2-1.26a33.6,33.6,0,0,0,1.51-3.74,24.23,24.23,0,0,0,.6-2.55,4.21,4.21,0,0,1,.17-.8,9,9,0,0,0,.5-5.28,11,11,0,0,1,.53-5.44,21.09,21.09,0,0,1,2.72-5.78,3,3,0,0,1,.32-.45c1.85-1.58,3.77-3,6.34-3.09a1.18,1.18,0,0,0,1.15-1.81c-1.13-2.7-1.65-2.85-4.21-2.37-2.78.52-4.49-.7-6-2.6a1.79,1.79,0,0,1-.2-2.1,12.31,12.31,0,0,1,1-1.64c1.14-1.35,1.73-3.22,3.44-4C51.08,117.45,52.5,116.52,54.22,116.5ZM28.87,178.36c.58-.52,0-1,.07-1.46l-.28,0c-.14.57-.29,1.15-.44,1.72l.21.12.46-.38c.47.67-.6,1.23-.17,1.87.59.88-.73,1-.64,1.76l.93,0a8.2,8.2,0,0,0,.72,3,2,2,0,0,0,1.62,1.63,23.38,23.38,0,0,0,4.09.45,22.06,22.06,0,0,0,4.05-.4c1.38-.26,2.82-.21,4.1-1a28.56,28.56,0,0,1,2.84-1.37c.2-.09.46-.15.57-.3a14.85,14.85,0,0,1,3.2-3.23,4.83,4.83,0,0,0,1.46-1.8,6.8,6.8,0,0,1,1.48-2,40.45,40.45,0,0,0,2.92-3.09c.89-1.12,1.53-2.42,2.39-3.55a11.18,11.18,0,0,0,2-3.66c.22-.74.2-1.57.46-2.28,1.05-2.8,2.24-5.53,3.22-8.35a7.74,7.74,0,0,0-.13-5.81c-.18-.41-.41-.84,0-1.35,1.12.83,1,2.23,1.57,3.29a3.5,3.5,0,0,0,.91-3.06,15.62,15.62,0,0,1-.24-1.65,14.18,14.18,0,0,0-1.33-6.18c-.27-.52-.33-1.15-.57-1.69-.81-1.87-1.52-3.83-3.76-4.52a3.27,3.27,0,0,1-.8-.53,3,3,0,0,0-3.81.37c-1.26-.41-2.26.3-3.12,1-1.24,1-2.71,1.78-3.08,3.55-.06.27-.41.47-.63.7L49,139.2l-.77,1,.87-.2a6.94,6.94,0,0,0-1.07,1.57c-.43,1.27-.71,2.59-1.07,4,.9.31.75,1,.45,1.77a12.81,12.81,0,0,0-.64,2,63.11,63.11,0,0,1-1.23,6.24c-.14.45-.25.89-.68.93-1,.09-1,.63-.93,1.44.06.48.08,1.18-.2,1.46a3.31,3.31,0,0,0-.89,2.51c-1.63.77-2.33,2.34-3.36,3.6s-1.9,2.74-3.87,2.68c-.32,0-.66.3-1,.49a7.72,7.72,0,0,0-1,.69c-.4.34-1,.49-1,1.22,0,.15-.36.31-.55.47-.24-.64-.6-.17-.82,0a7,7,0,0,0-1.41,1.12,4,4,0,0,0-.86,2.53l1.19-.93c.07.32.05.59-.1.71a1.93,1.93,0,0,0-.62,2.37c.07.18-.13.49-.23.72S29,178.1,28.87,178.36ZM26,183.87c-1.1-.09-2.09-.21-3.09-.23s-1.76-.88-2.62-1.39a3.08,3.08,0,0,0-3.66-.06A6.37,6.37,0,0,0,14.4,187a7.38,7.38,0,0,0,.24,2.48,4.3,4.3,0,0,0,1.14,2.11,7.3,7.3,0,0,0,4.86,2,9.44,9.44,0,0,0,2.73-.15,11.76,11.76,0,0,0,6.25-4.62c.3-.48.95-1,.49-1.81-1.89,1.71-3,4.34-6.19,4.86a9.72,9.72,0,0,1,.76-1.26c.86-1,1.76-1.9,2.64-2.85a2.07,2.07,0,0,0,.75-2.25,3.23,3.23,0,0,0-.66.37,18.65,18.65,0,0,1-6.56,3.81c-1.1.37-2,.42-2.79-.83a4.66,4.66,0,0,1,.94-1c1-.54,2-.91,3-1.47a17.37,17.37,0,0,1,2.86-1.23C25.57,184.82,25.88,184.54,26,183.87ZM59.56,123l.32,0a2.28,2.28,0,0,1,.34.68c.12,1,.12,1.93.3,2.87a5.07,5.07,0,0,1-.33,3.26,8.31,8.31,0,0,0-.57,3.09c.39-.42.64-.57.7-.77.46-1.51.9-3,1.29-4.55a3.44,3.44,0,0,0,0-1.24,12.93,12.93,0,0,0-3.07-7,2.36,2.36,0,0,0-2.33-.89,15.26,15.26,0,0,0-7,3,5.09,5.09,0,0,0-1.86,3,1.2,1.2,0,0,0,.51,1.49,7,7,0,0,1,6.07.78,7.06,7.06,0,0,1,3.26,5.4c1.1-.17,1.39-.52,1.1-1.46-.43-1.41-.93-2.79-1.49-4.15-.26-.65-.11-1.09.45-1.78.58,1.27,1.08,2.36,1.62,3.56C59.34,126.46,59,124.66,59.56,123ZM46.24,142.44c.86-.47.86-.47.84-1.25A1.11,1.11,0,0,0,46.24,142.44Zm2-3.55c.91.05.94,0,1.42-1.2C49.13,138.16,48.73,138.5,48.28,138.89ZM50,127l.07.27,1.76-.23-.06-.36Z" fill="#c1272d"/><path d="M42.38,135.61c1,.51.83,1.29.66,2.09-.28,1.38-.51,2.78-.79,4.17,0,.27-.26.52-.26.77s.23.41.44.77l-1.91,4.85c-1.06-.08-1.19-.21-1.22-1.13a10.52,10.52,0,0,1,.79-4.35,11.12,11.12,0,0,0,1.26-4.39c0-.49,0-1.14.8-1.29.14,0,.26-.43.3-.68A3.37,3.37,0,0,0,42.38,135.61Z" fill="#c1272d"/><path d="M65.89,131.37c.82.37,1.35.59,1.86.85a1.55,1.55,0,0,1,.57.54c1,1.68,2.06,3.38,3.09,5.07a2.18,2.18,0,0,1,.18,2.57C69.38,137.59,67.84,134.52,65.89,131.37Z" fill="#c1272d"/><path d="M35.13,192.46a1.62,1.62,0,0,1,1.73-1.13c1.19,0,2.39-.1,3.59-.16.61.64.08,1-.4,1.09-1.49.21-3,.29-4.5.41C35.44,192.68,35.31,192.56,35.13,192.46Z" fill="#c1272d"/><path d="M64.84,119.5c-.77-.64-.42-2.12-2-1.85l.7-.87C64.32,117.62,65.27,118.16,64.84,119.5Z" fill="#c1272d"/><path d="M66.64,127.38a1.61,1.61,0,0,1,.16,2.36c-.46.38-.63.28-1-.57l.89-.16C66.7,128.43,66.67,127.9,66.64,127.38Z" fill="#c1272d"/><path d="M37.65,184c.2-.2.35-.46.56-.54a7.52,7.52,0,0,1,1.71-.53,13.51,13.51,0,0,0,4.64-1.84,4.28,4.28,0,0,1,1.08-.25l.6-1.25a2,2,0,0,1-.91,2.51,13.5,13.5,0,0,1-5.76,2C39,184.19,38.4,184.93,37.65,184Z" fill="#c1272d"/><path d="M54.76,139.35l1.3,1.66a2.85,2.85,0,0,1-2-1.61c-.59-.94.72-1.52.44-2.33L56,136.2c.15.4.3.79.44,1.14C55,138.33,55,138.33,54.76,139.35Z" fill="#c1272d"/><path d="M35.33,180.69c-.37.94-.59,1.49-.82,2.09a.7.7,0,0,1-.33.05c-.51-.14-1.23-.1-1.26-.82s.59-.75,1.17-.8A4.78,4.78,0,0,0,35.33,180.69Z" fill="#c1272d"/><path d="M153.61,105.41c.76,1.15,1.56,2.37,2.35,3.6a3.92,3.92,0,0,1,.58,3.33c-.31,1.15-1.15,1.44-2.07,1.82a17.64,17.64,0,0,0-.4,2,2.88,2.88,0,0,0,.91,2.56c2.06,2,2.28,4.67,1.66,7.25-.55,2.27-2.56,3.42-4.64,4.08s-4.21.9-6.26,1.52a59.57,59.57,0,0,1-8.13,1.59c-1.37.22-2.71.66-4.09.87a15.2,15.2,0,0,1-3.23.18,37.55,37.55,0,0,0-8.13.56,11.76,11.76,0,0,1-4-.12,28.92,28.92,0,0,0-5.27-.19,21.85,21.85,0,0,1-8.71-2,1.05,1.05,0,0,1-.39-.31c-1-1.28-2-2.58-3-3.88a2.23,2.23,0,0,1,0-2.82c.32-.47.66-.92,1-1.36a.84.84,0,0,0,0-1.22,5.7,5.7,0,0,1-1.14-4.47,2.25,2.25,0,0,0-.19-1.46c-1.28-1.55-.69-3.07-.11-4.62.11-.31.27-.6.45-1a10.76,10.76,0,0,1-1.06-.88,5.39,5.39,0,0,1-.73-1c-.17-.29-.19-.67-.38-.93-1.21-1.59-.77-3.2-.37-5,.79-3.5,3.16-5.88,5.65-8.06a25.27,25.27,0,0,1,7-4.15c.78-.33,1.7-.28,2.47-.61A23.43,23.43,0,0,1,119,88.91c1.17-.17,2.33-.43,3.48-.7.81-.2,1.61-.47,2.41-.72.11,0,.22-.11.32-.1,1.91.17,3.63-.63,5.44-1a29.75,29.75,0,0,1,5.43-.09,17.53,17.53,0,0,1,2,0,13.47,13.47,0,0,1,2.08.43c1.53.4,3.05.83,4.57,1.27.87.26,1.74.52,2.57.86A13.3,13.3,0,0,1,154.05,95a22.37,22.37,0,0,1,1.44,3.2c.22.61,0,1.42.24,2,.74,1.43-.28,2.45-.69,3.58C154.85,104.32,154.26,104.71,153.61,105.41Zm-28.46,18.12c1.24-.11,2.47-.23,3.71-.33,2.58-.21,5.17-.46,7.76-.59A36.26,36.26,0,0,0,144,121.3l-1.19-1.19c-1.12-1.15-2.26-2.27-3.33-3.45a16.52,16.52,0,0,1-1.63-2.16,1.3,1.3,0,0,0-1.63-.55,3.66,3.66,0,0,0-2.17,1.5c-1,1.53-2,3-4,3.49a4.21,4.21,0,0,1-3.87-.44,30.74,30.74,0,0,0-2.68-1.67l-16.94,6.78a6.3,6.3,0,0,0,1.5.63,21.34,21.34,0,0,0,3.57.23,92.71,92.71,0,0,0,12.66-1.2c.18,0,.39.17.59.26h.27Zm23.93-20.41c.74-1.35,1.39-2.66,2.16-3.91a2.31,2.31,0,0,0,.49-2.33,1.48,1.48,0,0,1,0-1.17c.75-1.16-.14-1.7-.83-2.2a6.85,6.85,0,0,1-2.35-2.13c-.14-.25-.67-.34-1-.42-1.1-.23-2.24-.33-3.32-.64-1.4-.4-2.75-1-4.16-1.4a8.13,8.13,0,0,0-2.32-.13c-1.32,0-2.64.2-4,.19-1.75,0-3.55-.47-5.23-.17A117.75,117.75,0,0,0,116,91.62a29.64,29.64,0,0,0-9.67,4.69c-2.93,2.25-5.73,4.65-5.95,8.76,0,.17-.08.33-.1.5-.19,1.67.9,3.87,2.49,4.39a15.09,15.09,0,0,0,4.14.56c1.47,0,2.95-.2,4.42-.24,3.33-.08,6.67,0,10-.19,3.53-.25,7.05-.78,10.57-1.22a7.66,7.66,0,0,0,2.13-.47,13.92,13.92,0,0,1,4.55-.88,11.29,11.29,0,0,0,3-.34,16.43,16.43,0,0,0,4.73-2.15,2.41,2.41,0,0,1,1.07-.44c.63-.11,1.29-.06,1.92-.18.25,0,.44-.4.66-.62Zm-45.41,22.15c-1.53,1.92.52,5.42,2.6,6a24,24,0,0,0,7,1.35c1.59,0,3.18,0,4.77-.12,2.65-.14,5.3-.35,7.95-.49,4.23-.23,8.45-.59,12.66-1.18a83.77,83.77,0,0,0,12.07-2.65c1.94-.57,2.81-2.37,4.34-3.4a.4.4,0,0,0,.13-.3c-.07-1.61.25-3.36-1.72-4.41a7.55,7.55,0,0,1-4.35,2.29c-.77.18-1.55.31-2.32.47-2.26.48-4.5,1.11-6.78,1.42-4.18.57-8.38,1-12.58,1.41-2.35.24-4.72.34-7.08.55a32.86,32.86,0,0,1-3.52.44c-2.78-.07-5.55-.23-8.32-.5C106.9,126,105.33,125.59,103.67,125.27Zm48.48-19a17.45,17.45,0,0,1-5.93,2.34c-2.44.47-4.83,1.18-7.27,1.56-3.4.53-6.84.88-10.26,1.27-2.42.27-4.84.57-7.27.71-1.58.09-3.18-.15-4.77-.15-2,0-4,.19-6,.12-.87,0-1.5.07-1.76.73-1.76-.3-3.36-.61-5-.84a2.51,2.51,0,0,0-2.92,2.06,1.27,1.27,0,0,0,.33,1,1.55,1.55,0,0,0,1.08.2c.24,0,.43-.36.68-.49a7.09,7.09,0,0,1,5.39-.92,7.81,7.81,0,0,1,4,2.94,2,2,0,0,0,2.8.76,13.88,13.88,0,0,0,3.38-2.21,3.25,3.25,0,0,1,3.59-.78,42.51,42.51,0,0,1,4,1.78c1.39.67,2.78.92,4.08-.08a19.35,19.35,0,0,0,2.84-2.58c1.61-1.9,2.9-2.22,5-1a6.65,6.65,0,0,0,6.93.06c1.12-.64,2.14-1.46,3.25-2.23,1.23.58,2.43,1.2,3.68,1.73,1.61.68,2.33.44,3.48-1A12.05,12.05,0,0,0,152.15,106.27Zm-5.93,13.92c.24-2.49,1.29-4.5,1.35-6.71l-6,2.31A21.2,21.2,0,0,0,146.22,120.19Zm-38.79-4.09c-.45,1.79-.87,3.44-1.28,5.08a6.1,6.1,0,0,0,6.17-1.83Zm39.91,4.16a5.19,5.19,0,0,0,3.83-1.49,3,3,0,0,0,1.06-3.32,3.39,3.39,0,0,0-3-2.46A9.48,9.48,0,0,1,147.34,120.26ZM105.58,116a8.46,8.46,0,0,0-.9.16c-2.22.69-2.6,1.2-2.22,3.48a3.22,3.22,0,0,0,2.09,2.81C104.9,120.3,105.23,118.21,105.58,116Zm46.19-16.86c-.36,1-1.23,1.44-1,2.58l1.85-1.2Zm.55,3.06c-1.06-.39-1.37.22-1.74.94C151.38,103.16,151.38,103.16,152.32,102.21Z" fill="#f15a24"/><path d="M95.1,101.45a2.27,2.27,0,0,1,.26,2.48,4,4,0,0,0,.36,3.11,7.33,7.33,0,0,1,.62,3.35,7.8,7.8,0,0,0,.72,2.54,3.43,3.43,0,0,1-3.62-3.8,2.68,2.68,0,0,0,.06-1.34c-.63-1.58-.14-3.12,0-4.67A1.71,1.71,0,0,1,95.1,101.45Z" fill="#f15a24"/><path d="M106.12,139.39l-2,1.69a21.36,21.36,0,0,1-5.28-2.74c-.91-.67-2-1.1-2.89-1.78a28.31,28.31,0,0,1-2.75-2.5c-.15-.15-.08-.51-.13-.88a2.46,2.46,0,0,1,2.26.83,16.55,16.55,0,0,0,6.47,4.18C103.09,138.66,104.42,138.92,106.12,139.39Z" fill="#f15a24"/><path d="M159.1,103.27c-.38-.34-.8-.54-.8-.76-.05-2-.43-4.09.16-6.21.21.37.58.73.6,1.11a3.22,3.22,0,0,0,.71,2.16,1.46,1.46,0,0,1,.1,1.12c-.11.38-.5.67-.62,1A6.91,6.91,0,0,0,159.1,103.27Z" fill="#f15a24"/><path d="M160.41,120.84c.53.07.91,0,.93.13a8.15,8.15,0,0,1,.57,2.56c-.13,2.14-1.28,3.6-2.9,3.65C160.78,125.35,160.86,123.24,160.41,120.84Z" fill="#f15a24"/><path d="M99.7,93.47l3.37-1.21c.38,1.62.18,1.93-1.81,2.63a5.12,5.12,0,0,0-.54-.71A9.5,9.5,0,0,0,99.7,93.47Z" fill="#f15a24"/><path d="M161.18,113.78a2,2,0,0,1-.09-.44c0-.21.12-.42.23-.8.87.78,1.58,0,2.41-.3C163.48,113.28,163.12,113.48,161.18,113.78Z" fill="#f15a24"/><path d="M124.88,123.53l-1.21-1.3h1.57c0,.47-.06.89-.09,1.3h-.27Z" fill="#f15a24"/><path d="M134.25,93.68c-3.21.36-3.44.25-4.42-2.14.37,0,.83-.05,1,.12C131.64,92.74,133.44,92.17,134.25,93.68Z" fill="#f15a24"/><path d="M129.55,98.85l4.71.66c-.54,1-1.36.75-2.07.85A2.18,2.18,0,0,1,129.55,98.85Z" fill="#f15a24"/><path d="M141.51,94.57c-.73-.79-1.95.25-2.63-.91-.42-.7-.49-.66-.39-1.84.89,0,1.09.84,1.6,1.3a10.28,10.28,0,0,0,1.64,1.07Z" fill="#f15a24"/><path d="M148,99.25a2.52,2.52,0,0,1-.67,2.7.78.78,0,0,1-.74.14.82.82,0,0,1-.34-.67C146.26,100.31,147.13,99.88,148,99.25Z" fill="#f15a24"/><path d="M121.68,96.77a14.69,14.69,0,0,1-1.2-1.72c-.16-.28-.06-.7-.08-1.06.31.12.72.16.92.39C122.4,95.65,122.39,95.66,121.68,96.77Z" fill="#f15a24"/><path d="M112.6,98.14,110.71,100a2.21,2.21,0,0,1,.65-2.11C111.71,97.63,112.08,97.26,112.6,98.14Z" fill="#f15a24"/><path d="M147.44,95c-1.52,0-1-1.29-1.58-1.9C146.88,93,147.31,93.5,147.44,95Z" fill="#f15a24"/><path d="M125.87,98.51c-1-1.3-.11-1.26.89-1.55C126.35,97.66,126.11,98.09,125.87,98.51Z" fill="#f15a24"/><path d="M139.33,101.48c-.37.1-.73.22-1.11.29,0,0-.24-.29-.2-.38.27-.6.73-.56,1.22-.33Z" fill="#f15a24"/><path d="M132.59,96.26a1.46,1.46,0,0,1,.57.17c.15.12.2.36.12.77l-.88-.55Z" fill="#f15a24"/><path d="M148.61,125.71c-.56,1.54-1.89,1.69-3,2.22C145.69,126.28,146.73,125.48,148.61,125.71Z" fill="#f15a24"/><path d="M151.69,125l.75-2.72c.95.45.95.45.7,2.57Z" fill="#f15a24"/><path d="M134.91,117.62c1.37-.77,1.83-.72,2.82.28A2,2,0,0,1,134.91,117.62Z" fill="#f15a24"/><path d="M120.13,121.23c1.62-.59,1.69-.58,2.11.48C121.47,122,120.77,122.17,120.13,121.23Z" fill="#f15a24"/><path d="M139.24,120.36c.3-.11.52-.27.7-.23a3,3,0,0,1,1,.42.86.86,0,0,1-.12.56,3.44,3.44,0,0,1-1.24,0C139.42,121.06,139.36,120.66,139.24,120.36Z" fill="#f15a24"/><path d="M130.09,120.4c.46-.73.95-.84,1.47-.35.14.14.18.63.08.7C131.09,121.15,130.61,120.91,130.09,120.4Z" fill="#f15a24"/><path d="M9.16,61.21,9,60.77c-1.22,1-1.1,2.71-2.36,3.84l1.32.5A15.31,15.31,0,0,0,6.16,72.4a4.45,4.45,0,0,0,.75,3.12c.08.1.2.26.17.35C6.7,77,7.46,77.94,7.57,79a4.09,4.09,0,0,0,1,2.19,19.34,19.34,0,0,1,1.83,3.5,11.08,11.08,0,0,0,1.12,2,22.38,22.38,0,0,0,5.59,4.75,20.72,20.72,0,0,1,3,2.36,4.77,4.77,0,0,0,3.11,1.47c2.24,0,4.6.26,6.71-.66,1.2-.52,2.47-.73,3.64-1.27a19.68,19.68,0,0,0,2.45-1.54c1-.65,1.72-1.62,2.87-2,.17-.06.27-.34.38-.52a21,21,0,0,1,2-3.1,11.39,11.39,0,0,0,1.29-2.59c.28-.59.59-1.16.83-1.77s.43-1.28.66-1.92q.21-.59.45-1.17c.09-.21.33-.43.3-.61-.14-.93.51-1.7.44-2.61a12.72,12.72,0,0,1-.17-2.87c.29-1.67-.57-3.15-.6-4.77a12.83,12.83,0,0,0-.8-2.85c-.12-.48-.11-1-.2-1.47,0-.18-.21-.33-.28-.51-.3-.78-.61-1.55-.86-2.34,0-.13.19-.34.29-.52-1-.52-1.36-1.25-1.18-2.68l-.81.09a10.88,10.88,0,0,0-3.41-5.34,24.74,24.74,0,0,0-5.44-4,36.67,36.67,0,0,0-3.67-1.65,3.11,3.11,0,0,0-.92,0c-.36,0-.71-.06-1-.09-.28-.85.41-1.16.73-1.62a10,10,0,0,0,1.66-2.39,10.12,10.12,0,0,0,.85-3.54,5.63,5.63,0,0,0-1.57.72c-1.23,1.24-2.77,2.24-3.27,4.08-.12.44-.18.42-1.08.41-.21-1.25-.49-2.52-.61-3.8a2.17,2.17,0,0,0-1-1.7c-.61-.4-1.26,0-1.78.41-.92.71-1.66,1.48-1.29,2.82A13.1,13.1,0,0,1,19,44l-1.31-1.1-1.17,1.26A5.55,5.55,0,0,0,11.27,43a1.32,1.32,0,0,0-.9,1.76,5.92,5.92,0,0,0,2.54,3.88,8.58,8.58,0,0,1,1.58,1.8c.08.1-.09.39-.16.66L13,50.53a7.75,7.75,0,0,1-4-4.26c-1-2.3,1.17-5.05,3.67-4.91l1,.06A8.48,8.48,0,0,1,12.12,37a11.29,11.29,0,0,0-.55-1.64,7,7,0,0,0-1.09-.17,6,6,0,0,1-3.25-1,5.52,5.52,0,0,1-2.49-6.87,9.36,9.36,0,0,1,2.83-4.06,5.12,5.12,0,0,1,4.14-1,9.19,9.19,0,0,1,4.48,2.18,6.57,6.57,0,0,0,1.86-2.17,4.83,4.83,0,0,1,3.33-2.32,4.64,4.64,0,0,1,4.53,1.42c1,1.14,1.95,2.32,2.88,3.52a2.1,2.1,0,0,1,.49,1.27,12.31,12.31,0,0,1-.69,4c-.18.43-.37.69-.89.71a1.2,1.2,0,0,0-.82.42,4.71,4.71,0,0,1-3.11,1.53c0,.56-.4,1.13.17,1.65-.54,1.21.85,2.27.29,3.51-.09.22.14.58.25,1,.79-.43,1.57-.82,2.31-1.26a2.86,2.86,0,0,1,3.09,0c3.23,1.76,2.23,6.29-.08,7.69a2.1,2.1,0,0,0-.32.36c.17.12.31.31.44.31a6.27,6.27,0,0,1,3.69,1.47c1.33.85,2.63,1.73,3.94,2.6a.88.88,0,0,1,.37.4,4.28,4.28,0,0,0,1.76,2.26,7,7,0,0,1,1,1.34,25.69,25.69,0,0,1,2.06,2.76c.75,1.35,1.74,2.62,1.75,4.3a1.71,1.71,0,0,0,.59,1,1,1,0,0,1,.24,1.16,1.33,1.33,0,0,0,.39,1.66c-.15.72-.29,1.37-.44,2,.66.12,1.08.38.87,1.09a4.48,4.48,0,0,0,.57,3.25,5.25,5.25,0,0,1,.1,3c0,.31-.48.57-.19,1l-.73.42c.26.62,1.3,1.48,0,1.94-.08.59-.15,1.05-.23,1.51,0,.14-.11.27-.12.4a10.73,10.73,0,0,1-2.4,5.36,18.71,18.71,0,0,0-1.43,3,14.12,14.12,0,0,1-.85,1.75c-.27.43-.41,1.08-1.18,1-.14,0-.33.28-.49.44a41.12,41.12,0,0,1-2.91,3,29.36,29.36,0,0,1-3.65,2.49,2.72,2.72,0,0,1-1.48.29,6.36,6.36,0,0,0-4.12.7c-.21.14-.63,0-.95,0-.91-.14-1.82-.27-2.72-.47-1.42-.32-2.87-.45-4.06-1.56a39.09,39.09,0,0,0-3.51-2.52,22.63,22.63,0,0,1-4.19-4.22c-.22-.29-.56-.49-.77-.79a2,2,0,0,1-.5-1.08c.06-.77-.36-1.15-.81-1.66-1.35-1.49-2.66-3-2.83-5.21,0-.42-.43-.82-.51-1.25-.25-1.45-.43-2.92-.66-4.37-.06-.4-.07-.92-.32-1.14a1.85,1.85,0,0,1-.52-1.65,12.45,12.45,0,0,0-.06-1.37,8.14,8.14,0,0,1,.51-3.39c.09-.31.33-.71.22-.93-.59-1.21.15-2.11.62-3.09.85-1.79,1.63-3.63,2.56-5.38s2-3.59,3.16-5.3c.33-.51,1.07-.75,1.85-1.26.14.71.39,1.18.28,1.54A10.42,10.42,0,0,1,12,56.08a11.57,11.57,0,0,0-2,3.63,3.42,3.42,0,0,1-.88,1.51ZM22.58,21.6l-.28-.32-1.37.84c.51.73-.37.79-.56.84-.86.22-1.12.91-1.46,1.56a10.21,10.21,0,0,0-.65,1.38,1.78,1.78,0,0,1-1.71,1.22c-.65.05-1.24.11-1.52,1.13a9.9,9.9,0,0,1-.47-1.16,9.52,9.52,0,0,0-.33-1.72,3.06,3.06,0,0,0-5-.86,11.56,11.56,0,0,0-2.57,4.94c-.44,1.64-.17,2.18,1.22,3.17a6.37,6.37,0,0,0,4.1.91,6,6,0,0,1,.73,1,22.7,22.7,0,0,1,1.36,3.32,33.42,33.42,0,0,1,.6,3.72c.35.19.59.33.83.45s.48.17.85.3c0-3.31,2-4.89,4.68-5.73l1.47.82c-.23-1.48-.41-2.74-.64-4s0-1.62,1.13-2.31a12.7,12.7,0,0,0,2.11-1.77,5.37,5.37,0,0,0,1.07-2.65A3.93,3.93,0,0,0,26,24a2.27,2.27,0,0,0-2.14-1.52l-2,0Zm7.83,18.13c-.65,1.53-1.19,2.82-1.75,4.15A3,3,0,0,0,30.41,39.73ZM6,28.85l-.27-.06-.14.88.22,0C5.91,29.42,6,29.14,6,28.85ZM23.22,37c0,.11.05.22.07.33l.66-.16,0-.21Z" fill="#f7931e"/><path d="M50.2,81a22.63,22.63,0,0,0,.69-2.44A23.75,23.75,0,0,0,51.15,76c.12-1.55.24-3.11.35-4.66a3.82,3.82,0,0,0-.12-2.43c-.11-.17,0-.46,0-.69.12-.7.26-1.41.38-2.06A4,4,0,0,1,53,68.77c0,2,0,3.94-.17,5.91s-.36,3.71-.57,5.56C52.12,81.22,51.61,81.42,50.2,81Z" fill="#f7931e"/><path d="M19.38,91.23a17.71,17.71,0,0,1-2.65-1.72,9.07,9.07,0,0,1-1.51-2.3.9.9,0,0,1,.28-.82.9.9,0,0,1,.84,0c1.55,1.44,3.07,2.93,4.59,4.4.17.16.42.31.46.5a.92.92,0,0,1-.12.75.75.75,0,0,1-.71.1,9.42,9.42,0,0,1-1.22-.88Z" fill="#f7931e"/><path d="M2.69,83.11c-.81-.41-1.34-.6-1.52-1.38C.89,80.5.3,79.32.11,78.07a3.46,3.46,0,0,1,.4-2.78c.46-.63.37-1.67.54-2.61a1.83,1.83,0,0,1,.25.61,12.45,12.45,0,0,1-.28,4A3.06,3.06,0,0,0,1.23,79C1.63,80.3,2.13,81.55,2.69,83.11Z" fill="#f7931e"/><path d="M10.8,78.33a8.17,8.17,0,0,1,1.89,3.39,1,1,0,0,1-.4.89,1,1,0,0,1-.94-.22c-.45-.53-1-1-.81-1.91a1.25,1.25,0,0,0-.24-.74C10,79.19,10.14,78.77,10.8,78.33Z" fill="#f7931e"/><path d="M37.16,38.77a14.46,14.46,0,0,1,1.34.6.73.73,0,0,1,.21.57c0,.08-.34.28-.41.23-1-.65-2.42-.48-3.31-1.48-.35-.39-.82-.73-.31-1.27s1-.22,1.35.1A10.69,10.69,0,0,1,37.16,38.77Z" fill="#f7931e"/><path d="M35.45,60.13l-1.19.14A4.87,4.87,0,0,0,33.07,56l.77-1A7.21,7.21,0,0,1,35.45,60.13Z" fill="#f7931e"/><path d="M4.12,57.84A2.9,2.9,0,0,1,3.88,57c0-1.5.11-3,.2-4.5,0-.71.42-.84,1-.51-.2,1.89-.39,3.78-.6,5.66C4.47,57.7,4.33,57.73,4.12,57.84Z" fill="#f7931e"/><path d="M12.55,73.82l1,1.83-1.24,1.41a6.44,6.44,0,0,0-.39-1.74C11.47,74.54,11.86,74.24,12.55,73.82Z" fill="#f7931e"/><path d="M38.76,65.14c.77-.87,1.24-.72,2.14.74l-.94.63Z" fill="#f7931e"/><path d="M9.1,61.22c.13.14.38.32.36.43a5.42,5.42,0,0,1-.41,1c-.81-.57,0-1,.11-1.44Z" fill="#f7931e"/><path d="M1.59,63.51c.2-.28.41-.55.61-.82l.22.17-.58.86Z" fill="#f7931e"/><path d="M16.44,34.56c-.89-.23-1.68-.39-2.45-.63a2,2,0,0,1-.77-.54.51.51,0,0,1,0-.48c.07-.12.29-.18.45-.22s.17,0,.26.09c.81.42,1.62.84,2.42,1.28C16.37,34.09,16.36,34.22,16.44,34.56Z" fill="#f7931e"/><path d="M9.77,27.82c.12.36.32.65.25.8A2.29,2.29,0,0,1,8.41,29.9C8.36,28.85,9.09,28.45,9.77,27.82Z" fill="#f7931e"/></g></g></svg>