<svg xmlns="http://www.w3.org/2000/svg" viewBox="0 0 62.28 92.45"><g id="Layer_2" data-name="Layer 2"><g id="OBJECTS"><path d="M51.21,91.76c-1.27-.39-1.61-1.17-4.51-2.21s-4.18-1.64-4.18-1.64l-7.8-2.8a34.65,34.65,0,0,1-6-2.58c-.63-.47-.3-.64.29-2.1a1.78,1.78,0,0,0-.78-2.51c-.63-.35-1.85.08-2.56.39s-.86,1.6-.86,1.6-11.93-5.06-15.33-6S6.73,72.63,4.9,71.61s-3.36-1.46-3.93-2S.47,69,.52,68.15s.31-6,.33-6.77a8.6,8.6,0,0,0,0-2.69,6,6,0,0,1-.32-1.95c-.05-1.1,0-4.09,0-4.58s.4-.09,1,.41,1.4.53,2.83.85,1.92-.71,2.11-2.21S5,48.48,4.21,48,1.15,47.26.57,46.78s-.21-5.72.08-7.63C.92,37.51,1,37,1,36.87H1v0c.06-.42.44-.11,1.23-.48s12.34-3,16.11-4.42,15-4.9,16.24-5.32.86-.25,2.05.38.37.46,1,1.77,1.1,3,2.55,5.72,2.4,3.34,3.25,5.07.79,1.92.71,3a6.65,6.65,0,0,1-1.27,2.6c-.47.85-1.28,1.27-1,1.85a35.3,35.3,0,0,0,3.94,4.33,3.39,3.39,0,0,0,3,.84c.77-.32,1.09.16,1.6.92a13.36,13.36,0,0,1,1.46,3.71c.21,1.06-.52.76-1,1.3s-.52.43.47,1.61,1.53.25,2.34.86S56,66.3,56.34,68.26s.25,1,.17,2.27c0,0,0,0,0,0-.08,1.33-1.29,6.21-1.34,6.56s-.07.9-.53.88-1.42-.59-2-.39-.73,1-.93,1.67-.69.71.57,1.78.91.23,1.27,1.25.17.56-.46,3.13a64,64,0,0,0-.81,6.45C52.17,92.36,52.48,92.15,51.21,91.76Z" transform="translate(-0.14)" fill="#efc336"/><path d="M51.21,91.76c-1.27-.39-1.61-1.17-4.51-2.21s-4.18-1.64-4.18-1.64l-7.8-2.8a34.65,34.65,0,0,1-6-2.58c-.63-.47-.3-.64.29-2.1a1.78,1.78,0,0,0-.78-2.51c-.63-.35-1.85.08-2.56.39s-.86,1.6-.86,1.6-11.93-5.06-15.33-6S6.73,72.63,4.9,71.61s-3.36-1.46-3.93-2S.47,69,.52,68.15s.31-6,.33-6.77a8.6,8.6,0,0,0,0-2.69,6,6,0,0,1-.32-1.95c-.05-1.1,0-4.09,0-4.58s.4-.09,1,.41,1.4.53,2.83.85,1.92-.71,2.11-2.21S5,48.48,4.21,48,1.15,47.26.57,46.78s-.21-5.72.08-7.63C.92,37.51,1,37,1,36.87c1.56,1.09,4.22,2.84,8.58,5.5,8.72,5.3,12,7.43,12,7.43s-.3,4.83,3.05,7,4.79,1.17,5.12.77,1.6-2.87,1.6-2.87a58.64,58.64,0,0,0,6.91,5.12c2.5,1.36,3.4,1.49,4.21,1.46s.74-.12,1.46.83a10.22,10.22,0,0,0,2.87,2.49c1.36.89,6.06,3.85,7.59,4.7,1.22.69,1.42.94,2.07,1.22,0,0,0,0,0,0-.08,1.33-1.29,6.21-1.34,6.56s-.07.9-.53.88-1.42-.59-2-.39-.73,1-.93,1.67-.69.71.57,1.78.91.23,1.27,1.25.17.56-.46,3.13a64,64,0,0,0-.81,6.45C52.17,92.36,52.48,92.15,51.21,91.76Z" transform="translate(-0.14)" fill="#e8a131"/><path d="M34.81,26.41c-8.69,2.91-17.42,5.72-26.27,8.15q-3.79,1-7.62,2a.3.3,0,0,0-.07.54c3.24,2.24,6.62,4.3,9.93,6.43l10,6.41c.37.23.7-.35.34-.58l-10-6.4c-3.31-2.13-6.58-4.36-10-6.37l-.07.54q13.34-3.44,26.38-7.82c2.49-.84,5-1.73,7.42-2.66.16-.06.1-.31-.07-.25Z" transform="translate(-0.14)" fill="#7d502a"/><path d="M21.11,49.43c.2-.22.46-.31.67-.54s.4-.43.61-.62a5.7,5.7,0,0,1,1.71-1.06,4.9,4.9,0,0,1,3.83.11,4.3,4.3,0,0,1,2.42,3,5.62,5.62,0,0,1,0,2.2c-.1.65-.36,1.28,0,1.9a.26.26,0,0,0,.47-.13,24.51,24.51,0,0,1,.27-2.55,5.85,5.85,0,0,0-.36-2.27,4.94,4.94,0,0,0-2.84-2.84,5.44,5.44,0,0,0-4.12,0,6.4,6.4,0,0,0-1.72,1.08,5.68,5.68,0,0,0-.76.79c-.22.28-.18.51-.31.83a.06.06,0,0,0,.1.06Z" transform="translate(-0.14)" fill="#7d502a"/><path d="M30.46,54.59c2.57,1.94,5.21,3.78,7.83,5.65A10,10,0,0,0,40,61.37a2.56,2.56,0,0,0,1.64,0,1.49,1.49,0,0,1,1,0,1.6,1.6,0,0,1,.58.83,3.3,3.3,0,0,0,1,1.25c1.22.93,2.61,1.69,3.91,2.51s2.75,1.71,4.11,2.58l1.9,1.2A9.17,9.17,0,0,0,56,70.85a.81.81,0,0,0,.95-.19c.3-.39,0-1-.06-1.44a38.88,38.88,0,0,0-3.48-9.1.32.32,0,0,0-.27-.16,2.18,2.18,0,0,1-1.88-1.05.75.75,0,0,1-.13-.63c.08-.32.07-.27.36-.4a2,2,0,0,0,.65-.38,1.28,1.28,0,0,0,.1-1.44c-.34-.82-.75-1.61-1.13-2.41-.23-.5-.49-1.49-1.09-1.68a1.22,1.22,0,0,0-.68.08,2.44,2.44,0,0,1-1.39,0,9.18,9.18,0,0,1-3.88-2.85,9.28,9.28,0,0,1-2.58-4.12,2.84,2.84,0,0,1,.28-2,10.29,10.29,0,0,1,1.48-1.47c1-1.1.4-2.15-.27-3.26-.8-1.33-1.66-2.62-2.46-3.95a22.81,22.81,0,0,1-2.27-4.82c-.39-1.25-.8-2.67-2.08-3.28-.39-.18-.73.39-.34.58,1.32.67,1.52,2.4,2,3.66a23.61,23.61,0,0,0,2,4.13c.84,1.43,1.77,2.81,2.62,4.24.43.73.95,1.43.27,2.18-.41.46-.94.78-1.33,1.25-2,2.41.48,5.63,2.15,7.42a11.61,11.61,0,0,0,3.62,2.84,3.44,3.44,0,0,0,1.92.29c.15,0,.3-.08.44-.1s.22-.09.41.13a6.88,6.88,0,0,1,.64,1.34l.69,1.45c.25.5.73,1.1.09,1.5-.45.28-1,.4-1,1-.06,1.38,1.56,2.36,2.77,2.36l-.27-.16A37.31,37.31,0,0,1,56,68a10.17,10.17,0,0,1,.48,1.86c0,.19.24.49-.23.55-.09,0-.26-.11-.36-.16-.36-.19-.71-.43-1.06-.65-1.22-.78-2.46-1.55-3.67-2.34s-2.44-1.58-3.67-2.36l-1.89-1.2a4.82,4.82,0,0,1-1.63-1.3c-.48-.74-.67-1.68-1.75-1.65-.52,0-1,.28-1.55.26s-1.33-.69-1.85-1.06c-2.68-1.91-5.35-3.85-8.08-5.7-.25-.17-.46.22-.23.39Z" transform="translate(-0.14)" fill="#7d502a"/><path d="M20.94,50.43a7.88,7.88,0,0,0,4.12,7.21,4.68,4.68,0,0,0,3.79.4,3.37,3.37,0,0,0,1.79-3.24.33.33,0,0,0-.64-.09c-.19.53-.19,1.11-.43,1.64a2,2,0,0,1-1.25,1.12,4.39,4.39,0,0,1-3.42-.67c-2.3-1.4-3.18-3.9-3.7-6.41,0-.15-.26-.11-.26,0Z" transform="translate(-0.14)" fill="#7d502a"/><path d="M21.25,50.25a17.11,17.11,0,0,1,4.86,1.69,16.68,16.68,0,0,1,2.11,1.34,25.3,25.3,0,0,1,2,1.76.24.24,0,0,0,.34-.35,13.83,13.83,0,0,0-4.26-3.21,15.36,15.36,0,0,0-5-1.53c-.17,0-.21.27,0,.3Z" transform="translate(-0.14)" fill="#7d502a"/><path d="M21.78,48.8h0l.06,0v.1l0,0h-.15s0,0,0,0,0,0,0,0a.61.61,0,0,0,.05.12c0,.07.07.13.1.19a3.3,3.3,0,0,0,.23.41l.23.39.12.2a.32.32,0,0,0,.08.12.73.73,0,0,0,.09.08.18.18,0,0,0,.3-.18.74.74,0,0,0-.1-.26l-.14-.22c-.09-.14-.17-.29-.27-.44L22.07,49c-.09-.13-.24-.36-.42-.21a.12.12,0,0,0,0,.13s0,0,0,0a.12.12,0,0,0,.05.07.11.11,0,0,0,.13,0,.1.1,0,0,0,0-.18Z" transform="translate(-0.14)" fill="#7d502a"/><path d="M22.34,48.21c.22.45.43.91.62,1.37.1.23.19.47.29.7s.15.49.36.58a.12.12,0,0,0,.14-.06c.1-.21-.06-.48-.14-.67l-.33-.71c-.22-.46-.45-.91-.69-1.36-.09-.16-.33,0-.25.15Z" transform="translate(-0.14)" fill="#7d502a"/><path d="M23.32,47.55a18.28,18.28,0,0,1,.84,1.92l.36,1a1.7,1.7,0,0,0,.42.86c.07.06.19,0,.21-.09a1.63,1.63,0,0,0-.2-1c-.12-.33-.25-.67-.39-1-.28-.65-.6-1.27-.92-1.9-.1-.21-.42,0-.32.19Z" transform="translate(-0.14)" fill="#7d502a"/><path d="M24.21,46.82c.26.87.57,1.74.88,2.6.15.43.3.86.46,1.29.08.22.17.43.26.64a1.28,1.28,0,0,0,.31.48.1.1,0,0,0,.17-.07,1.64,1.64,0,0,0-.09-.62c-.07-.22-.14-.43-.22-.65-.16-.43-.33-.86-.49-1.28-.32-.84-.64-1.69-1-2.51-.07-.17-.34-.05-.28.12Z" transform="translate(-0.14)" fill="#7d502a"/><path d="M25.27,46.88l.36.95c.06.16.12.31.19.47a1.3,1.3,0,0,0,.1.25c0,.07.11.13.16.2s.21.06.2-.06a2,2,0,0,1,0-.23.92.92,0,0,0-.09-.25l-.21-.5c-.14-.32-.28-.63-.41-1-.07-.16-.35,0-.28.12Z" transform="translate(-0.14)" fill="#7d502a"/><path d="M26.27,49.83c.07.38.16.76.26,1.13.06.19.11.37.18.56a3.66,3.66,0,0,0,.21.55.21.21,0,0,0,.19.11.19.19,0,0,0,.15-.07.21.21,0,0,0,0-.2,5,5,0,0,0-.21-.54c-.07-.18-.13-.36-.19-.53-.11-.37-.22-.73-.3-1.11-.05-.22-.39-.13-.34.1Z" transform="translate(-0.14)" fill="#7d502a"/><path d="M26.23,46.7a19.12,19.12,0,0,1,1.06,3.15c.12.52.23,1,.32,1.57,0,.28.08.55.11.83a2,2,0,0,0,.16.73.2.2,0,0,0,.37,0,3.64,3.64,0,0,0-.11-1.6,16.16,16.16,0,0,0-.39-1.67,16.53,16.53,0,0,0-1.25-3.12c-.1-.19-.35,0-.27.16Z" transform="translate(-0.14)" fill="#7d502a"/><path d="M27.93,47.7a15.65,15.65,0,0,1,.82,2.92c.08.51.14,1,.18,1.54A6.11,6.11,0,0,0,29,53.64a.28.28,0,0,0,.53,0,4.05,4.05,0,0,0,0-1.59,15.23,15.23,0,0,0-.22-1.53,15,15,0,0,0-.94-3c-.11-.26-.56-.07-.46.19Z" transform="translate(-0.14)" fill="#7d502a"/><path d="M29.48,49c.05.25.1.5.14.75l.06.36a.6.6,0,0,0,.06.22.7.7,0,0,0,.1.16.14.14,0,0,0,.22,0,.61.61,0,0,0,.05-.18.69.69,0,0,0,0-.25L30,49.66c0-.25-.09-.51-.15-.76a.21.21,0,0,0-.26-.15.22.22,0,0,0-.15.26Z" transform="translate(-0.14)" fill="#7d502a"/><path d="M29.61,51.4a7.06,7.06,0,0,1,0,1.38c0,.22,0,.44-.07.66a2.76,2.76,0,0,0-.06.7.16.16,0,0,0,.3.08,1.67,1.67,0,0,0,.23-.68,4.78,4.78,0,0,0,.08-.76A6,6,0,0,0,30,51.31c-.06-.23-.37-.13-.34.09Z" transform="translate(-0.14)" fill="#7d502a"/><path d="M21.56,50.29c.21.72.42,1.46.62,2.19.09.36.18.72.28,1.08a3.86,3.86,0,0,0,.37,1,.15.15,0,0,0,.27-.07A3.77,3.77,0,0,0,23,53.43c-.09-.37-.2-.72-.3-1.08-.22-.73-.46-1.45-.73-2.16-.08-.22-.43-.14-.36.1Z" transform="translate(-0.14)" fill="#7d502a"/><path d="M22.93,50.61a18.38,18.38,0,0,1,.47,2.75c0,.44.06.89.06,1.33a4.26,4.26,0,0,0,.06,1.38.2.2,0,0,0,.35,0,2.79,2.79,0,0,0,.18-1.32,12.23,12.23,0,0,0-.77-4.27.18.18,0,0,0-.35.09Z" transform="translate(-0.14)" fill="#7d502a"/><path d="M24.3,52a20.33,20.33,0,0,1,.22,2.81c0,.43,0,.87,0,1.3a1.68,1.68,0,0,0,.31,1.14c.09.09.29.06.31-.08a6.43,6.43,0,0,0,0-1.24c0-.45,0-.89,0-1.33a21.16,21.16,0,0,0-.27-2.75c-.05-.34-.57-.19-.52.15Z" transform="translate(-0.14)" fill="#7d502a"/><path d="M25.28,52.33l.24.87a1.69,1.69,0,0,0,.14.45l.05.08.06.11a.67.67,0,0,0,.12.2.16.16,0,0,0,.16,0,.17.17,0,0,0,.09-.14.83.83,0,0,0,0-.22c0-.08,0-.17,0-.25s-.08-.28-.12-.41l-.26-.84a.23.23,0,0,0-.29-.17.24.24,0,0,0-.17.29Z" transform="translate(-0.14)" fill="#7d502a"/><path d="M25.64,54.35a5.09,5.09,0,0,1,.27,1.54c0,.27,0,.53,0,.79s0,.6.16.77a.18.18,0,0,0,.29,0,.58.58,0,0,0,0-.41c0-.12,0-.25,0-.38s0-.54-.06-.81A4.94,4.94,0,0,0,26,54.25a.21.21,0,0,0-.25-.14.21.21,0,0,0-.14.24Z" transform="translate(-0.14)" fill="#7d502a"/><path d="M26.13,52.48c.08.33.18.64.28,1,.05.16.1.32.16.47s.09.37.25.44A.14.14,0,0,0,27,54.3c.09-.16,0-.34-.05-.5s-.1-.31-.16-.47-.22-.63-.35-.93a.18.18,0,0,0-.2-.12.17.17,0,0,0-.12.2Z" transform="translate(-0.14)" fill="#7d502a"/><path d="M26.6,54.69a1.55,1.55,0,0,0,.07.48l.06.15a.6.6,0,0,0,.09.13.65.65,0,0,0,.19.18.23.23,0,0,0,.25,0,.24.24,0,0,0,.08-.24c0-.06-.05-.12-.08-.19l0,.07-.05-.12c0-.06,0-.12-.07-.17l0,.06a1.46,1.46,0,0,1-.12-.39v.06h0a.24.24,0,0,0-.25-.25.25.25,0,0,0-.24.25Z" transform="translate(-0.14)" fill="#7d502a"/><path d="M27,56.1c0,.29.08.58.14.86a4,4,0,0,0,.23.84.2.2,0,0,0,.26.09.22.22,0,0,0,.13-.25c-.06-.27-.15-.52-.21-.79a7.05,7.05,0,0,1-.15-.8.18.18,0,0,0-.22-.14.19.19,0,0,0-.18.19Z" transform="translate(-0.14)" fill="#7d502a"/><path d="M27.26,53.23c.08.79.18,1.57.31,2.35.06.38.13.76.2,1.13a5.4,5.4,0,0,0,.31,1.18c.09.21.42.09.42-.12a5.4,5.4,0,0,0-.2-1.11c-.08-.39-.17-.78-.25-1.17-.15-.77-.31-1.53-.46-2.3,0-.19-.35-.15-.33,0Z" transform="translate(-0.14)" fill="#7d502a"/><path d="M28.4,54.41c.06.54.13,1.08.24,1.62.05.25.1.5.16.76s.11.62.4.7a.17.17,0,0,0,.19-.05c.19-.22.07-.51,0-.76s-.12-.5-.17-.76A15.25,15.25,0,0,1,29,54.41a.31.31,0,0,0-.3-.3.31.31,0,0,0-.3.3Z" transform="translate(-0.14)" fill="#7d502a"/><path d="M29.23,54.2a8,8,0,0,0,0,1.2,5.89,5.89,0,0,0,.11.63,1.14,1.14,0,0,0,.24.6.25.25,0,0,0,.42-.11,1.41,1.41,0,0,0-.09-.64c0-.18-.08-.37-.11-.55a6.17,6.17,0,0,1-.1-1.13.25.25,0,0,0-.5,0Z" transform="translate(-0.14)" fill="#7d502a"/><path d="M29.75,54.47a1.06,1.06,0,0,0-.12.43.19.19,0,0,0,0,.08.39.39,0,0,0,0,.15.59.59,0,0,0,.12.2.18.18,0,0,0,.1.09.23.23,0,0,0,.14,0,.22.22,0,0,0,.13-.1.22.22,0,0,0,0-.22v0l0,0,0-.1v.07a.78.78,0,0,0,0-.16.29.29,0,0,1,0-.09v.06a.54.54,0,0,1,0-.18v.06a.75.75,0,0,1,0-.16.2.2,0,0,0,0-.17.24.24,0,0,0-.11-.09.21.21,0,0,0-.27.09Z" transform="translate(-0.14)" fill="#7d502a"/><path d="M43.67,40.9c0,.62.16,1.24.26,1.85,0,.19.09.34,0,.48l-.25.27c-.2.21-.4.42-.58.65a7.55,7.55,0,0,0-.91,1.32c-.21.41-.54,1-.34,1.49a.27.27,0,0,0,.42,0,1.88,1.88,0,0,0,.27-.74,4.8,4.8,0,0,1,.33-.73,11.86,11.86,0,0,1,1-1.42c.31-.4.67-.72.56-1.26a17.12,17.12,0,0,0-.48-2c0-.12-.26-.11-.25,0Z" transform="translate(-0.14)" fill="#7d502a"/><path d="M33.4,32.29a.61.61,0,0,0-.12-.15L33.13,32a3.18,3.18,0,0,0-.32-.16,1.41,1.41,0,0,0-.64-.12.28.28,0,0,0-.29.25.29.29,0,0,0,.21.33l.13,0,.15,0c.06,0-.07,0,0,0a1.4,1.4,0,0,1,.28.06l.13,0s.08,0,0,0l.13.05h0s.05,0,.08,0l.09,0h.08a.22.22,0,0,0,.25-.32Z" transform="translate(-0.14)" fill="#7d502a"/><path d="M31.36,31.9a5.37,5.37,0,0,0-2.26.79,2.74,2.74,0,0,0-1.4,1.76c-.26,1.25.09,3.06,1.4,3.58.22.09.39-.24.23-.39a3.11,3.11,0,0,1-1-1.31,3.32,3.32,0,0,1-.15-1.79A2.32,2.32,0,0,1,29.41,33a8,8,0,0,1,2-.89c.12,0,.1-.25,0-.23Z" transform="translate(-0.14)" fill="#7d502a"/><path d="M29.66,38.33a1.86,1.86,0,0,0,.27.29,1.56,1.56,0,0,0,.2.16,1,1,0,0,0,.17.1c.12.06.28.13.39,0a.2.2,0,0,0,.06-.16.25.25,0,0,0-.06-.16l-.08-.06-.34-.22-.09-.06-.05,0s0,0,0,0l0,0L30,38a.22.22,0,0,0-.29,0,.18.18,0,0,0-.06.15.2.2,0,0,0,.06.15Z" transform="translate(-0.14)" fill="#7d502a"/><path d="M32.46,39.46a3.59,3.59,0,0,0,4.11-2.82,3.47,3.47,0,0,0-.6-2.7,4.84,4.84,0,0,0-1-1,3.82,3.82,0,0,0-1.24-.7c-.28-.06-.55.3-.3.51a11,11,0,0,0,1,.62,4.45,4.45,0,0,1,.87.81,2.89,2.89,0,0,1,.64,2.21,3.35,3.35,0,0,1-3.44,2.73c-.17,0-.23.28,0,.32Z" transform="translate(-0.14)" fill="#7d502a"/><path d="M28.06,34a14.56,14.56,0,0,0,.39,2.27,10.87,10.87,0,0,0,.36,1.1c.12.29.27.76.59.87a.17.17,0,0,0,.19-.11.74.74,0,0,0-.1-.5c-.06-.16-.12-.31-.19-.47A10.11,10.11,0,0,1,29,36.11c-.2-.71-.37-1.43-.56-2.15-.05-.17-.35-.14-.33,0Z" transform="translate(-0.14)" fill="#7d502a"/><path d="M28.85,33.7a15.37,15.37,0,0,0,.54,2.51,12.26,12.26,0,0,0,.44,1.2c.12.29.28.85.63.94a.11.11,0,0,0,.14-.08.74.74,0,0,0-.09-.54c-.07-.18-.15-.36-.22-.53-.16-.38-.3-.77-.43-1.16a15.24,15.24,0,0,1-.53-2.41c0-.27-.52-.21-.48.07Z" transform="translate(-0.14)" fill="#7d502a"/><path d="M29.69,33.4a23.83,23.83,0,0,0,.54,2.92c.12.46.25.93.41,1.38a4,4,0,0,0,.6,1.33.22.22,0,0,0,.32,0l.1-.1a.16.16,0,0,0-.07-.26l-.13,0,.17.22a5.69,5.69,0,0,0-.38-1.34c-.14-.44-.28-.88-.4-1.33a22,22,0,0,1-.54-2.8c0-.38-.66-.39-.62,0Z" transform="translate(-0.14)" fill="#7d502a"/><path d="M30.2,32.52a7.64,7.64,0,0,0,.19,1.64c.1.55.22,1.1.37,1.64a15.15,15.15,0,0,0,.53,1.61c.09.23.18.47.28.7a2,2,0,0,0,.45.71.23.23,0,0,0,.39-.16,2,2,0,0,0-.21-.75l-.31-.78q-.29-.75-.51-1.5c-.15-.5-.29-1-.4-1.52s-.18-1.11-.33-1.65a.23.23,0,0,0-.45.06Z" transform="translate(-0.14)" fill="#7d502a"/><path d="M31,32.41A36.09,36.09,0,0,1,31.67,36a12.86,12.86,0,0,0,.41,1.76,2.91,2.91,0,0,0,.8,1.47.27.27,0,0,0,.39-.22,2.52,2.52,0,0,0-.27-.8c-.1-.28-.2-.57-.29-.85a15.9,15.9,0,0,1-.41-1.65,30.64,30.64,0,0,0-.79-3.44.27.27,0,0,0-.53.14Z" transform="translate(-0.14)" fill="#7d502a"/><path d="M32.33,32.53a13.4,13.4,0,0,0,.23,3.79c.1.61.22,1.22.38,1.82.11.41.23,1.17.76,1.22s.53-.63.52-1A11.81,11.81,0,0,0,34,36.58c-.18-1.28-.51-2.54-.73-3.81a.2.2,0,0,0-.4,0,22.08,22.08,0,0,0,.41,3.34,5.53,5.53,0,0,0,1,2.83.34.34,0,0,0,.57-.15,6,6,0,0,0-.12-2.59c-.14-1-.44-1.86-.55-2.82,0-.26-.43-.27-.41,0,0,.8.23,1.61.34,2.4s.2,1.6.3,2.41c0,.39.67.41.63,0a24.46,24.46,0,0,0-.32-2.43,12.58,12.58,0,0,0-.55-2.43l-.38.16a7.35,7.35,0,0,1,.54,2.58c0,.41.05.81.05,1.22a2.61,2.61,0,0,1-.15,1.24h.59a7.07,7.07,0,0,1-1-2.72c-.22-1-.37-2.07-.61-3.09l-.4.11A14,14,0,0,1,33.6,36c.06.49.11,1,.13,1.49,0,.24,0,.49,0,.74a2.22,2.22,0,0,1-.06.66l.21,0c-.12,0-.2-.65-.23-.74l-.18-.72c-.14-.54-.25-1.09-.35-1.64-.19-1.07-.23-2.16-.41-3.23,0-.24-.36-.14-.38.05Z" transform="translate(-0.14)" fill="#7d502a"/><path d="M34.86,35.09l.32,1.39.15.67a1.59,1.59,0,0,0,.28.73.28.28,0,0,0,.46-.13.82.82,0,0,0,0-.38c0-.13,0-.27-.07-.4l-.15-.67-.33-1.39a.33.33,0,0,0-.41-.23.34.34,0,0,0-.24.41Z" transform="translate(-0.14)" fill="#7d502a"/><path d="M35.24,34.4c0,.45.07.89.11,1.34,0,.22,0,.45.08.68s0,.55.22.71a.3.3,0,0,0,.47-.06c.14-.24,0-.54,0-.79L36,35.65c-.09-.44-.14-.88-.24-1.32-.06-.28-.5-.21-.5.07Z" transform="translate(-0.14)" fill="#7d502a"/><path d="M10.71,37.14c-.46-.35-1,.1-1.38.36a2.4,2.4,0,0,0-.58.46.64.64,0,0,0-.15.42.44.44,0,0,0,.28.47l-.18-.13a.58.58,0,0,0,.22.22.68.68,0,0,0,.22.09.18.18,0,0,0,.22-.21c0-.06,0-.11,0-.17a.54.54,0,0,0-.05-.11.08.08,0,0,0,0,0s0,0,0,0l0,.24a.33.33,0,0,0,0-.29s0-.08,0,0,0,0,0,0,0,.06,0,0,0,.07,0,0l0,0c0-.06,0,0,0,0A5.12,5.12,0,0,1,9.72,38l.24-.18,0-.05h0l.12-.08.13-.07s0,0,0,0l.07,0h.08s.06,0,0,0l.07,0a.22.22,0,0,0,.26-.12.24.24,0,0,0-.09-.28Z" transform="translate(-0.14)" fill="#7d502a"/><path d="M10.72,38.15a1.67,1.67,0,0,0-.76.49,1.59,1.59,0,0,0-.27.37,1.14,1.14,0,0,0-.11.51.24.24,0,0,0,.21.23.24.24,0,0,0,.26-.17h0l0-.09s0,0,0,0v0l0-.08,0,0,0-.07v0a.25.25,0,0,0,0-.07l0-.09.11-.16s0,0,0,0l0,0,.06-.06.07-.07s.06,0,.07-.06,0,0,0,0l0,0,.09-.06.08,0,0,0s.06,0,0,0a.23.23,0,0,0,.16-.28.24.24,0,0,0-.28-.16Z" transform="translate(-0.14)" fill="#7d502a"/><path d="M11.58,39a2,2,0,0,0-.42.34,2.07,2.07,0,0,0-.17.24,1.22,1.22,0,0,0-.07.17.53.53,0,0,0,0,.17.28.28,0,0,0,0,.13.2.2,0,0,0,.12.1.23.23,0,0,0,.27,0,.44.44,0,0,0,.12-.18l.1-.14,0,.06.14-.19,0,.06a1.07,1.07,0,0,1,.26-.26l-.06,0,.06,0a.28.28,0,0,0,.12-.16.25.25,0,0,0,0-.19.26.26,0,0,0-.35-.1Z" transform="translate(-0.14)" fill="#7d502a"/><path d="M12.39,40.66l-.09.11a.21.21,0,0,0,0,.06v0a.3.3,0,0,0,0,.1.66.66,0,0,0,0,.14v.07a.18.18,0,0,0,0,.09.1.1,0,0,0,.05,0,.13.13,0,0,0,.09.05h.14a.14.14,0,0,0,.08-.05.23.23,0,0,0,.07-.07l-.22.13a.22.22,0,0,0,.13,0,.2.2,0,0,0,.09-.09s0,0,0-.08l0-.07,0,.06.06-.07a.24.24,0,0,0,.06-.09.23.23,0,0,0,0-.11.2.2,0,0,0,0-.11.21.21,0,0,0-.06-.1l0,0a.28.28,0,0,0-.15,0h-.08a.29.29,0,0,0-.12.07Z" transform="translate(-0.14)" fill="#7d502a"/><path d="M16.38,43.87l-.21.1-.1.06-.1.06a.22.22,0,0,0-.11.15.25.25,0,0,0,0,.19.35.35,0,0,0,.15.12h.07l.12,0,.11-.05.09-.07.2-.12a.3.3,0,0,0,.11-.14.25.25,0,0,0,0-.19.21.21,0,0,0-.14-.1H16.5l-.12,0Z" transform="translate(-0.14)" fill="#7d502a"/><path d="M15.87,38.15a1.08,1.08,0,0,0-1.09.13,1,1,0,0,0-.38.47.78.78,0,0,0,.06.65,1.64,1.64,0,0,0,.87.75A1,1,0,0,0,16.49,40a1,1,0,0,0,.22-.69,2.1,2.1,0,0,0-.06-.33.79.79,0,0,0-.2-.34.17.17,0,0,0-.22.06,1.16,1.16,0,0,0,0,.49.69.69,0,0,1,0,.21s0,0,0,0,0,0,0,0v0s0,0,0,0a.25.25,0,0,1-.2.16s0,0,0,0h-.21l-.11,0-.09,0-.06,0s0,0,0,0l-.19-.1,0,0s0,0,0,0h0l0,0L15,39.25s0,0,0,0l0,0-.06-.09s0,0,0,0a.11.11,0,0,1,0-.05l0,0v-.07s0,0,0,0,0-.08,0-.05a.16.16,0,0,1,0-.07l0,0h0a.71.71,0,0,1,.75-.27c.18.07.3-.23.13-.32Z" transform="translate(-0.14)" fill="#7d502a"/><path d="M18.79,41.79a.86.86,0,0,0-.61,0,.48.48,0,0,0-.24.33.58.58,0,0,0,0,.26.61.61,0,0,0,.05.12.34.34,0,0,0,.21.16l-.07,0h0l-.06-.05.14.11a.1.1,0,0,0,.05,0,.24.24,0,0,0,.26,0,.25.25,0,0,0,0-.4l-.05-.06,0,.06a.35.35,0,0,0,0-.08l0,.07h0v.07a.41.41,0,0,0-.05-.19l0,0,0,.07a.29.29,0,0,1,0-.09v.09a.43.43,0,0,1,0,0l0,.06,0,0,0,.06,0-.05-.05.05.07-.05-.06,0,.14,0h.12a.2.2,0,0,0,.21-.18.21.21,0,0,0-.15-.24Z" transform="translate(-0.14)" fill="#7d502a"/><path d="M20.54,41.31a0,0,0,1,0,0-.07,0,0,0,1,0,0,.07Z" transform="translate(-0.14)" fill="#7d502a"/><path d="M45.51,54.74a1.7,1.7,0,0,0-2.69.61A2,2,0,0,0,43,56.87a3.08,3.08,0,0,0,.47.65,1.86,1.86,0,0,0,.29.27.68.68,0,0,0,.23.14l.2,0a.25.25,0,0,0,.27-.36,1.59,1.59,0,0,0-.18-.27l-.25-.23a2.71,2.71,0,0,1-.36-.46,1.51,1.51,0,0,1-.26-1,.9.9,0,0,1,.64-.68,2,2,0,0,1,1.22.14c.2.06.38-.22.21-.36Z" transform="translate(-0.14)" fill="#7d502a"/><path d="M45.94,55.37l.07.08.07.09.08.07h0l0,0,0,0,0,0,0,0h.09a.18.18,0,0,0,.09-.06l0-.08a.18.18,0,0,0,0-.1l0-.05-.06-.08a.3.3,0,0,1-.08-.08l-.13-.09-.09-.06-.06,0H46a.18.18,0,0,0-.09.06.14.14,0,0,0,0,.11v0a.18.18,0,0,0,0,.08Z" transform="translate(-0.14)" fill="#7d502a"/><path d="M46.45,56.28c-.05.25-.05.5-.11.74a.75.75,0,0,1-.05.16v0h0l0,.06,0,.07s0,0,0,0l-.05.06s-.06,0,0,0l-.11.06,0,0s0,0,0,0l-.07,0-.12,0h-.53a.41.41,0,0,0-.26.11.25.25,0,0,0,0,.34.53.53,0,0,0,.44.11l.36,0a1.4,1.4,0,0,0,.65-.28,1.09,1.09,0,0,0,.34-.68,2.66,2.66,0,0,0,0-.89c0-.16-.31-.17-.34,0Z" transform="translate(-0.14)" fill="#7d502a"/><path d="M1.09,36.82a1.25,1.25,0,0,0-.84.79c-.21.54,0,.93.14,1.45a5.28,5.28,0,0,1-.06,1.19c0,.29,0,.58,0,.88,0,.86,0,1.72,0,2.59a10.47,10.47,0,0,0,.13,2.44.25.25,0,0,0,.48-.06C1,45.4.83,44.66.81,44s0-1.63,0-2.44c0-.49,0-1,0-1.46a3.19,3.19,0,0,0-.06-1.41,1.16,1.16,0,0,1,.46-1.49.18.18,0,0,0-.14-.33Z" transform="translate(-0.14)" fill="#7d502a"/><path d="M.53,46.48a.56.56,0,0,0,.22.9,4.57,4.57,0,0,0,1.16.28,5.39,5.39,0,0,0,.56.08,4.53,4.53,0,0,1,.82.06,4.6,4.6,0,0,1,1.76,1,2.79,2.79,0,0,1,.88,3.26,1.93,1.93,0,0,1-1.51,1,1.8,1.8,0,0,1-1.18-.22A25.44,25.44,0,0,0,.71,51.54a.38.38,0,0,0-.48.37c-.06.68-.28,1.93.38,2.39A.27.27,0,0,0,1,54.13c.13-.34-.06-.72-.07-1.08s0-.76.06-1.14l-.48.36a22.49,22.49,0,0,1,2.36,1.17,3,3,0,0,0,1,.34,3,3,0,0,0,1.82-.56,2.75,2.75,0,0,0,.8-3.11,4.73,4.73,0,0,0-2.6-2.56,2.59,2.59,0,0,0-1-.28,5.78,5.78,0,0,1-.72,0l-.8-.14c-.14,0-.81-.11-.59-.4s-.14-.36-.28-.22Z" transform="translate(-0.14)" fill="#7d502a"/><path d="M.44,54.81c.3.62-.18,1.31-.28,1.93a3.33,3.33,0,0,0,.28,1.49,4.7,4.7,0,0,1,.4,1.5c0,.51-.17,1-.24,1.51C.42,62.49.54,63.81.48,65.08q0,1-.12,2a7.46,7.46,0,0,0-.07,2.16c.28,1.15,1.4,1.06,2.28,1.49a23.72,23.72,0,0,1,2.19,1.12c.59.37,1.22.69,1.8,1.06a15.35,15.35,0,0,0,4.05,1.52,75.84,75.84,0,0,1,10.82,4.62c.42.2.78-.41.36-.62a82,82,0,0,0-9.11-4c-1.52-.54-3.14-.83-4.63-1.44-.77-.32-1.43-.86-2.18-1.23L3.35,70.54c-.21-.11-.42-.22-.64-.32C2.19,70,1.42,70,1,69.64S.7,67.87.76,67.2s.13-1.42.18-2.12c.1-1.25,0-2.56.21-3.79.08-.52.21-1,.25-1.56A4.19,4.19,0,0,0,1,58.26a7.89,7.89,0,0,1-.34-1,2.72,2.72,0,0,1,.14-1,1.88,1.88,0,0,0-.08-1.54.18.18,0,0,0-.31.18Z" transform="translate(-0.14)" fill="#7d502a"/><path d="M22.68,79.41a1.34,1.34,0,0,0,.56-.64,2.29,2.29,0,0,1,1.15-1.4,3.4,3.4,0,0,1,3.62.91,2.32,2.32,0,0,1,.85,1.6c0,.62-.55,1-.72,1.57-.29.9.44,1.55,1.17,1.92a26.33,26.33,0,0,0,2.7,1.1c1.42.53,2.85,1.06,4.28,1.57,1.11.4,2.21.82,3.33,1.19.43.14.61-.53.19-.67-2.5-.83-5-1.79-7.43-2.72a19.42,19.42,0,0,1-3-1.23c-.24-.15-.55-.35-.61-.65s.18-.63.34-.89a2.11,2.11,0,0,0,.39-1.41,3.41,3.41,0,0,0-1.76-2.3,3.78,3.78,0,0,0-3.35-.52,2.56,2.56,0,0,0-1.11.81,2.08,2.08,0,0,0-.34.62c-.11.31-.09.74-.36,1-.1.08,0,.23.13.17Z" transform="translate(-0.14)" fill="#7d502a"/><path d="M40.74,87.65a8.84,8.84,0,0,0,1,.33l1,.28a4.91,4.91,0,0,1,.74.24c.23.1.43.29.67.37s.25-.1.23-.23c0-.29-.32-.48-.55-.6a4.4,4.4,0,0,0-.79-.29l-1-.27a8.26,8.26,0,0,0-1.09-.27.25.25,0,0,0-.28.14.24.24,0,0,0,.1.3Z" transform="translate(-0.14)" fill="#7d502a"/><path d="M45.24,89.33c.6.26,1.26.38,1.88.58a10.54,10.54,0,0,1,1.93.89,11.22,11.22,0,0,0,3.35,1.64.3.3,0,0,0,.38-.28,40.75,40.75,0,0,1,.32-4.81c.11-.79.24-1.58.41-2.36s.46-1.5.55-2.25c0-.27-.39-.38-.5-.14a11.6,11.6,0,0,0-.62,2.33c-.17.79-.32,1.59-.43,2.39a27,27,0,0,0-.33,4.84l.3-.3c-1.31-.12-2.39-1.08-3.51-1.68a10.84,10.84,0,0,0-1.73-.71A9,9,0,0,0,45.33,89c-.16,0-.24.24-.09.31Z" transform="translate(-0.14)" fill="#7d502a"/><path d="M56.35,70.47A3.33,3.33,0,0,0,55.86,72l-.33,1.88c-.24,1.25-.49,2.5-.85,3.72-.12.4.53.57.61.17.26-1.2.54-2.4.76-3.61.1-.56.18-1.12.26-1.69a5.53,5.53,0,0,1,.34-1.81c.1-.2-.16-.34-.3-.17Z" transform="translate(-0.14)" fill="#7d502a"/><path d="M54.8,77.89A2.92,2.92,0,0,0,53,77a1.91,1.91,0,0,0-1.11,0,2,2,0,0,0-.82.65,2.48,2.48,0,0,0,.63,3.61,7.83,7.83,0,0,0,.92.45l.47.26a1.45,1.45,0,0,0,.47.26c.16,0,.39-.08.36-.28-.09-.71-1.06-.93-1.6-1.21a1.83,1.83,0,0,1-1-1.53,1.6,1.6,0,0,1,1-1.63,2.94,2.94,0,0,1,1.21.11,4.31,4.31,0,0,1,1,.4c.16.09.4-.1.27-.27Z" transform="translate(-0.14)" fill="#7d502a"/><path d="M12.29,58.64A3.93,3.93,0,0,0,9,58.09a4,4,0,0,0-2.31,2.09,5,5,0,0,0-.25,3.31,5.77,5.77,0,0,0,1.84,3A.33.33,0,0,0,8.71,66a7.67,7.67,0,0,1-1.56-2.46,4.39,4.39,0,0,1,0-3,3.39,3.39,0,0,1,2-2,4.49,4.49,0,0,1,3,.28.16.16,0,0,0,.13-.29Z" transform="translate(-0.14)" fill="#7d502a"/><path d="M9.51,67.25a4.6,4.6,0,0,0,3.58.23,4.22,4.22,0,0,0,2.28-2.25,5.05,5.05,0,0,0,.21-3.32,5.41,5.41,0,0,0-.74-1.62A4.13,4.13,0,0,0,13.67,59c-.27-.16-.67.19-.46.47s.69.71,1,1.13a5.34,5.34,0,0,1,.67,1.3,4.48,4.48,0,0,1,0,3,3.73,3.73,0,0,1-2,2.1,4.15,4.15,0,0,1-3.24-.15c-.28-.1-.39.33-.12.44Z" transform="translate(-0.14)" fill="#7d502a"/><path d="M6.79,61.44v-.09h0v.09s0,0,0,0Z" transform="translate(-0.14)" fill="#7d502a"/><path d="M7,61.12a12.49,12.49,0,0,0,.77,3.06,11.86,11.86,0,0,0,.65,1.4,3.3,3.3,0,0,0,.88,1.25.16.16,0,0,0,.24-.18,5.06,5.06,0,0,0-.71-1.31c-.24-.43-.46-.88-.66-1.33a15.07,15.07,0,0,1-.91-2.93c0-.14-.28-.11-.26,0Z" transform="translate(-0.14)" fill="#7d502a"/><path d="M7.69,61c.31,1.08.64,2.15,1,3.21.18.52.37,1,.58,1.54a6.8,6.8,0,0,0,.69,1.5.19.19,0,0,0,.34-.14,8.4,8.4,0,0,0-.58-1.54c-.2-.52-.4-1-.59-1.54-.39-1-.76-2.08-1.09-3.13a.19.19,0,0,0-.37.1Z" transform="translate(-0.14)" fill="#7d502a"/><path d="M8.33,59.91c.43,1.29.86,2.59,1.28,3.9.21.63.42,1.27.64,1.91.11.33.22.66.35,1a2,2,0,0,0,.38.77.2.2,0,0,0,.33-.14,2.13,2.13,0,0,0-.21-.92c-.12-.33-.24-.66-.35-1-.22-.61-.45-1.21-.68-1.82q-.72-1.89-1.41-3.78c-.08-.21-.4-.12-.33.09Z" transform="translate(-0.14)" fill="#7d502a"/><path d="M8.87,59.07c.14.39.28.79.44,1.18a4.7,4.7,0,0,0,.54,1.13.12.12,0,0,0,.22-.1,7.29,7.29,0,0,0-.43-1.15c-.15-.38-.29-.77-.43-1.15-.07-.22-.41-.13-.34.09Z" transform="translate(-0.14)" fill="#7d502a"/><path d="M10,62a.3.3,0,0,1,0,.08l0,0a2,2,0,0,0,.14.25.6.6,0,0,0,.06.11l0,.05.06.07a.1.1,0,0,0,.1,0,.11.11,0,0,0,.08-.08.31.31,0,0,0,0-.19s0-.06,0-.09a.18.18,0,0,0,0-.1.91.91,0,0,0-.11-.16.56.56,0,0,0-.15-.1.12.12,0,0,0-.16,0A.14.14,0,0,0,10,62Z" transform="translate(-0.14)" fill="#7d502a"/><path d="M10.53,63.37c.24.69.5,1.37.78,2.05.13.32.26.65.4,1a1.9,1.9,0,0,0,.53.87c.09.07.2,0,.21-.11a2.11,2.11,0,0,0-.29-.94c-.14-.33-.29-.65-.43-1-.29-.65-.56-1.31-.82-2-.09-.24-.47-.14-.38.1Z" transform="translate(-0.14)" fill="#7d502a"/><path d="M9.76,58.89c.59,1.38,1.21,2.75,1.78,4.14s1,2.69,1.65,4c.07.15.29,0,.25-.11a25.28,25.28,0,0,0-1.5-4.11c-.58-1.38-1.18-2.75-1.86-4.07-.11-.22-.41,0-.32.18Z" transform="translate(-0.14)" fill="#7d502a"/><path d="M10.5,58.92l1.65,4,.81,2,.39,1a2.08,2.08,0,0,0,.48.86.19.19,0,0,0,.32-.13,2.13,2.13,0,0,0-.27-.91l-.39-.91-.86-2-1.69-4c-.11-.24-.54-.06-.44.19Z" transform="translate(-0.14)" fill="#7d502a"/><path d="M11.54,59.15l1.17,3.29c.19.53.39,1.07.59,1.61A6.26,6.26,0,0,0,14,65.63c.1.13.38.11.36-.1a6.21,6.21,0,0,0-.53-1.61l-.62-1.61c-.42-1.08-.85-2.17-1.27-3.26-.09-.21-.43-.12-.35.1Z" transform="translate(-0.14)" fill="#7d502a"/><path d="M12.85,59.67c.29,1,.63,2,1,3l.53,1.51A4.65,4.65,0,0,0,15,65.54a.19.19,0,0,0,.33-.14A4.23,4.23,0,0,0,14.85,64l-.58-1.49c-.39-1-.79-1.93-1.23-2.87,0-.11-.23,0-.19.08Z" transform="translate(-0.14)" fill="#7d502a"/><path d="M13.91,60.63c.21.58.4,1.17.61,1.76.1.28.22.56.34.84s.21.62.46.76a.15.15,0,0,0,.23-.09,1.47,1.47,0,0,0-.26-.85l-.35-.81c-.25-.56-.5-1.12-.7-1.7-.07-.21-.4-.12-.33.09Z" transform="translate(-0.14)" fill="#7d502a"/><path d="M19.69,70.16a3.11,3.11,0,0,0-1.17.21,1,1,0,0,0-.63.83,3,3,0,0,0,.77,2.15,1.7,1.7,0,0,0,2,.6,2.1,2.1,0,0,0,1.12-1.82,1.51,1.51,0,0,0-.43-1.19l-.49-.46a1,1,0,0,0-.58-.33.17.17,0,0,0-.17.22.76.76,0,0,0,.27.32,3.9,3.9,0,0,1,.38.33,1.54,1.54,0,0,1,.53.73,1.66,1.66,0,0,1-.57,1.55,1.1,1.1,0,0,1-1.41-.17,3,3,0,0,1-.81-1.54.74.74,0,0,1,.2-.76,2.14,2.14,0,0,1,1-.37.15.15,0,0,0,0-.3Z" transform="translate(-0.14)" fill="#7d502a"/><path d="M33.48,62.68a1.89,1.89,0,0,0-1-.63,2.84,2.84,0,0,0-1.23,0,2.55,2.55,0,0,0-1.89,1.68,3.58,3.58,0,0,0,2.57,4.55A2.41,2.41,0,0,0,33.49,68c.47-.26.83-.74.56-1.27a.19.19,0,0,0-.34,0c-.13.75-1.14,1-1.76.83a2.7,2.7,0,0,1-1.69-1.3A2.87,2.87,0,0,1,29.91,64a2.09,2.09,0,0,1,1.34-1.47,2.62,2.62,0,0,1,2.11.29c.1.06.19-.08.12-.16Z" transform="translate(-0.14)" fill="#7d502a"/><path d="M34,63.6a6,6,0,0,1,.53,1.6,1.94,1.94,0,0,1,0,.72,2.36,2.36,0,0,1-.29.65.24.24,0,0,0,.37.29A1.92,1.92,0,0,0,35,65.21a4.53,4.53,0,0,0-.81-1.7c-.06-.11-.21,0-.16.09Z" transform="translate(-0.14)" fill="#7d502a"/><path d="M29.76,63.59a13.34,13.34,0,0,0,.48,2.17c.11.34.26.68.4,1s.27.74.62.82a.15.15,0,0,0,.19-.1c.11-.32-.15-.67-.28-.94s-.29-.67-.43-1a12.15,12.15,0,0,1-.63-2.05c0-.23-.38-.13-.35.1Z" transform="translate(-0.14)" fill="#7d502a"/><path d="M30.23,62.91a17.89,17.89,0,0,0,.58,2.61c.12.42.26.83.41,1.23A3.07,3.07,0,0,0,31.79,68a.26.26,0,0,0,.36,0,.36.36,0,0,0,0-.51.15.15,0,0,0-.24.07h0l.25.25a3.77,3.77,0,0,0-.4-1.2q-.24-.61-.45-1.26-.42-1.25-.75-2.52c-.06-.27-.43-.15-.39.11Z" transform="translate(-0.14)" fill="#7d502a"/><path d="M30.86,62.84c.23,1,.48,1.94.75,2.91q.2.7.42,1.41a1.83,1.83,0,0,0,.63,1.12.3.3,0,0,0,.44-.34,1.43,1.43,0,0,0-.17-.49.15.15,0,0,0-.28.07.53.53,0,0,1-.1.35l.55.07c-.07-.18-.19-.35-.26-.54a6.45,6.45,0,0,1-.21-.62c-.15-.45-.29-.9-.43-1.36-.27-.91-.52-1.82-.74-2.74a.31.31,0,0,0-.6.16Z" transform="translate(-0.14)" fill="#7d502a"/><path d="M31.34,62.34A20.55,20.55,0,0,0,32,65c.13.43.28.85.43,1.28A6,6,0,0,0,33,67.58a.32.32,0,0,0,.6-.16.9.9,0,0,0-.19-.65.18.18,0,0,0-.29.08,1.85,1.85,0,0,1-.12.4l.59.08a9.66,9.66,0,0,0-.49-1.26c-.17-.42-.32-.84-.47-1.27-.3-.85-.55-1.72-.82-2.58a.23.23,0,0,0-.44.12Z" transform="translate(-0.14)" fill="#7d502a"/><path d="M32.29,62.76c.12.75.27,1.49.45,2.23q.13.54.3,1.08a7.11,7.11,0,0,0,.37,1.1.34.34,0,0,0,.61-.08.52.52,0,0,0-.18-.55c-.09-.08-.22,0-.25.1s0,.1-.05.15l.11-.14-.12.06.49.2a11,11,0,0,0-.38-1.1l-.33-1c-.22-.71-.43-1.42-.62-2.14-.07-.26-.44-.15-.4.11Z" transform="translate(-0.14)" fill="#7d502a"/><path d="M33.1,63.07a18.6,18.6,0,0,0,.41,2c.07.31.16.62.24.93s.18.73.5.86a.23.23,0,0,0,.26-.11c.16-.26,0-.67-.11-.93l-.3-1L33.51,63a.21.21,0,0,0-.41.11Z" transform="translate(-0.14)" fill="#7d502a"/><path d="M45.24,76.44a3.81,3.81,0,0,0-2.36-1.78,4.27,4.27,0,0,0-3.31,0,5,5,0,0,0-2.07,2.37,3.38,3.38,0,0,0-.08,3,.3.3,0,0,0,.54-.22,5.87,5.87,0,0,1-.15-1.32,3.76,3.76,0,0,1,.3-1.22,4.55,4.55,0,0,1,1.77-2.06,3.83,3.83,0,0,1,2.92-.08,4.24,4.24,0,0,1,2.28,1.41c.08.09.21,0,.16-.13Z" transform="translate(-0.14)" fill="#7d502a"/><path d="M38,80.66v.07s0,0,0,0h0a.11.11,0,0,0,0,0s0,0,0,.06,0,0,0,0a2,2,0,0,0,.08.22.64.64,0,0,0,.13.19l.11.09,0,0a.28.28,0,0,0,.18,0h-.1a.33.33,0,0,0,.14,0,.19.19,0,0,0,.12-.16.17.17,0,0,0,0-.1s0,0,0,0v0a.31.31,0,0,0-.06-.16l0,0,0,0c0-.06-.09-.13-.14-.18l-.11-.13,0,0-.06-.08,0,0a.26.26,0,0,0-.09-.09l.06.06a.56.56,0,0,0,0-.08.13.13,0,0,0-.16-.07.15.15,0,0,0-.1.14Z" transform="translate(-0.14)" fill="#7d502a"/><path d="M39.43,82.43a3.84,3.84,0,0,0,2.09,1.28,6.34,6.34,0,0,0,2.77.16c2-.41,2.63-2.68,2.64-4.45A5.49,5.49,0,0,0,46.79,78c-.12-.42-.34-.95-.82-1-.17,0-.25.16-.23.3s.2.38.29.58a2.43,2.43,0,0,1,.19.65,8,8,0,0,1,0,1.55,3.85,3.85,0,0,1-1.14,2.73,3.54,3.54,0,0,1-2.86.52,3.8,3.8,0,0,1-2.53-1.15c-.18-.2-.45.09-.29.29Z" transform="translate(-0.14)" fill="#7d502a"/><path d="M37.76,78c.29.85.58,1.7.94,2.52a10.68,10.68,0,0,0,.59,1.17c.13.22.48.85.8.56a.12.12,0,0,0,0-.16c-.33-.67-.74-1.31-1.06-2s-.62-1.47-.9-2.21c-.09-.24-.47-.14-.39.11Z" transform="translate(-0.14)" fill="#7d502a"/><path d="M38.28,76.45a8.68,8.68,0,0,0,.36,1.74,17.5,17.5,0,0,0,.57,1.73c.22.56.46,1.11.72,1.64a4.36,4.36,0,0,0,1,1.47.19.19,0,0,0,.32-.19,7,7,0,0,0-.71-1.49c-.28-.53-.54-1.08-.77-1.64a17.12,17.12,0,0,1-.59-1.61c-.18-.56-.29-1.15-.48-1.7-.08-.2-.42-.19-.4,0Z" transform="translate(-0.14)" fill="#7d502a"/><path d="M38.41,76a28.52,28.52,0,0,0,1.32,3.84c.24.6.5,1.19.77,1.77.15.31.3.63.46.94s.22.53.52.63a.22.22,0,0,0,.27-.15,1.1,1.1,0,0,0-.23-.81c-.13-.27-.27-.55-.4-.83-.3-.61-.58-1.22-.86-1.84-.54-1.21-1-2.46-1.53-3.68-.08-.18-.36,0-.32.13Z" transform="translate(-0.14)" fill="#7d502a"/><path d="M39,75.35c.49,1.43,1,2.84,1.56,4.25.26.66.53,1.33.81,2,.14.33.28.66.43,1a1.61,1.61,0,0,0,.57.82.17.17,0,0,0,.25-.1,1.49,1.49,0,0,0-.21-.89c-.13-.34-.28-.66-.43-1-.29-.68-.58-1.36-.86-2C40.56,78,40,76.6,39.53,75.2c-.12-.33-.64-.19-.53.15Z" transform="translate(-0.14)" fill="#7d502a"/><path d="M40,75.46c.45,1.37,1,2.72,1.55,4.06.26.64.53,1.29.8,1.93s.42,1.37.93,1.73c.13.1.27,0,.29-.16.08-.59-.4-1.29-.63-1.82-.29-.68-.59-1.37-.88-2.06-.54-1.28-1-2.59-1.62-3.87-.11-.25-.53-.07-.44.19Z" transform="translate(-0.14)" fill="#7d502a"/><path d="M41.21,75.39c.49,1.48,1,3,1.52,4.44L43.51,82c.13.36.26.71.41,1.06s.21.69.53.86a.23.23,0,0,0,.34-.14,1.34,1.34,0,0,0-.17-.91c-.13-.36-.27-.71-.41-1.06-.29-.73-.57-1.46-.85-2.19-.54-1.44-1.07-2.89-1.57-4.34-.13-.36-.69-.21-.58.16Z" transform="translate(-0.14)" fill="#7d502a"/><path d="M41.87,74.63c.48,1.47,1,2.91,1.57,4.36.26.71.54,1.42.8,2.13s.39,1.46.93,1.85a.23.23,0,0,0,.33-.13,4,4,0,0,0-.56-2c-.29-.74-.58-1.47-.88-2.2-.58-1.41-1.14-2.81-1.79-4.19-.11-.22-.47-.06-.4.17Z" transform="translate(-0.14)" fill="#7d502a"/><path d="M43.17,75.46c.45,1.2.85,2.41,1.27,3.62.21.61.42,1.21.62,1.82a5.47,5.47,0,0,0,.66,1.7c.25.29.71-.09.52-.41-.07-.12-.12-.24-.2-.36a.18.18,0,0,0-.33,0c0,.13-.05.27-.08.4l.66.09a2.31,2.31,0,0,0-.24-.88l-.33-.9c-.21-.58-.43-1.16-.65-1.74-.45-1.18-.93-2.35-1.4-3.52-.12-.3-.61-.18-.5.14Z" transform="translate(-0.14)" fill="#7d502a"/><path d="M44.36,76.34c.24.68.43,1.39.63,2.09.1.34.19.69.29,1a4.47,4.47,0,0,0,.35,1.07.34.34,0,0,0,.63-.17A4.19,4.19,0,0,0,46,79.27c-.11-.34-.22-.68-.34-1-.25-.69-.53-1.36-.78-2-.11-.31-.6-.17-.49.14Z" transform="translate(-0.14)" fill="#7d502a"/><path d="M45.33,77.24l.48,1.53a5.78,5.78,0,0,1,.17.69c0,.11,0,.21,0,.32s0,.22,0,.33a.17.17,0,0,0,.2.11.47.47,0,0,0,.24-.26.88.88,0,0,0,.12-.41,2.45,2.45,0,0,0-.14-.8c-.18-.55-.39-1.11-.58-1.66-.12-.34-.65-.2-.54.15Z" transform="translate(-0.14)" fill="#7d502a"/><path d="M37.43,79.3c.13.34.25.68.39,1l.2.5c0,.1.08.19.13.29a.51.51,0,0,0,.23.23.22.22,0,0,0,.32-.13.65.65,0,0,0,0-.31,2.52,2.52,0,0,0-.12-.29l-.23-.51c-.15-.33-.32-.66-.49-1s-.53-.07-.43.19Z" transform="translate(-0.14)" fill="#7d502a"/><path d="M23.08,79.57a8.68,8.68,0,0,0,1.66.53c.11,0,.26-.06.25-.19a1.54,1.54,0,0,1,.74-1.4,3.53,3.53,0,0,1,1.75-.41.22.22,0,1,0,0-.45c-1.3-.08-3.05.71-2.89,2.26l.25-.2a9.71,9.71,0,0,1-1.64-.44c-.17-.06-.29.23-.12.3Z" transform="translate(-0.14)" fill="#7d502a"/><path d="M52.62,77.49a2.71,2.71,0,0,0-1.17,1.78,3.7,3.7,0,0,0-.1,1.1,3.45,3.45,0,0,0,.07.55c0,.19.07.42.25.52a.25.25,0,0,0,.32-.08.75.75,0,0,0,0-.51,2.32,2.32,0,0,1-.07-.46,3.18,3.18,0,0,1,.07-1,3.58,3.58,0,0,1,.32-.9c.16-.3.34-.57.51-.85a.13.13,0,0,0-.18-.18Z" transform="translate(-0.14)" fill="#7d502a"/><path d="M45.7,66.41l-.06.3a1.13,1.13,0,0,0,0,.18c0,.06,0,.11,0,.16a.21.21,0,0,0,.1.17.25.25,0,0,0,.15,0s.12-.07.13-.14a.88.88,0,0,0,0-.17.49.49,0,0,0,0-.17v-.31a.16.16,0,0,0-.13-.15.16.16,0,0,0-.17.11Z" transform="translate(-0.14)" fill="#7d502a"/><path d="M47.65,67a1.67,1.67,0,0,0-.14.27,2.71,2.71,0,0,0-.13.3,1.44,1.44,0,0,0-.09.68.24.24,0,0,0,.2.17.25.25,0,0,0,.24-.11,1.17,1.17,0,0,0,.09-.32,2.93,2.93,0,0,1,0-.29l.06-.28,0-.14s0-.11,0-.06a.24.24,0,0,0,0-.08.19.19,0,0,0-.34-.14Z" transform="translate(-0.14)" fill="#7d502a"/><path d="M48.47,67.5a2,2,0,0,0,0,.78,1.63,1.63,0,0,0,.08.37.51.51,0,0,0,.12.23.19.19,0,0,0,.11.07c-.06,0-.07,0,0,0l.09.07a.19.19,0,0,0,.27-.16.22.22,0,0,0,0-.08h0a.17.17,0,0,0,0-.07.65.65,0,0,0-.05-.21c0-.11-.07-.21-.1-.31a1,1,0,0,1,0-.16s0,0,0,0V67.9a2,2,0,0,1,0-.35.2.2,0,0,0-.4,0Z" transform="translate(-0.14)" fill="#7d502a"/><path d="M49.57,68.26c0,.11,0,.24,0,.37l0,.37c0,.12,0,.24,0,.37a.7.7,0,0,0,.08.4.19.19,0,0,0,.29,0,.41.41,0,0,0,.1-.21,1.52,1.52,0,0,0,0-.21c0-.12,0-.25,0-.38v-.37c0-.13,0-.27,0-.38a.22.22,0,0,0-.21-.22.23.23,0,0,0-.22.22Z" transform="translate(-0.14)" fill="#7d502a"/><path d="M50.82,69.26l.1.69a.26.26,0,0,0,.2.2h0L51,70h0s0,0,0,.06l0,.09a1.43,1.43,0,0,0,.08.22.21.21,0,0,0,.37-.05c0-.15,0-.3,0-.45l-.13.23h0a.28.28,0,0,0,.13-.32l-.12-.68a.28.28,0,0,0-.34-.2.3.3,0,0,0-.16.13.3.3,0,0,0,0,.21Z" transform="translate(-0.14)" fill="#7d502a"/><path d="M52.44,69.94a2.18,2.18,0,0,0,0,.51,1.11,1.11,0,0,0,0,.17.59.59,0,0,0,.06.14.8.8,0,0,0,.15.21.15.15,0,0,0,.19,0,.19.19,0,0,0,.11-.16s0,0,0,0v0a.28.28,0,0,1,0-.09.45.45,0,0,1,0-.11v.07s0,0,0-.06,0-.06,0-.09,0-.07,0-.1v.08A2.26,2.26,0,0,1,53,70a.28.28,0,0,0-.24-.27.28.28,0,0,0-.18,0,.27.27,0,0,0-.13.17Z" transform="translate(-0.14)" fill="#7d502a"/><path d="M54.72,71.25l0,.3v.15a.69.69,0,0,0,0,.2.22.22,0,0,0,.17.14.17.17,0,0,0,.19-.1s0-.07.05-.1a.51.51,0,0,0,0-.13v-.15l0-.31a.21.21,0,0,0-.06-.17A.26.26,0,0,0,55,71a.24.24,0,0,0-.23.24Z" transform="translate(-0.14)" fill="#7d502a"/><path d="M3.11,40.56A1.76,1.76,0,0,0,3,41a1.13,1.13,0,0,0,0,.26.36.36,0,0,0,.1.28.15.15,0,0,0,.23,0,.23.23,0,0,0,0-.14v-.11a.09.09,0,0,0,0,0v0a.71.71,0,0,0,0-.14V41s0,0,0,0v0a1.46,1.46,0,0,1,0-.2.16.16,0,0,0-.1-.2.16.16,0,0,0-.21.07Z" transform="translate(-0.14)" fill="#7d502a"/><path d="M4.31,41.09a.6.6,0,0,0-.08.29v0s0,0,0,.06a.14.14,0,0,0,0,.06l0,0,0,0a.26.26,0,0,0,.09.09.14.14,0,0,0,.14,0,.13.13,0,0,0,.1-.1s0,0,0-.06v0a.13.13,0,0,1,0-.06v.06s0-.08,0-.11a.17.17,0,0,1,0-.07v.06a.36.36,0,0,1,0-.1l0,0,0,0a.29.29,0,0,0,0-.16.17.17,0,0,0-.1-.12.22.22,0,0,0-.16,0,.2.2,0,0,0-.12.1Z" transform="translate(-0.14)" fill="#7d502a"/><path d="M5,41.63a.8.8,0,0,0-.08.16.67.67,0,0,0-.07.18.66.66,0,0,0,0,.2.36.36,0,0,0,0,.11.23.23,0,0,0,.06.12.13.13,0,0,0,.2,0l0,0v0h0s0,0,0,0,0-.05,0-.07V42s0,0,0,0,0-.08,0-.11h0v-.06a1.24,1.24,0,0,1,0-.16.12.12,0,0,0-.08-.15.13.13,0,0,0-.16.05Z" transform="translate(-0.14)" fill="#7d502a"/><path d="M5.89,42.41a1.86,1.86,0,0,0-.1.31.19.19,0,0,0,0,.07.41.41,0,0,0,0,.11.19.19,0,0,1,0,.08.29.29,0,0,0,0,.09.08.08,0,0,0,.13,0A.41.41,0,0,0,6,43a.31.31,0,0,0,.05-.1s0,0,0-.08,0-.23,0-.34a.12.12,0,0,0-.24,0Z" transform="translate(-0.14)" fill="#7d502a"/><path d="M16.16,49a1.68,1.68,0,0,0-.16.76,2.63,2.63,0,0,0,.06.39.94.94,0,0,0,.22.37.18.18,0,0,0,.23,0,.19.19,0,0,0,.09-.22c0-.1,0-.21-.06-.31l0-.15v0h0s0-.05,0-.08,0-.21,0-.31,0-.1,0,0,0,0,0-.06a1,1,0,0,1,0-.17.22.22,0,0,0-.12-.25.21.21,0,0,0-.27.09Z" transform="translate(-0.14)" fill="#7d502a"/><path d="M18,50.39a0,0,0,0,0,0-.08,0,0,0,0,0,0,.08Z" transform="translate(-0.14)" fill="#7d502a"/><path d="M18.57,50.07a4.33,4.33,0,0,0,0,.72,1.58,1.58,0,0,0,.21.74.19.19,0,0,0,.35-.09.54.54,0,0,0,0-.18s0-.08,0-.12,0,0,0,0l0-.34a4,4,0,0,1,0-.69.25.25,0,0,0-.25-.25.26.26,0,0,0-.26.25Z" transform="translate(-0.14)" fill="#7d502a"/><path d="M19.52,50.24a1.41,1.41,0,0,0-.17.66.93.93,0,0,0,.07.33c0,.06,0,.12.07.17a.53.53,0,0,0,.11.14.15.15,0,0,0,.26-.11.86.86,0,0,0,0-.16.13.13,0,0,1,0-.06s0,0,0,0,0-.18,0-.27v-.19s0,0,0,0v0l0-.13a.14.14,0,0,0,0-.07l0,0s0,0,0,0a.24.24,0,0,0-.08-.32.23.23,0,0,0-.31.08Z" transform="translate(-0.14)" fill="#7d502a"/><path d="M17.08,49.51l0,0,.08-.07a.39.39,0,0,0-.2.22,1.86,1.86,0,0,0-.1.25.58.58,0,0,0-.05.26c0,.08,0,.16,0,.25a.22.22,0,0,0,.42,0,.49.49,0,0,1,0-.11l0,.06a1.21,1.21,0,0,0,.09-.2l0-.17c0-.05,0-.11.05-.16l0,0s0-.06,0-.09a.66.66,0,0,0,0-.14l0,.16v0a.21.21,0,0,0,0-.17.24.24,0,0,0-.09-.13.22.22,0,0,0-.3.08Z" transform="translate(-0.14)" fill="#7d502a"/><path d="M13.25,47.21a0,0,0,0,0,0-.08,0,0,0,0,0,0,.08Z" transform="translate(-0.14)" fill="#7d502a"/><path d="M33.88,29.31a0,0,0,1,0,0-.07,0,0,0,1,0,0,.07Z" transform="translate(-0.14)" fill="#7d502a"/><path d="M34.39,30.49c.31,0,.67-.07,1-.08.17,0,.34,0,.51,0a1.52,1.52,0,0,0,.57-.09.23.23,0,0,0,0-.4,1.14,1.14,0,0,0-.52-.13,4,4,0,0,0-.6,0,10.54,10.54,0,0,0-1.13.1.34.34,0,0,0-.23.4.33.33,0,0,0,.4.22Z" transform="translate(-0.14)" fill="#7d502a"/><path d="M34.45,31.49a1.42,1.42,0,0,0,.46.06l.44,0a2.05,2.05,0,0,0,.89,0,.23.23,0,0,0,.18-.2.25.25,0,0,0-.12-.25,1.17,1.17,0,0,0-.49-.11l-.45,0h-.43a1.91,1.91,0,0,0-.48,0,.25.25,0,0,0-.18.23.26.26,0,0,0,.18.24Z" transform="translate(-0.14)" fill="#7d502a"/><path d="M36.14,32.71h.26a.16.16,0,0,0,.1,0l.08-.05,0,0a.16.16,0,0,0,0-.09v-.07a.16.16,0,0,0,0-.09l0-.05a.26.26,0,0,0-.11-.07l-.23-.09.07,0h0a.24.24,0,0,0-.15,0,.23.23,0,0,0-.14,0l-.06.05a.22.22,0,0,0-.08.13.41.41,0,0,0,0,.11.36.36,0,0,0,0,.11.29.29,0,0,0,.11.11.23.23,0,0,0,.14,0Z" transform="translate(-0.14)" fill="#7d502a"/><path d="M37.89,34.4l.08,0a.23.23,0,0,0,.15-.15.21.21,0,0,0,0-.11.21.21,0,0,0-.06-.1L38,34a.21.21,0,0,0-.12-.07h-.13a.27.27,0,0,0-.18.18.26.26,0,0,0,.31.31Z" transform="translate(-0.14)" fill="#7d502a"/><path d="M32.41,29.06a7.23,7.23,0,0,1,.91-.16l.24,0a1.31,1.31,0,0,0,.28,0l.2,0a.51.51,0,0,0,.27-.06.21.21,0,0,0,0-.36.54.54,0,0,0-.31-.09,2,2,0,0,0-.24,0,2.39,2.39,0,0,0-.53.06,3.47,3.47,0,0,0-1,.3.21.21,0,0,0-.09.27.21.21,0,0,0,.25.12Z" transform="translate(-0.14)" fill="#7d502a"/><path d="M32.71,48.41a1.9,1.9,0,0,1,1.14.23,1.67,1.67,0,0,1,.45.34l.2.24a1.15,1.15,0,0,0,.23.21.14.14,0,0,0,.21-.12.55.55,0,0,0-.1-.35,1.08,1.08,0,0,0-.24-.28,2.13,2.13,0,0,0-1.93-.54c-.14,0-.12.29,0,.27Z" transform="translate(-0.14)" fill="#7d502a"/><path d="M35.58,41.9a.93.93,0,0,0,.45.73c.3.19.67.21,1,.38a1.32,1.32,0,0,1,.57.6,1.27,1.27,0,0,1,.12.39c0,.15,0,.35.14.45a.2.2,0,0,0,.17,0c.14-.07.15-.31.13-.45a1.89,1.89,0,0,0-.13-.48,1.77,1.77,0,0,0-.56-.71,2.45,2.45,0,0,0-1-.37c-.28-.07-.67-.2-.7-.54a.11.11,0,0,0-.22,0Z" transform="translate(-0.14)" fill="#7d502a"/><path d="M2,56.69a4.77,4.77,0,0,0,.54.15l.27.06.14,0h.15l.09,0a.2.2,0,0,0,.07-.27.3.3,0,0,0-.18-.15l-.14,0-.28-.07a5.78,5.78,0,0,0-.6-.11.22.22,0,0,0-.22.2.22.22,0,0,0,.16.25Z" transform="translate(-0.14)" fill="#7d502a"/><path d="M2.22,57.87a4.27,4.27,0,0,0,.84.32,2.73,2.73,0,0,0,.41.1,1.9,1.9,0,0,0,.25,0A.37.37,0,0,0,4,58.23a.24.24,0,0,0,0-.31c-.08-.15-.29-.19-.45-.22l-.41-.09c-.27-.06-.53-.14-.8-.22a.25.25,0,0,0-.31.15.26.26,0,0,0,.11.33Z" transform="translate(-0.14)" fill="#7d502a"/><path d="M2.35,59.18c.28.08.55.16.83.22l.41.1a1.09,1.09,0,0,0,.25,0,2.06,2.06,0,0,0,.26,0,.28.28,0,0,0,.18-.21.27.27,0,0,0-.12-.25.86.86,0,0,0-.23-.13l-.19-.05-.41-.09-.82-.16a.3.3,0,0,0-.36.2.29.29,0,0,0,.2.36Z" transform="translate(-0.14)" fill="#7d502a"/><path d="M2.34,60.42a5.17,5.17,0,0,0,.87.18l.4,0h.21a.36.36,0,0,0,.3-.15L4,60.57l.05,0a.23.23,0,0,0,.16-.18.22.22,0,0,0-.11-.22l0,0,.08.09c-.07-.15-.27-.18-.42-.21a2.59,2.59,0,0,1-.4-.09l-.77-.18a.36.36,0,0,0-.44.25.37.37,0,0,0,.25.44Z" transform="translate(-0.14)" fill="#7d502a"/><path d="M2.28,62.67l.26,0a.67.67,0,0,0,.37,0,.23.23,0,0,0,.17-.16A.26.26,0,0,0,3,62.35l-.15-.09H2.81l-.13,0-.25-.06a.26.26,0,0,0-.21,0,.22.22,0,0,0-.12.16.26.26,0,0,0,0,.21.33.33,0,0,0,.16.12Z" transform="translate(-0.14)" fill="#7d502a"/><path d="M1.89,64l.32.11.15.06a.8.8,0,0,0,.15,0l.15,0H2.58l.19,0a.19.19,0,0,0,.12-.28c0-.06-.08-.1-.12-.15l0,0a.47.47,0,0,0-.14-.14.59.59,0,0,0-.14-.06l-.16-.05-.32-.11a.27.27,0,0,0-.23,0,.25.25,0,0,0-.14.18.29.29,0,0,0,0,.24.32.32,0,0,0,.18.14Z" transform="translate(-0.14)" fill="#7d502a"/><path d="M1.58,66a.67.67,0,0,0,.27.16l.27.11.53.2a4.44,4.44,0,0,0,.52.15.85.85,0,0,0,.63,0,.2.2,0,0,0,0-.31A1,1,0,0,0,3.31,66l-.51-.13-.5-.16a1.94,1.94,0,0,0-.55-.17.25.25,0,0,0-.17.42Z" transform="translate(-0.14)" fill="#7d502a"/><path d="M1.77,67.73A6.39,6.39,0,0,0,2.6,68l.4.1a1.15,1.15,0,0,0,.26,0h.11a.41.41,0,0,0,.19-.05.28.28,0,0,0,.06-.43,1,1,0,0,0-.45-.17,2.88,2.88,0,0,1-.4-.09A7.67,7.67,0,0,1,2,67.21a.27.27,0,0,0-.33.17.28.28,0,0,0,.11.35Z" transform="translate(-0.14)" fill="#7d502a"/><path d="M2,69.15a4.35,4.35,0,0,0,.79.36l.85.34.82.31.41.14a.78.78,0,0,0,.45.07.23.23,0,0,0,.13-.32.77.77,0,0,0-.38-.25l-.44-.17-.81-.32L3,69a3.49,3.49,0,0,0-.89-.26c-.22,0-.25.27-.1.38Z" transform="translate(-0.14)" fill="#7d502a"/><path d="M48.65,89l0,0L48.6,89a.45.45,0,0,0,.26.19l.27.12.54.22.5.19c.21.08.54.22.66-.06a.31.31,0,0,0-.15-.38,2,2,0,0,0-.31-.13L49.86,89l-.52-.17-.27-.09a.5.5,0,0,0-.34,0h.09a.24.24,0,0,0-.26.13.21.21,0,0,0,.09.26Z" transform="translate(-0.14)" fill="#7d502a"/><path d="M49.44,88.61a2.88,2.88,0,0,0,.59.18l.35.06h.18a.36.36,0,0,0,.23-.13.23.23,0,0,0,0-.28.43.43,0,0,0-.21-.17.75.75,0,0,0-.21,0l-.15,0h-.09c-.2,0-.39-.08-.59-.13a.27.27,0,0,0-.3.39.33.33,0,0,0,.16.12Z" transform="translate(-0.14)" fill="#7d502a"/><path d="M49.93,87.26l.21,0,.1,0,.16,0a.34.34,0,0,0,.14,0,.2.2,0,0,0,.08-.12.24.24,0,0,0-.1-.26,1.21,1.21,0,0,0-.25-.08l-.21,0a.32.32,0,0,0-.19,0,.23.23,0,0,0-.08.33.22.22,0,0,0,.14.11Z" transform="translate(-0.14)" fill="#7d502a"/><path d="M49.85,85.35a2.07,2.07,0,0,0,.54.26.92.92,0,0,0,.33.06h.13a.53.53,0,0,0,.18-.05.31.31,0,0,0,.13-.17l-.11.14a.23.23,0,0,0,.14-.21.2.2,0,0,0-.06-.15.21.21,0,0,0-.1-.06h0l.11.14a.31.31,0,0,0-.18-.19.58.58,0,0,0-.18,0h.08l-.23,0h.08a1.89,1.89,0,0,1-.34-.09s-.11,0,0,0l-.07,0-.16-.09a.28.28,0,0,0-.38.1.3.3,0,0,0,0,.21.43.43,0,0,0,.13.17Z" transform="translate(-0.14)" fill="#7d502a"/><path d="M49.86,84a4.16,4.16,0,0,0,1,.29,4.6,4.6,0,0,0,.52.06h.23a.47.47,0,0,0,.36-.13.28.28,0,0,0,0-.4.67.67,0,0,0-.18-.11l-.15,0H51s0,0,0,0a6.74,6.74,0,0,1-.89-.2.31.31,0,0,0-.36.17.31.31,0,0,0,.12.39Z" transform="translate(-0.14)" fill="#7d502a"/><path d="M49.26,81.86c.44.07.87.16,1.3.27l.65.16.14,0,.12,0a.2.2,0,0,0,.11,0,.94.94,0,0,0,.29,0,.14.14,0,0,0,.06-.23,1.53,1.53,0,0,0-.22-.16.19.19,0,0,0-.1-.1l-.11,0-.13-.05a4.71,4.71,0,0,0-.64-.19c-.43-.11-.86-.2-1.3-.27a.32.32,0,0,0-.17.61Z" transform="translate(-0.14)" fill="#7d502a"/><path d="M39.32,14.49a15.85,15.85,0,0,0,2.06-2.62l1.89-2.72c1.22-1.77,2.4-3.6,3.5-5.46.53-.88,1.52-2.1.89-3.14A1.28,1.28,0,0,0,46.07.11a4,4,0,0,0-1.38,1.38C43.37,3.21,42.12,5,40.87,6.76c-.68,1-1.32,2-2,3l-1,1.54a10.38,10.38,0,0,0-.94,1.85,1.43,1.43,0,0,0,2.38,1.39Z" transform="translate(-0.14)" fill="#faf0dd"/><path d="M44.77,21.77a24.71,24.71,0,0,0,4.44-1.35c1.42-.49,2.85-.93,4.31-1.33s2.9-.76,4.36-1.14c.7-.18,1.4-.35,2.11-.5a3.06,3.06,0,0,0,2.24-1.12,1.32,1.32,0,0,0-.47-1.78C61,14,60,14.27,59.15,14.39c-.72.1-1.45.2-2.17.32a35.94,35.94,0,0,0-4.69,1.12c-2.95.9-6.32,1.86-8.74,3.85a1.27,1.27,0,0,0-.19,1.52,1.31,1.31,0,0,0,1.41.57Z" transform="translate(-0.14)" fill="#faf0dd"/></g></g></svg>