<svg xmlns="http://www.w3.org/2000/svg" viewBox="0 0 79.12 61.56"><g style="isolation:isolate"><g id="Layer_2" data-name="Layer 2"><g id="OBJECTS"><path d="M37.41,61.29a30.32,30.32,0,1,1,32-28.51A30.33,30.33,0,0,1,37.41,61.29Z" fill="#29110f" opacity="0.34" style="mix-blend-mode:multiply"/><g id="coffee"><circle cx="42.87" cy="29" r="29" transform="translate(9.26 68.36) rotate(-83.58)" fill="#fff"/><path d="M24.76,7.08l-9.41-.31A1.88,1.88,0,0,0,13.5,9.23l3.06,9.28" fill="#fff"/><path d="M68,28.33A25.18,25.18,0,0,0,29,8a3.7,3.7,0,0,1-2.17.63L16.71,8.18a1.44,1.44,0,0,0-1.42,1.89l3.28,10a3.78,3.78,0,0,1,0,2.21A25.18,25.18,0,0,0,40.68,54.08,25.18,25.18,0,0,0,68,28.33Z" fill="#faf0dd"/><path d="M61.16,50.44l10.53,8a4.47,4.47,0,0,0,6.24-.87h0a4.47,4.47,0,0,0-.87-6.25L66.87,43.58A29.26,29.26,0,0,1,61.16,50.44Z" fill="#fff"/><circle cx="42.87" cy="29" r="21.73" transform="translate(-8.76 25.36) rotate(-30.04)" fill="#cf9946"/><path d="M53.16,39.29a3.15,3.15,0,0,0,5.45.24,19.08,19.08,0,0,0-24.4-27.46,3.13,3.13,0,0,0-.36,5.43c3.41,2.27,8.24,5.75,11.19,9.07S51.17,35.48,53.16,39.29Z" fill="#cf9946" opacity="0.47" style="mix-blend-mode:screen"/><path d="M78.58,58h0a4.14,4.14,0,0,0,.54-1,.41.41,0,0,1-.07.11h0a4.46,4.46,0,0,1-6.24.87L62.53,50.3,61.8,51l10.53,7.95A4.48,4.48,0,0,0,78.58,58Z" fill="#e3e3e3" style="mix-blend-mode:multiply"/></g><path d="M43.47,35.26c-1.32-1.86-3.48-3-5.11-4.63-1.83-1.76-3.31-3.91-5.45-5.29-3.58-2.31-7.35.18-8.1,3.94-1.36,6.81,6.73,16.12,13.35,16.63C44.19,46.38,46.58,39.62,43.47,35.26Z" fill="#cf9946" opacity="0.47" style="mix-blend-mode:screen"/><g opacity="0.4" style="mix-blend-mode:multiply"><path d="M39.62,25.84a.24.24,0,0,0,0-.22.17.17,0,0,0-.14-.09s0,0,0,0l-.07,0a.2.2,0,0,0-.2.12.27.27,0,0,0,.11.36A.23.23,0,0,0,39.62,25.84Z" fill="#63251a"/><path d="M44.08,18.88a.32.32,0,0,0-.27,0,.23.23,0,0,0-.17.23.59.59,0,0,0,0,.13.29.29,0,0,0,.48.07C44.27,19.17,44.28,19,44.08,18.88Z" fill="#63251a"/><path d="M48.94,20.82a.63.63,0,0,0,.11-.47c0-.14-.23-.14-.32-.05a1.25,1.25,0,0,0-.24.34.17.17,0,0,0,0,.21.11.11,0,0,0,.13.07h0A.3.3,0,0,0,48.94,20.82Z" fill="#63251a"/><path d="M41.64,17.8a.32.32,0,0,0-.42-.36l0,0a.43.43,0,0,0-.24.33.28.28,0,0,0,.23.37A.43.43,0,0,0,41.64,17.8Z" fill="#63251a"/><path d="M42.22,12.23c.2.38.82.1.82-.3a.16.16,0,0,0-.12-.16c-.18,0-.51,0-.64.12A.33.33,0,0,0,42.22,12.23Z" fill="#63251a"/><path d="M36.93,13.37a.18.18,0,0,0-.23-.17c-.31.08-.56.24-.44.52a.27.27,0,0,0,.29.11A.46.46,0,0,0,36.93,13.37Z" fill="#63251a"/><path d="M36.13,17.73a1.53,1.53,0,0,0,0-.37.2.2,0,0,0-.14-.13.52.52,0,0,0-.6.56C35.45,18.16,36.05,18.06,36.13,17.73Z" fill="#63251a"/><path d="M43.76,15.2c-.21-.42-1,0-.73.43S44,15.61,43.76,15.2Z" fill="#63251a"/><path d="M46.15,22.88a.23.23,0,0,0-.25-.34c-.23.06-.4.14-.46.35a.11.11,0,0,0,.06.14A.47.47,0,0,0,46.15,22.88Z" fill="#63251a"/><path d="M47.45,37.89a.44.44,0,0,0,.14-.55.63.63,0,0,0-.5-.32.42.42,0,0,0-.36.12.56.56,0,0,0-.14.29.51.51,0,0,0,.24.54.55.55,0,0,0,.59-.06Z" fill="#63251a"/><path d="M43.9,39.5a.39.39,0,0,0-.13-.42.3.3,0,0,0-.46.09c-.06.1,0,.2-.07.31C43.16,39.84,43.84,39.87,43.9,39.5Z" fill="#63251a"/><path d="M50.34,34.76a.27.27,0,0,0-.39-.14c-.13.1-.29.12-.39.25s.08.47.36.45A.45.45,0,0,0,50.34,34.76Z" fill="#63251a"/><path d="M46.54,42.26l0,0a.87.87,0,0,0-.56-.2c-.29,0-.46.24-.36.46a.59.59,0,0,0,.66.27C46.51,42.71,46.69,42.44,46.54,42.26Z" fill="#63251a"/><path d="M42.7,33.59a.18.18,0,0,0-.32-.08,1.3,1.3,0,0,0-.15.2.38.38,0,0,0,0,.27c0,.05.07.09.13.07a.5.5,0,0,0,.27-.14A.46.46,0,0,0,42.7,33.59Z" fill="#63251a"/><path d="M47.93,31.46c0-.37-.77-.23-.68.13,0,.12.07.21.2.26a.33.33,0,0,0,.4-.07A.33.33,0,0,0,47.93,31.46Z" fill="#63251a"/><path d="M49.44,28.81c.05-.2-.16-.31-.36-.19a.64.64,0,0,0-.24.32.15.15,0,0,0,0,.17.16.16,0,0,0,.09.05.22.22,0,0,0,.21,0A.79.79,0,0,0,49.44,28.81Z" fill="#63251a"/><path d="M40.5,36.62l-.07,0a.25.25,0,0,0,.1.48h.07C41.12,37.09,41,36.46,40.5,36.62Z" fill="#63251a"/><path d="M36.92,30a.3.3,0,0,0-.37,0,.36.36,0,0,0,.11.52.28.28,0,0,0,.35-.11A.31.31,0,0,0,36.92,30Z" fill="#63251a"/></g><path d="M39.83,25.79a.22.22,0,0,0,0-.21.21.21,0,0,0-.14-.1h0a.1.1,0,0,0-.07,0,.2.2,0,0,0-.2.12.27.27,0,0,0,.11.36A.23.23,0,0,0,39.83,25.79Z" fill="#3c3c3a"/><path d="M44.29,18.83a.32.32,0,0,0-.27,0,.23.23,0,0,0-.17.23.35.35,0,0,0,0,.13.27.27,0,0,0,.47.06A.26.26,0,0,0,44.29,18.83Z" fill="#3c3c3a"/><path d="M49.15,20.77a.6.6,0,0,0,.11-.46c0-.14-.23-.14-.32,0a1.07,1.07,0,0,0-.24.33.18.18,0,0,0,0,.22.11.11,0,0,0,.13.07h0A.29.29,0,0,0,49.15,20.77Z" fill="#3c3c3a"/><path d="M41.85,17.76a.32.32,0,0,0-.42-.36s0,0,0,0a.41.41,0,0,0-.24.33.28.28,0,0,0,.23.37A.42.42,0,0,0,41.85,17.76Z" fill="#3c3c3a"/><path d="M42.44,12.18c.19.39.81.11.81-.29a.15.15,0,0,0-.12-.16c-.18,0-.51-.05-.64.12A.29.29,0,0,0,42.44,12.18Z" fill="#3c3c3a"/><path d="M37.14,13.33a.18.18,0,0,0-.23-.17c-.31.08-.56.24-.44.52a.27.27,0,0,0,.29.1A.45.45,0,0,0,37.14,13.33Z" fill="#3c3c3a"/><path d="M36.34,17.68a1.45,1.45,0,0,0,0-.36.19.19,0,0,0-.14-.13.52.52,0,0,0-.6.56C35.66,18.12,36.26,18,36.34,17.68Z" fill="#3c3c3a"/><path d="M44,15.16c-.21-.42-1,0-.73.43S44.18,15.57,44,15.16Z" fill="#3c3c3a"/><path d="M46.37,22.83a.23.23,0,0,0-.26-.33c-.23.06-.4.14-.46.35a.11.11,0,0,0,.06.14A.48.48,0,0,0,46.37,22.83Z" fill="#3c3c3a"/><path d="M47.66,37.84a.42.42,0,0,0,.14-.54.63.63,0,0,0-.5-.32.42.42,0,0,0-.36.12.56.56,0,0,0-.14.29.49.49,0,0,0,.24.53.53.53,0,0,0,.59-.05Z" fill="#3c3c3a"/><path d="M44.11,39.46A.41.41,0,0,0,44,39a.31.31,0,0,0-.45.09.94.94,0,0,0-.08.32C43.37,39.8,44.05,39.82,44.11,39.46Z" fill="#3c3c3a"/><path d="M50.55,34.72c0-.17-.27-.22-.39-.14s-.29.12-.38.25.08.46.35.45A.45.45,0,0,0,50.55,34.72Z" fill="#3c3c3a"/><path d="M46.75,42.22s0,0,0,0a.62.62,0,0,0-.16-.1.74.74,0,0,0-.4-.1c-.29,0-.47.24-.37.46a.59.59,0,0,0,.66.27C46.72,42.67,46.9,42.4,46.75,42.22Z" fill="#3c3c3a"/><path d="M42.91,33.55a.18.18,0,0,0-.32-.08,1.49,1.49,0,0,0-.15.2.37.37,0,0,0,0,.27c0,.05.07.08.13.07a.43.43,0,0,0,.27-.15A.42.42,0,0,0,42.91,33.55Z" fill="#3c3c3a"/><path d="M48.14,31.42c0-.38-.77-.23-.68.13,0,.12.07.21.21.26a.32.32,0,0,0,.39-.08A.3.3,0,0,0,48.14,31.42Z" fill="#3c3c3a"/><path d="M49.65,28.77c.06-.2-.16-.32-.36-.2a.71.71,0,0,0-.24.33.15.15,0,0,0,0,.17.2.2,0,0,0,.09.05.25.25,0,0,0,.21,0A.79.79,0,0,0,49.65,28.77Z" fill="#3c3c3a"/><path d="M40.71,36.58l-.07,0a.25.25,0,0,0,.1.48h.07C41.33,37.05,41.21,36.42,40.71,36.58Z" fill="#3c3c3a"/><path d="M37.13,29.94a.29.29,0,0,0-.37,0,.36.36,0,0,0,.11.52.3.3,0,0,0,.35-.11A.29.29,0,0,0,37.13,29.94Z" fill="#3c3c3a"/><g opacity="0.4" style="mix-blend-mode:multiply"><path d="M46.63,30.86a.29.29,0,0,0,0,.27.25.25,0,0,0,.14.16h0l.09,0a.26.26,0,0,0,.28-.08.35.35,0,0,0,0-.48A.28.28,0,0,0,46.63,30.86Z" fill="#63251a"/><path d="M39.12,37.91a.35.35,0,0,0,.32.06.27.27,0,0,0,.28-.22.43.43,0,0,0,0-.16.34.34,0,0,0-.55-.23C39,37.5,38.9,37.75,39.12,37.91Z" fill="#63251a"/><path d="M33.83,34.09a.78.78,0,0,0-.27.53c0,.18.24.24.37.15a1.14,1.14,0,0,0,.39-.33.21.21,0,0,0,0-.27.15.15,0,0,0-.14-.12l0,0A.38.38,0,0,0,33.83,34.09Z" fill="#63251a"/><path d="M41.74,40a.4.4,0,0,0,.4.56.09.09,0,0,0,0,0,.53.53,0,0,0,.4-.32.36.36,0,0,0-.17-.52A.52.52,0,0,0,41.74,40Z" fill="#63251a"/><path d="M39.34,46.51c-.12-.52-1-.37-1.07.11a.19.19,0,0,0,.09.23c.21.1.6.22.81,0A.37.37,0,0,0,39.34,46.51Z" fill="#63251a"/><path d="M46.08,46.74a.23.23,0,0,0,.24.27c.39,0,.75-.12.68-.49a.32.32,0,0,0-.31-.22A.58.58,0,0,0,46.08,46.74Z" fill="#63251a"/><path d="M48.38,41.72a1.58,1.58,0,0,0-.11.44.21.21,0,0,0,.12.19.64.64,0,0,0,.9-.49C49.33,41.4,48.58,41.34,48.38,41.72Z" fill="#63251a"/><path d="M38.39,42.45c.12.57,1.22.27,1-.3S38.27,41.89,38.39,42.45Z" fill="#63251a"/><path d="M37.82,32.45a.28.28,0,0,0,.22.48.68.68,0,0,0,.66-.28.14.14,0,0,0,0-.19A.59.59,0,0,0,37.82,32.45Z" fill="#63251a"/><path d="M40.82,13.91a.54.54,0,0,0-.34.62.8.8,0,0,0,.51.54.55.55,0,0,0,.47,0,.65.65,0,0,0,.26-.31A.63.63,0,0,0,41.6,14a.71.71,0,0,0-.74-.11Z" fill="#63251a"/><path d="M45.6,13a.5.5,0,0,0,0,.55.37.37,0,0,0,.57,0c.11-.11.12-.24.19-.36C46.59,12.86,45.78,12.62,45.6,13Z" fill="#63251a"/><path d="M36.38,16.82c0,.2.26.34.43.28s.38-.05.54-.19,0-.58-.3-.65A.55.55,0,0,0,36.38,16.82Z" fill="#63251a"/><path d="M43.25,8.91c0-.06,0,0,0,.06a.85.85,0,0,0,.16.17.93.93,0,0,0,.46.24.43.43,0,0,0,.59-.44c-.06-.32-.37-.47-.72-.52S43.12,8.64,43.25,8.91Z" fill="#63251a"/><path d="M45.26,20.54a.21.21,0,0,0,.35.2,1.69,1.69,0,0,0,.25-.2.44.44,0,0,0,.14-.3c0-.06-.06-.13-.13-.13a.55.55,0,0,0-.61.43Z" fill="#63251a"/><path d="M38.28,21.53c-.05.47.87.51.86,0A.41.41,0,0,0,39,21.2a.44.44,0,0,0-.7.33Z" fill="#63251a"/><path d="M35.66,24.28c-.13.22.1.43.37.34a.86.86,0,0,0,.39-.31.18.18,0,0,0,0-.23.18.18,0,0,0-.09-.08.32.32,0,0,0-.27,0A.92.92,0,0,0,35.66,24.28Z" fill="#63251a"/><path d="M48.83,17.55h.09a.31.31,0,0,0,0-.62h-.09C48.23,16.8,48.19,17.59,48.83,17.55Z" fill="#63251a"/><path d="M51.14,26.66a.37.37,0,0,0,.46.08.45.45,0,0,0,0-.66.35.35,0,0,0-.46,0A.37.37,0,0,0,51.14,26.66Z" fill="#63251a"/></g><path d="M46.85,31.06a.29.29,0,0,0,0,.27.21.21,0,0,0,.14.16,0,0,0,0,0,0,0l.09,0a.26.26,0,0,0,.28-.09.34.34,0,0,0,0-.47A.28.28,0,0,0,46.85,31.06Z" fill="#f0edea"/><path d="M39.34,38.12a.35.35,0,0,0,.32.06.27.27,0,0,0,.28-.22.49.49,0,0,0,0-.17.34.34,0,0,0-.55-.22C39.2,37.71,39.12,38,39.34,38.12Z" fill="#f0edea"/><path d="M34.05,34.3a.76.76,0,0,0-.27.53c0,.17.24.24.37.15a1.27,1.27,0,0,0,.39-.33.21.21,0,0,0,0-.27.14.14,0,0,0-.14-.12l0,0A.38.38,0,0,0,34.05,34.3Z" fill="#f0edea"/><path d="M42,40.16a.4.4,0,0,0,.4.56l0,0a.53.53,0,0,0,.4-.32.37.37,0,0,0-.17-.53A.53.53,0,0,0,42,40.16Z" fill="#f0edea"/><path d="M39.56,46.72c-.12-.53-1-.37-1.07.11a.19.19,0,0,0,.09.23c.21.1.6.22.81,0A.37.37,0,0,0,39.56,46.72Z" fill="#f0edea"/><path d="M46.3,46.94a.23.23,0,0,0,.24.28c.39,0,.75-.12.68-.5a.32.32,0,0,0-.31-.21A.58.58,0,0,0,46.3,46.94Z" fill="#f0edea"/><path d="M48.6,41.92a1.67,1.67,0,0,0-.11.44.23.23,0,0,0,.12.2.64.64,0,0,0,.9-.49C49.55,41.6,48.8,41.54,48.6,41.92Z" fill="#f0edea"/><path d="M38.61,42.66c.12.57,1.22.26,1-.3S38.49,42.1,38.61,42.66Z" fill="#f0edea"/><path d="M38,32.65a.28.28,0,0,0,.22.48.69.69,0,0,0,.66-.27.15.15,0,0,0,0-.2A.6.6,0,0,0,38,32.65Z" fill="#f0edea"/><path d="M41,14.12c-.24.13-.43.36-.34.61a.77.77,0,0,0,.51.54.55.55,0,0,0,.47,0,.7.7,0,0,0,.26-.31.63.63,0,0,0-.12-.72.71.71,0,0,0-.74-.11Z" fill="#f0edea"/><path d="M45.82,13.24a.52.52,0,0,0,0,.56.37.37,0,0,0,.57,0c.11-.11.12-.24.19-.36C46.81,13.06,46,12.82,45.82,13.24Z" fill="#f0edea"/><path d="M36.6,17c0,.21.26.35.43.28s.38-.05.54-.18,0-.58-.3-.65A.55.55,0,0,0,36.6,17Z" fill="#f0edea"/><path d="M43.47,9.11s0,0,0,.07a.81.81,0,0,0,.16.16.94.94,0,0,0,.46.25.43.43,0,0,0,.59-.44c-.06-.33-.37-.48-.72-.53S43.34,8.85,43.47,9.11Z" fill="#f0edea"/><path d="M45.48,20.75a.22.22,0,0,0,.35.2,1.69,1.69,0,0,0,.25-.2.49.49,0,0,0,.14-.31c0-.06-.06-.12-.13-.12a.54.54,0,0,0-.38.09A.57.57,0,0,0,45.48,20.75Z" fill="#f0edea"/><path d="M38.5,21.74c0,.46.87.51.86,0a.4.4,0,0,0-.16-.37.42.42,0,0,0-.5,0A.44.44,0,0,0,38.5,21.74Z" fill="#f0edea"/><path d="M35.88,24.49c-.13.22.1.42.37.34a.88.88,0,0,0,.39-.32.17.17,0,0,0,0-.22.26.26,0,0,0-.09-.09.32.32,0,0,0-.27,0A.85.85,0,0,0,35.88,24.49Z" fill="#f0edea"/><path d="M49.05,17.75h.09a.31.31,0,0,0,0-.62l-.09,0C48.45,17,48.41,17.8,49.05,17.75Z" fill="#f0edea"/><path d="M51.36,26.87a.37.37,0,0,0,.46.08.45.45,0,0,0,0-.66.35.35,0,0,0-.46,0A.37.37,0,0,0,51.36,26.87Z" fill="#f0edea"/><path d="M27.81,60.87c-5.62-.79-11.11-4.75-14.91-8.79C8.44,47.34,6.35,40.41,6.3,34A45.64,45.64,0,0,1,8.17,21.66c.11-.39-1.38-.18-1.5.24C4.74,29,3.92,36.41,6.31,43.54a24.27,24.27,0,0,0,4.49,8.34A32.66,32.66,0,0,0,18,58a22.79,22.79,0,0,0,8.81,3.59c.38.06,1.76-.57,1-.68Z" fill="#faf0dd"/><path d="M9.23,55.8A15.24,15.24,0,0,1,1.87,39.37c.1-.43-1.4-.2-1.5.23A15.52,15.52,0,0,0,7.81,56.35a1.27,1.27,0,0,0,1,0c.08,0,.7-.36.43-.51Z" fill="#faf0dd"/></g></g></g></svg>