<svg xmlns="http://www.w3.org/2000/svg" viewBox="0 0 70.09 60.91"><g id="Layer_2" data-name="Layer 2"><g id="Layer_4" data-name="Layer 4"><path d="M3.46,46c-.1.55-.16.9-.23,1.3-.19-.1-.35-.13-.42-.23A12.62,12.62,0,0,1,.94,42.33,57.34,57.34,0,0,1,0,34.2a9.25,9.25,0,0,1,1.05-5c1-1.72,1.1-3.69,1.93-5.43.26-.54.49-1.11.7-1.67.16-.4.26-.76.81-.81.26,0,.52-.36.71-.61.76-1,1.43-2.14,2.26-3.12A71.18,71.18,0,0,1,20.26,5.93a31.33,31.33,0,0,1,3.11-2.17A16.15,16.15,0,0,1,27.11,2c.85-.23,1.68-.58,1.71-1.63a5.12,5.12,0,0,1,3.77,0c1.78.79,4.06.89,5.09,3,1.43.66,1.57,2.13,1.88,3.36a16.18,16.18,0,0,1,.18,2c0,.2.14.49.29.55.9.35.67.91.27,1.43a2.31,2.31,0,0,0-.17,2.95,3.25,3.25,0,0,1,.25,1.12,2.08,2.08,0,0,1,2.1,1.8,1.27,1.27,0,0,1,.05.66,2.76,2.76,0,0,0,.3,2.52A16.12,16.12,0,0,0,46,24.13c.16.16.41.32.44.52.23,1.31,1.3,1.94,2.17,2.74a3.71,3.71,0,0,1,1.51,2.83,14.49,14.49,0,0,0,.22,1.92c.22.1.64.16.86.4a22.21,22.21,0,0,1,1.54,1.94,21.43,21.43,0,0,0,2.41,3.2c1.62,1.45,2.24,3.57,3.75,5a16.72,16.72,0,0,1,2.49,3.8,6,6,0,0,1,.54,1.69,5.89,5.89,0,0,0,1.61,2.7c.25.27.52.52.75.8.81,1,.8,1,.17,2.08,0,.06,0,.18,0,.35.72.21,1.47.4,2.19.65s1.16.41,1.38,1.28c.15.56.58,1,.38,1.72a8.32,8.32,0,0,0,0,2.11,3.08,3.08,0,0,1-2.33.75,2.89,2.89,0,0,0-1,.1c-1.51.43-2.94-.13-4.37-.38a22,22,0,0,1-3.11-1.14c-1.8-.58-3.61-1.18-5.44-1.65A25.8,25.8,0,0,0,49,57.21c-.73-.09-1.47-.16-2.19-.28l-5.87-1c-.23,0-.56,0-.67-.13-1-1.13-2.47-.95-3.7-1.39-.18-.06-.49,0-.52-.15-.56-1.68-2.28-1.13-3.4-1.7a4.79,4.79,0,0,0-3.55-.21,2.58,2.58,0,0,1-2.54-.67,8,8,0,0,0-2.95-1q-3.41-1-6.81-1.9c-.67-.18-1.36-.26-2-.39a11.79,11.79,0,0,1-3.5-.8,2.09,2.09,0,0,0-2,.21,2.06,2.06,0,0,1-2.09-.05c-.81-.44-1.65-.84-2.48-1.24C4.31,46.27,4,46.16,3.46,46Zm59,13.49,1.73.18A1.14,1.14,0,0,0,65.5,59c.25-.48.88-.75,1.33-1.14.26-.22.72-.52.69-.71a1.42,1.42,0,0,0-.69-.91A6,6,0,0,0,65,55.78a25.49,25.49,0,0,1-3.16-.09,41.17,41.17,0,0,1-5.09-1.38,2.13,2.13,0,0,1-1.12-1.09,7.61,7.61,0,0,1-.1-5A3.35,3.35,0,0,1,56,46.78c.78-.82,1.68-1.53,2.67-2.4-.8-1.07-1.59-2.17-2.43-3.24A15.17,15.17,0,0,0,54.41,39c-.83-.72-1.82-1.25-2.69-1.93a3.23,3.23,0,0,1-.8-1.11c-.26-.54-.39-1.15-.63-1.7-.14-.32-.33-.72-.61-.84-.73-.33-.7-.9-.7-1.52s0-1.17-.06-1.69l-1.48-.48a1.63,1.63,0,0,1,0-.45,1.3,1.3,0,0,0-.61-1.77c-.66-.45-1.15-.06-1.63.29a18.69,18.69,0,0,0-3.12,2.42,6.19,6.19,0,0,1-3,1.53,4.67,4.67,0,0,1-2.58.33,21.62,21.62,0,0,1-3.88-1.17,10.46,10.46,0,0,1-3.87-2.86,5.78,5.78,0,0,1-.09-6.25,9.87,9.87,0,0,1,2.67-2.35,23.53,23.53,0,0,1,5.18-2.26,10.31,10.31,0,0,1,2.12-.3c-.07-1.24.34-2.45-.38-3.58l-1-.52c-1.36.85-2.54,1.65-3.78,2.34-.85.47-1.85.67-2.65,1.19q-3,1.91-5.81,4A7.63,7.63,0,0,0,22.43,23c-.89,1.77-2.1,3.37-3.16,5.05a1.57,1.57,0,0,0-.21.5c-.14.58-.21,1.18-.4,1.75-.88,2.68-1.69,5.4-2.72,8a45.08,45.08,0,0,0-1.95,6,11,11,0,0,0,1.24.62c2.19.74,4.37,1.53,6.6,2.16A5.41,5.41,0,0,1,24,48.29a9,9,0,0,0,6.26,2.34,4.75,4.75,0,0,0,0-.77c-.47-3.11.92-5.64,2.7-7.94a15.07,15.07,0,0,1,3.28-2.75,6.06,6.06,0,0,1,7.17,0,12.53,12.53,0,0,1,4.47,5.17,6.57,6.57,0,0,1,.55,4.07,8.35,8.35,0,0,1-.76,1.87,8.57,8.57,0,0,1-2.89,4,5.18,5.18,0,0,0-.78.85l3.43.69c2.23.44,4.45.93,6.68,1.33s4.75.8,7.14,1.14C62,58.38,62.38,58.75,62.42,59.46ZM36.12,6.28c0-.48-.19-.84-.09-1.11A1,1,0,0,0,35.58,4c-2.72-2.13-5.52-2.65-8.64-.82C25.51,4,24.21,5.05,22.78,5.9c-.69.41-1.57.5-1.71,1.52a.85.85,0,0,1-.35.41c-.68.49-1.38,1-2,1.45-1.76,1.27-3.74,2.26-5,4.09a5.8,5.8,0,0,1-.47.52c-.78.83-1.58,1.65-2.34,2.5s-1.89,1.45-1.71,2.86c0,.1-.18.2-.25.32-.58.95-1.22,1.88-1.72,2.87C6.06,24.55,5,26.69,4,28.84a1.46,1.46,0,0,0-.13,1.07,2.35,2.35,0,0,1-.28,2,25.2,25.2,0,0,0-1.14,2.69,11.47,11.47,0,0,0,0,6.54c.7,2.44.68,2.45,3.19,3.11.61.16,1.22.29,2,.47a33.53,33.53,0,0,0,0-4c-.4-3.28,1-6.15,2.33-8.87,1-2,1.49-4.38,3.08-6.16a18.53,18.53,0,0,0,1.38-2.23,33.48,33.48,0,0,1,2.06-2.93c.34-.41,1-.53,1.39-.92a30.79,30.79,0,0,0,3.69-4,20.54,20.54,0,0,1,2.31-2.37l.24.55c.33-.23.66-.45,1-.7a29,29,0,0,0,2.37-1.9c1-1,1.82-2.19,3.48-2.07.19,0,.4-.21.61-.32Zm.7,1.51c-.37.07-.74.09-1.09.19-3.25.94-5.66,3.27-8.38,5.09-.38.25-.64.66-1,.94-.9.7-1.9,1.28-2.72,2.06-1.17,1.1-2.2,2.36-3.32,3.51-.68.69-1.45,1.27-2.14,1.94a28,28,0,0,0-5.11,7.23c-.26.49-.83.88-.92,1.38-.42,2.22-1.61,4.23-1.65,6.57a30,30,0,0,1-.64,4.39c-.23,1.35-.47,2.7-.73,4.2,1-.07,1.81.68,2.85.16.18-1,.47-2,.56-3a38.89,38.89,0,0,1,1.68-7.86,13.47,13.47,0,0,1,.58-2.14c.88-1.74,1.85-3.43,2.8-5.13.8-1.46,1.58-2.93,2.46-4.34.56-.92,1-2,2.27-2.27a.93.93,0,0,0,.46-.3c1-1.09,2-2.2,3.09-3.27s2-1.9,3-2.92c.24.39.44.7.62,1l5.83-3.52c.84.83,1.37-.26,2.14-.16C37.26,10.23,37.06,9.12,36.82,7.79ZM47.05,47.91A8.54,8.54,0,0,0,42.53,41,4,4,0,0,0,40,40.66a7.8,7.8,0,0,0-1.36.27c-1.66.49-3.28,1.07-4.21,2.69a14.44,14.44,0,0,0-1.55,3.06,4,4,0,0,0,0,2.72,6.3,6.3,0,0,0,3.27,3.37c1.09.4,2.16.83,3.26,1.2a22.46,22.46,0,0,0,2.67.74,1.6,1.6,0,0,0,1.12-.25,14.59,14.59,0,0,0,1.44-1.29A7.06,7.06,0,0,0,47.05,47.91ZM39.68,18.5A14.34,14.34,0,0,0,31,21.06c-3,2.13-3,5.8.06,7.77a19.26,19.26,0,0,0,2.75,1.31,1.93,1.93,0,0,0,.94.18c1.34-.1,2.69-.18,4-.4s2.75-.53,3.49-1.94c.09-.18.35-.27.52-.42.37-.32.76-.63,1.11-1s.36-.85-.12-1.3a16.92,16.92,0,0,1-2-2.2c-.7-1-1.16-2.13-1.95-3A1.06,1.06,0,0,1,39.68,18.5ZM58.43,46.74a4.09,4.09,0,0,0-1.66,2.44c-.79,2.21,1.08,4.2,2.69,4.55a19.24,19.24,0,0,0,3.88.05C62.51,50.82,60.36,48.88,58.43,46.74ZM13.29,45.9c.68.31,1.12.63,1.83.08C14.47,45.82,14.09,45.28,13.29,45.9Zm18,4.52.27-.11L31,48.89l-.27.1C30.94,49.47,31.11,50,31.28,50.42ZM3,27.26c.81-1.08.81-1.08.65-2C3.45,25.93,3.27,26.46,3,27.26Z" fill="#fff"/><path d="M13.85,54.87c.28-.21.43-.41.61-.44a9.32,9.32,0,0,1,1.4-.06A4.43,4.43,0,0,0,18.13,54a6,6,0,0,1,2.62-.22c1.37,0,2.74.19,4.11.29v.3H20.14c1.91,1.44,4.05.49,6.05,1.35-.4.25-.63.54-.87.53a21.93,21.93,0,0,1-3.62-.22,28.16,28.16,0,0,0-7.26-.91C14.3,55.17,14.15,55,13.85,54.87Z" fill="#fff"/><path d="M43.23,60.9c-1.92.09-3.26-1.11-5-1.59.39-.48.67-.84,1-1.31a6.92,6.92,0,0,0-3.47-.7c-.55.06-1,0-1.23-.8,2.64-.75,4.85.37,7.29,1.56l-1.37.88C41.24,59.66,42.72,59.45,43.23,60.9Z" fill="#fff"/><path d="M50.25,26c1,.3,1.24,1.4,2,2a13.94,13.94,0,0,1,2.11,2.35c.61.8,1.15,1.66,1.69,2.51s1,1.73,1.5,2.6c-.76,0-1.31-.64-2.5-3.09-.86.27-1.37-.07-1.83-.9-.9-1.66-2-3.21-3-4.81a2.43,2.43,0,0,1-.16-.37Z" fill="#fff"/><path d="M62.36,41.55c-.79,1-.88,1.07-1.45.41s-1.17-1.52-1.76-2.28c-.25-.32-.53-.61-.8-.91.73-.82.92-.81,1.57-.18C60.84,39.48,61.06,40.88,62.36,41.55Z" fill="#fff"/><path d="M69.58,49.29c.18.93.39,1.85.51,2.78,0,.22-.29.48-.45.72-.19-.17-.48-.29-.55-.5a14.56,14.56,0,0,1-.45-1.87C68.54,49.84,68.76,49.44,69.58,49.29Z" fill="#fff"/><path d="M33.52,36c-1.14,1.73-2.81,1.85-4.64,1.41s-3.58-.87-5.37-1.32a3.82,3.82,0,0,1-2.17-1.75c1.81-2,4.18-2.18,6.63-2.15C30.66,32.23,32.21,33.94,33.52,36Zm-1.76,0c-2.76-2.29-6.4-3.65-8.64-1.79a8.13,8.13,0,0,0,1.19.63c1.14.39,2.32.66,3.44,1.1A6.74,6.74,0,0,0,31.76,36Z" fill="#fff"/><path d="M44,34.38a3.06,3.06,0,0,1,.62-1c.48-.38,1-.18,1.54.18s.87.53,1.29.81a3.69,3.69,0,0,1,1.66,2.9,2.74,2.74,0,0,1-2.37,2.62.87.87,0,0,1-.7-.32A15.05,15.05,0,0,1,44,34.38Zm2.23.51a3.85,3.85,0,0,0,.39,2.79c.17.21.52.26.85.4C48,36.54,47,35.8,46.18,34.89Z" fill="#fff"/><path d="M51.08,44c.31-.14.71-.48,1.11-.47a2.53,2.53,0,0,1,1.4.5,1.4,1.4,0,0,1,.53,1.82c-.77,1.3-1.3,1.66-2.14,1.44-.44-.12-1.23-1-1.2-1.39C50.82,45.32,51,44.74,51.08,44Zm2.48,1.14c-.55-.37-.87-.76-1.08-.7-.58.15-.65.66-.5,1.39Z" fill="#fff"/><path d="M23.53,42.73c.08-1.36.26-1.65,1-1.71a2.5,2.5,0,0,1,2.23,1.56,1.43,1.43,0,0,1-.88,1.94,2.38,2.38,0,0,1-1.71.11A1.54,1.54,0,0,1,23.53,42.73Zm1.17-1.28a10.66,10.66,0,0,0-.22,1.42,4.4,4.4,0,0,0,.15.87,8.47,8.47,0,0,0,.92-.39c.13-.08.17-.3.29-.53Z" fill="#fff"/><path d="M29.42,8.46a1.58,1.58,0,0,1-1.72.32,1.07,1.07,0,0,0-1.37.64c-.31.7-.9.85-1.83.54a5.22,5.22,0,0,1,.95-1C26.63,8.28,27.85,7.66,29.42,8.46Z" fill="#fff"/><path d="M29,5.37c1.24-1.25,3.07-1.28,4.81,0H29Z" fill="#fff"/><path d="M5.06,43.64C4.14,42.78,4.34,42,5.7,41A2.1,2.1,0,0,1,5.06,43.64Z" fill="#fff"/><path d="M41.79,48.88c-.2.83.12,1.63-.71,2s-1.91,1.2-3.12.89a3.33,3.33,0,0,1-2.16-3.23c0-.62-.17-1.19.27-1.79a2,2,0,0,1,1.56-1,4.27,4.27,0,0,1,3.9,1.92A2.92,2.92,0,0,1,41.79,48.88Zm-4.24.6c.31.27.55.48.81.68.67.52,1,.51,1.57,0,.78-.68.83-1,.45-1.78-.61-1.14-1.73-1.24-2.94-1.57l-.61,1.65,1.08.27C37.78,49,37.68,49.19,37.55,49.48Z" fill="#fff"/><path d="M43.72,46.36c-.27-.23-.49-.58-.76-.62a1,1,0,0,1-1-1.23,1.32,1.32,0,0,1,1.16-1.34,2.86,2.86,0,0,0,.43-.19l2.14,1.45A2.59,2.59,0,0,1,43.72,46.36Z" fill="#fff"/><path d="M35.58,23.82c-.2.27-.37.53-.56.78a2.13,2.13,0,0,1-2,.89c-.77-.11-1.17-.82-1.38-1.57a5.93,5.93,0,0,1-.2-.93,1.66,1.66,0,0,1,.77-1.61,1.69,1.69,0,0,1,2.12.64c.27.41.62.77.91,1.17A5.63,5.63,0,0,1,35.58,23.82Zm-3-.93c.3.47.58.89.85,1.32l.36-.09c.05-.35.25-.77.13-1.05C33.75,22.58,33.27,22.57,32.62,22.89Z" fill="#fff"/><path d="M40.27,24.06a7.3,7.3,0,0,1,1.4,1,1.64,1.64,0,0,1-.57,2.41,4.77,4.77,0,0,1-2,.51c-1.54,0-2.15-.86-1.73-2.35.07-.22.16-.43.22-.65.2-.67.55-1.05,1.32-.83a5.81,5.81,0,0,0,1,.13c.22.59,0,.83-.55.74s-.89-.33-1,.22a1,1,0,0,0,.61,1.13c.71.41.8.44,1.94,0Z" fill="#fff"/></g></g></svg>