<svg xmlns="http://www.w3.org/2000/svg" viewBox="0 0 54.17 49.1"><g id="Layer_2" data-name="Layer 2"><g id="Layer_4" data-name="Layer 4"><path d="M39.15,47.3a13,13,0,0,0-4.24.87,7,7,0,0,1-2.56.19,10.64,10.64,0,0,0-4.11.64c-.47.19-1,.17-1.12-.45a.7.7,0,0,0-.86-.52c-1.72.15-3.17-.7-4.67-1.28-2.33-.9-4.56-2-6.81-3.13S10.84,40.48,9,38.74a19.55,19.55,0,0,1-1.83-1.81,19.1,19.1,0,0,1-1.4-2.24c-.28-.47-.49-1-.74-1.48a2.83,2.83,0,0,0-.56-.94c-1.37-1.08-1.71-2.78-2.6-4.14-.51-.79-.9-1.65-1.33-2.49-.08-.15-.17-.4-.1-.52.74-1.33-.21-2.52-.34-3.76A20.15,20.15,0,0,1,.05,17.8c.13-1.82.88-3.57.53-5.46a3.55,3.55,0,0,1,.44-2A14.18,14.18,0,0,1,5,5C6.09,4.15,7.22,3.4,8.3,2.57c.44-.35.76-.84,1.19-1.21A16.92,16.92,0,0,1,11,.32c.15-.09.46-.19.51-.12.54.6,1.2.14,1.68.06,1.18-.2,2.37.2,3.52-.19a.73.73,0,0,1,.54,0c1.89,1.23,4.26,1.2,6.19,2.29,1,.56,1.88,1.28,2.83,1.91a16.82,16.82,0,0,1,3,2.76,16.21,16.21,0,0,0,3.63,2.55A12.71,12.71,0,0,0,36.1,11a23.43,23.43,0,0,0,5.48.83,11.52,11.52,0,0,1,3.09.65,38.44,38.44,0,0,1,4.85,2c1.44.68,1.93,2.2,3.21,2.92a.49.49,0,0,1,.18.37,8.54,8.54,0,0,0,1.16,4c.07.16.14.43.06.52-.71.87-.32,1.89-.45,2.84a11,11,0,0,0-.12,2.58,9,9,0,0,1-.71,2.92c-.06.22-.23.43-.24.64a11.38,11.38,0,0,1-1.75,4.77c-.21.35-.17.86-.41,1.17a9.44,9.44,0,0,1-1.61,1.67c-.88.67-1.86,1.2-2.29,2.32a2.22,2.22,0,0,1-.73.83c-1.24,1-2.66,1.72-3.81,2.84a6.16,6.16,0,0,1-2,.9C39.33,46.06,38.66,46.33,39.15,47.3Zm-20.4-3.38c.07-.11.13-.25.17-.25a8,8,0,0,1,3.66,1.66c.29.2.49.52.92.59a50.55,50.55,0,0,0,6,.91c1.3.05,2.56,0,3.86,0a10.62,10.62,0,0,0,3.71-1.12,36.38,36.38,0,0,0,9-6.15,5.72,5.72,0,0,0,1.62-2c.32-.73.64-1.65,1.5-1.81a9,9,0,0,1,.28-1.33c.85,0,.64-.59.75-1a7.35,7.35,0,0,1,.61-2.09,7,7,0,0,0,.68-4.58,19.9,19.9,0,0,1-.22-3.6,8.83,8.83,0,0,0-1.77-6c-1.23-1.79-2.67-3.33-5.17-3a13.27,13.27,0,0,1-1.67,0,4.4,4.4,0,0,1-2.88-.77c-.3-.24-.86-.12-1.29-.22a16,16,0,0,1-3.07-.58A36.55,36.55,0,0,1,29.69,9,14.06,14.06,0,0,1,26.77,6.4a10.07,10.07,0,0,0-5.6-3.8A17.21,17.21,0,0,0,17,1.84a29.44,29.44,0,0,0-5.31,1,11.67,11.67,0,0,0-1.45.74c-1.54.61-2.35,2.23-3.94,2.76-.11,0-.16.22-.25.32-.49.58-1,1.15-1.49,1.73A11.5,11.5,0,0,1,3.2,12.1a9.45,9.45,0,0,1,.57,2.62,35.23,35.23,0,0,1-.79,4,9.75,9.75,0,0,0,.18,5.06,2.35,2.35,0,0,1,.1,1.87,2.4,2.4,0,0,0,.23,2.27c.61,1.18,1.41,2.27,2,3.46a27.4,27.4,0,0,0,7.23,9.53,8.6,8.6,0,0,0,2.86,1.64c.75.24,1.84-.08,2,1.3,0,.44,1.59.69,2.42.5ZM1.92,18.55c.79-1.08,1.12-3.75.49-4.48A5.65,5.65,0,0,0,1.92,18.55ZM15,1.56,15,1.22l-.68.15.09.37Z" fill="#fff"/><path d="M30.59,39.82a9,9,0,0,1-6.53-2.14,10.78,10.78,0,0,1-3.58-6.37,21.06,21.06,0,0,1-.59-3,19.19,19.19,0,0,1,1-6.28,7.48,7.48,0,0,1,2.4-3,15.28,15.28,0,0,1,3-2.23,6.1,6.1,0,0,1,2.28-.45,12.42,12.42,0,0,1,5.38.34,10.32,10.32,0,0,1,3.47,2.38c1,.86,1.81,1.87,2.73,2.8a5.79,5.79,0,0,1,1.16,2.48c.68,2.05.17,4.13.2,6.19a5.38,5.38,0,0,1-1.21,3.17,18.76,18.76,0,0,1-4.81,4.76A8.55,8.55,0,0,1,30.59,39.82ZM30.36,18.6a7.6,7.6,0,0,0-5.71,2.65,2.69,2.69,0,0,0-.68,1,17,17,0,0,0-.7,9.42,7.63,7.63,0,0,0,4.16,5.54,4.21,4.21,0,0,1,.83.51,4.25,4.25,0,0,0,4.6.34,10.87,10.87,0,0,0,4.64-3.84,12.71,12.71,0,0,0,2.56-8.52,7.61,7.61,0,0,0-2.87-5.17C35.35,18.86,33.07,18.53,30.36,18.6ZM25.2,36.94a1.73,1.73,0,0,0,2,1.37ZM28,17.82l0-.51-1.36.33.07.35Z" fill="#fff"/><path d="M23.35,43.16c-2.42.5-9.92-3-10.7-5.44.77-.44,1.16.28,1.65.58.74.46,1.37,1.12,2.14,1.52A52.41,52.41,0,0,0,23.35,43.16Z" fill="#fff"/><path d="M8.74,31.85c.46.71.95,1.42,1.4,2.16.32.52,0,.85-.48,1.1A3.87,3.87,0,0,1,8,33C7.79,32.43,8,32,8.74,31.85Z" fill="#fff"/><path d="M4.85,23.34c.55.53,1.33.77,1.39,1.64,0,.67.62,1.38-.19,2.06-.19-.19-.45-.35-.54-.58-.36-.92-.68-1.87-1-2.82C4.5,23.61,4.64,23.53,4.85,23.34Z" fill="#fff"/><path d="M42.66,16.08a5.13,5.13,0,0,1,3.69,1.05c-1.12.53-2.05.07-3,0-.3,0-.59-.47-.88-.72Z" fill="#fff"/><path d="M28.82,43c2-.28,2-.25,2.27.95C30.32,43.61,29.33,44,28.82,43Z" fill="#fff"/><path d="M30.25,36.53l4.41-2.25c.41.2.74.52.23,1a5.67,5.67,0,0,1-3.82,1.68C30.69,37,30.17,37,30.25,36.53Z" fill="#fff"/><path d="M26.45,32.74c-1.64-.31-2.2-1.41-1.61-3.16C26.09,30.3,26.2,31.53,26.45,32.74Z" fill="#fff"/><path d="M28.52,36c-1.05.08-1.44-.63-2-1.22C27.9,34.65,28.2,34.83,28.52,36Z" fill="#fff"/></g></g></svg>