<svg xmlns="http://www.w3.org/2000/svg" viewBox="0 0 55.28 65.23"><g id="Layer_2" data-name="Layer 2"><g id="Layer_4" data-name="Layer 4"><path d="M0,26.62c.43-.73.9-1.48,1.31-2.27a6.84,6.84,0,0,0,.43-1.25c.3-1,.52-2,.88-3a1.25,1.25,0,0,1,2-.56c.53.33,1.06.67,1.6,1,.06,0,.17,0,.26,0,.46-1,.42-1.59-.32-1.74A1.69,1.69,0,0,1,4.79,17.2,4.07,4.07,0,0,1,5.11,15c.73-1.65,2.12-2.82,3.26-4.18A5.42,5.42,0,0,1,9.74,10c.64,1.08,1.18,2,1.77,3,.1.15.4.17.56.23.58-.48,1.1-.92,1.63-1.34a.74.74,0,0,0,.24-1.06c-.33-.62-.61-1.27-1-1.87-.52-.89-1.23-1.7-.79-3.06l.66-.39c.58-.34,1.17-.66,1.74-1C15.34,4,16,3.29,17,3.37a.22.22,0,0,0,.13,0c1.47-1.21,3.33-1.05,5.21-1.48.24,1.15-.58,2.24-.22,3.44l6.33-1.16c.08.39.14.83.26,1.25.19.68.44,1.34.59,2a6.77,6.77,0,0,1,0,1.37c.77.18,1.45-.31,2.18-.53.25-.08.49-.22.73-.32.95-.38,1.08-.35,1.63.55A16.58,16.58,0,0,1,36,14c.14.75.34,1.48.54,2.32l.86-.4c1,1.33,2.16,2.61,3.05,4,1.3,2.07,2.42,4.26,3.61,6.39.16.28.31.56.47.83.66,1.13,1.35,2.24,2,3.38,1.27,2.35,2.56,4.69,3.73,7.09,1,2.06,1.86,4.19,2.79,6.29.6,1.35,1.19,2.72,1.84,4,.73,1.5.54,2.09-1.09,2.73l.18.87c-.55.19-1.11.43-1.69.59a28.07,28.07,0,0,0-5.09,2.23c-.68.33-1.6.41-2.07.91-.74.79-1.88.7-2.57,1.55a15.94,15.94,0,0,1-2.26,1.89,2.32,2.32,0,0,0-.52.68,17.88,17.88,0,0,0-2.2,5.21,2.24,2.24,0,0,1-.38.6,12.62,12.62,0,0,1-2.89-1.35c-2.27-1.88-4.86-3.32-7-5.44-1.32-1.33-3-2.35-4.4-3.56-1.2-1-2.39-2-3.48-3.12a44.85,44.85,0,0,0-5.51-4.7,6.68,6.68,0,0,1-.55-.54c.75-.87.23-1.49-.39-2.15-.86-.92-1.66-1.88-2.47-2.84a1.28,1.28,0,0,1-.26-.61c-.07-.48.4-.86.75-.56.64.53,1.12.51,1.5-.14l1.14.46.19-.27c-.39-.31-.76-.65-1.17-.93-1.5-1-3-1.95-4.5-3a6.08,6.08,0,0,1-1.36-1.27A3.45,3.45,0,0,0,4.93,34c-.81-.25-.88-.49-.51-1.28.29-.6.57-1.21.88-1.85a14.65,14.65,0,0,0-3.9-2.75A2.41,2.41,0,0,1,0,26.62Zm33,1.24-1.66,1c-1.94-5.58-4.81-10.67-6.57-16.09l-2.57,1.7a1.57,1.57,0,0,0-.74,2,53.72,53.72,0,0,0,2.74,5.85c.49.83,1,1.66,1.43,2.53C26.76,26.92,28,29,29.12,31.08c.21.38.44.75.74,1.26A28.07,28.07,0,0,0,33,27.86a2.21,2.21,0,0,0,0-3,5.59,5.59,0,0,1-1.15-2.7c-.11-.92-1.27-1.61-.67-2.75.06-.12-.12-.44-.28-.58a1.4,1.4,0,0,1-.43-.9,7.27,7.27,0,0,0-.67-2.75c-1.06-1.74-1.21-3.76-2-5.58a.79.79,0,0,1,0-.64c.72-1.17,0-2.24-.08-3.53-.61.12-1.08.17-1.54.31-.9.27-1.78.66-2.7.85s-1.25.56-1.3,1c.41.86.68,1.45,1,2,.39.78.59,1.73,1.74,1.86.24,0,.47.4.63.66a14.9,14.9,0,0,1,.9,1.67c1,2.16,1.94,4.34,2.94,6.5s1.92,4.07,2.89,6.1C32.55,27,32.8,27.4,33,27.86ZM15.56,43.23c.54.71,1,1.29,1.4,1.83,1,1.21,2,2.42,3.07,3.6,1.25,1.39,2.45,2.83,3.8,4.1,2.36,2.21,4.81,4.31,7.23,6.43a18.65,18.65,0,0,0,2.12,1.66,3.56,3.56,0,0,1,1.53,1.47,1.18,1.18,0,0,0,1.46.77,24.72,24.72,0,0,1,6.11-9.66c2.91-2.74,6.56-4.12,10.6-5.09-.67-1.15-1.33-2.14-1.85-3.19-.7-1.4-1.31-2.86-2-4.3s-1.18-2.62-1.8-3.93c-1.17-2.46-2.26-5-3.58-7.37-1.69-3.05-3.57-6-5.44-9.11-.15.31-.25.5-.33.7-.72,1.86-1.42,3.72-2.17,5.57a18.09,18.09,0,0,1-1.21,2.41A39,39,0,0,1,32,33a23.79,23.79,0,0,1-2.77,2.91,23.76,23.76,0,0,1-5.6,4.38,29.7,29.7,0,0,1-6.07,2.23A17.41,17.41,0,0,0,15.56,43.23ZM26.75,31.62a11.45,11.45,0,0,0-.59-1.77c-1.55-3-3.16-6-4.72-9-.91-1.75-1.74-3.54-2.58-5.23.28-.5.51-.92.77-1.37-1.19-1-1.67-2.56-3.07-3.24a20.13,20.13,0,0,0-3.69,4.8c1,.88,1.55,2,2.46,2.95s1.84,2.3,2.79,3.42,1.77,1.9,2.62,2.88c.6.7,1.78,1.05,1.48,2.34,0,.09.12.24.21.33l3.86,3.68A1.58,1.58,0,0,0,26.75,31.62ZM26.35,35l-1-1.19a15.44,15.44,0,0,0-1.06-1.22c-2.63-2.52-5.07-5.22-7.5-7.93a1.18,1.18,0,0,1-.36-.83c.16-1.16-.73-1.62-1.42-2.44-.25.95-.42,1.75-.68,2.53s-.66,1.64-1,2.38c1.08,1.14,2.05,2.11,3,3.14,1.27,1.41,2.45,2.89,3.73,4.28s2.47,2.52,3.69,3.76c1.48-.72,3.51-2.45,3.82-3.33ZM6.22,33.44a29.88,29.88,0,0,1,3,1.78c2,1.56,4,3.23,6,4.8a2,2,0,0,0,1.38.46,37.8,37.8,0,0,0,3.88-1.07,3.31,3.31,0,0,0,.86-.62,133.66,133.66,0,0,0-14-8.88C6.87,31.2,6.52,32.4,6.22,33.44Zm28.46-8.63c.3-.75.53-1.27.73-1.81a11.41,11.41,0,0,0,.45-1.4,4.85,4.85,0,0,0,.24-1.71c-.26-1.68-.56-3.37-1-5-.5-2-2.06-3.09-3.66-4.09-.74-.46-1.26-.12-1.38.77a2.37,2.37,0,0,0,.05.92c.27.92.58,1.84.9,2.75.44,1.27.88,2.54,1.35,3.8A4.67,4.67,0,0,1,33,21.69c0,.1,0,.31.09.32,1.17.25.56,1.09.54,1.65C34,24,34.21,24.3,34.68,24.81ZM22.6,12.8c-.26-.81-.44-1.44-.66-2.06-.42-1.19-.82-2.39-1.31-3.56a1.57,1.57,0,0,1-.06-1.4A9.23,9.23,0,0,0,21,4c-1.78.62-3.32,1.15-4.85,1.7-.95.34-1.89.72-3,1.14-.33.78.7,1.12,1,1.77S15,10,15.49,10.85a9.39,9.39,0,0,1,.65-.82,1.3,1.3,0,0,1,1.72-.17,12.71,12.71,0,0,1,1,1.52,3.31,3.31,0,0,0,.49.78c.52.47,1.11.87,1.76,1.37Zm-7.78,7.05a12.69,12.69,0,0,1-1.29-1.22c-.35-.43-.55-1-.89-1.41-.55-.71-1.2-1.35-1.73-2.08S10,13.46,9.06,13.06c-.2-.08-.27-.47-.49-.89L5.19,16.51A13.46,13.46,0,0,0,7.62,17.7a5.9,5.9,0,0,1,2.83,1.69A12.85,12.85,0,0,0,13.56,22ZM1.48,26.41l4.33,2.71c.48-1.07.51-1.15,1.3-.94a9.93,9.93,0,0,1,2.43.93c1.79,1.08,3.51,2.28,5.28,3.4.16.1.43,0,.65,0l.09-.25L6.48,26.06l-.83.33a7.26,7.26,0,0,0-.29-1.75,1.36,1.36,0,0,1,.14-1.28c.2-.39.46-.74.74-1.19a17.12,17.12,0,0,0-1.61-1c-.69-.35-.93-.21-1.21.5C2.8,23.17,2.18,24.7,1.48,26.41Zm5.65-2.26,4.26,2.72,1.74-3.19a13.73,13.73,0,0,0-1.5-1.39c-1-.65-2-1.15-3-1.84-.47-.35-.76-.3-1.27,0C8.18,21.76,6.86,22.83,7.13,24.15ZM32.24,9.75C32.47,10.9,33.89,10.84,34,12c.38-1-.44-1.8-.34-2.93ZM53.66,48.63c.25-1.28.07-1.74-.84-2.27ZM14.72,43.39l-.37.22,1,1.31.17-.12Zm5.08-7.46.26-.25c-.21-.35-.28-.84-1.18-.74Zm-2.56-2.34,1.09.33C17.81,33.13,17.81,33.13,17.24,33.59ZM43.55,54.84l-.11-.22-.58.34.08.17ZM12.78,28.12l-.19.27.71.43.14-.2Z" fill="#fff"/><path d="M46.08,23.29a4.37,4.37,0,0,1,1,1c.73,1.24,1.35,2.55,2,3.81.59,1.07,1.17,2.15,1.83,3.18.53.83,1.17,1.58,1.82,2.45l-.72.36c.23.67.45,1.34.69,2.05l-.79.46c-.12-.12-.25-.19-.3-.3a45.2,45.2,0,0,1-2-4.38,23.9,23.9,0,0,0-2-4c-.62-1.1-1.25-2.2-1.82-3.32a3.64,3.64,0,0,1-.18-1.11Z" fill="#fff"/><path d="M.46,33.28c2,1.88,3.7,3.93,6.52,4.81A1.88,1.88,0,0,1,4.69,38C3.25,37,1.91,35.89.57,34.77.09,34.37.18,33.82.46,33.28Z" fill="#fff"/><path d="M18.53,55.23c.53-.49.87-.72,1.51-.35a10,10,0,0,1,3.62,3.53c-.36.38-.64.58-1,.17-.21-.22-.42-.46-.64-.68a7.87,7.87,0,0,0-3-2.24C18.88,55.61,18.76,55.44,18.53,55.23Z" fill="#fff"/><path d="M23.84.6C23.06.5,22.2,1,21.48.31,22-.14,22-.14,23.84.6Z" fill="#fff"/><path d="M28.33,49.24a4.57,4.57,0,0,1-.49-4.74,9,9,0,0,1,4.07-4.25c.88-.46,1.68-1.08,2.58-1.48a7.31,7.31,0,0,1,5-.3,4,4,0,0,1,2.43,3c.59,2,.22,3.91,0,5.87a10.44,10.44,0,0,1-1.87,4.28,5.94,5.94,0,0,1-2.78,2.17c-2.41,1.16-4.34.2-6.24-1.07A7.53,7.53,0,0,1,29.6,51C29.15,50.43,28.75,49.83,28.33,49.24Zm2.25-1c.25.43.37.62.47.82,1.12,2.1,3.16,2.8,5.65,1.85a9.12,9.12,0,0,0,3.36-2.66,5.09,5.09,0,0,0,1.21-2.77,11.58,11.58,0,0,0-.44-3.32c-.31-1.54-.85-1.94-2.37-2a9.38,9.38,0,0,0-4.2.84,9.86,9.86,0,0,0-2.63,1.92c-1,.87-1.11,2-1.64,3S30.19,47.71,30.58,48.28Z" fill="#fff"/><path d="M22.42,45.74c.8.31.92,1.16,1.36,1.76s1,.9,1.19,1.71c.14.62.78,1.13,1.36,1.9a4.77,4.77,0,0,1-.91-.1c-.11,0-.19-.18-.27-.29A29,29,0,0,0,22.33,47C22,46.61,21.8,46.14,22.42,45.74Z" fill="#fff"/><path d="M44,33.35c.93.77,1.68,1.25,1.73,2.28C44.59,35.71,44.42,35.5,44,33.35Z" fill="#fff"/><path d="M48.58,42.82c.65.31,1,.69.81,1.23a1.12,1.12,0,0,1-.64.7c-.34.09-.67-.55-.54-1S48.42,43.22,48.58,42.82Z" fill="#fff"/></g></g></svg>