<svg xmlns="http://www.w3.org/2000/svg" viewBox="0 0 51.69 38.59"><g id="Layer_2" data-name="Layer 2"><g id="Layer_4" data-name="Layer 4"><path d="M20.82,6.25a2.29,2.29,0,0,1-.18-2.62,1.88,1.88,0,0,1,3-.71c.63.45,1.24.93,1.92,1.46a15.18,15.18,0,0,1,.65-3c.7-1.6,1.63-1.67,2.88-.88A2.83,2.83,0,0,1,30,2.12a7.84,7.84,0,0,1,0,1.93l1.48-.66a2.55,2.55,0,0,1,3,.26,2.44,2.44,0,0,1,.67,2.91,4.86,4.86,0,0,0-.12.6c.53.15,1,.27,1.49.43a14.07,14.07,0,0,1,2.2.83c1.65.93,3.48,1.58,4.84,3,1.13,1.16,2.29,2.3,3.42,3.46a1.3,1.3,0,0,1,.33.61c.39,2,1.1,4,1.41,6a13.92,13.92,0,0,1-.56,5.18A12.13,12.13,0,0,1,46.37,30a18.09,18.09,0,0,1-1.63,2.27,21.43,21.43,0,0,1-1.86,1.83c-.6.56-1.24,1.1-1.87,1.63-.18.15-.42.37-.6.34-1.41-.19-2.41.87-3.64,1.18-.92.23-1.83.47-2.76.64-3,.55-6,1.09-9,.37-2.48-.58-5-1.07-7.46-1.69a7.09,7.09,0,0,1-2-1A29.26,29.26,0,0,1,11.9,33a19,19,0,0,1-4.1-4.26,49.45,49.45,0,0,1-2.59-4.59,14.82,14.82,0,0,1-.73-3.09,10.62,10.62,0,0,1,1.26-8.39,13.33,13.33,0,0,1,5.65-4.82,14.56,14.56,0,0,1,5.42-1.59C18.06,6.22,19.31,6.26,20.82,6.25Zm0,28.94,0,.11c.62.22,1.23.46,1.86.63a19.29,19.29,0,0,0,6,.88c.55,0,1.1,0,1.65,0a11.71,11.71,0,0,0,1.78,0,26.3,26.3,0,0,1,3.09-.68,5.88,5.88,0,0,0,2.24-.66l2-.91c.34-.15.81-.19,1-.45,1.2-1.51,3.11-2.33,4-4.12a4.89,4.89,0,0,1,.82-1.29,6.17,6.17,0,0,0,1.5-3.83,15.29,15.29,0,0,0-.91-7.51,8.43,8.43,0,0,0-1.6-2.69A18.37,18.37,0,0,0,41,11.7a28.36,28.36,0,0,0-3.78-1.89A7.44,7.44,0,0,0,34.94,9a3.51,3.51,0,0,0-3,.59,5.39,5.39,0,0,1-3.61,1.16,12.06,12.06,0,0,1-6.56-2.35,4.69,4.69,0,0,0-1.62-.7,19.62,19.62,0,0,0-2.75-.41,4.51,4.51,0,0,0-1.64.14,13.26,13.26,0,0,0-6.41,4.4,8.83,8.83,0,0,0-2.26,5.1,12.62,12.62,0,0,0,.72,6.27,18.4,18.4,0,0,1,1.31,3.2,4.87,4.87,0,0,0,1.8,2.54c.44.4.79.9,1.23,1.3,1.43,1.31,2.67,2.87,4.56,3.57C18.06,34.28,19.44,34.72,20.81,35.19ZM27.37,9.9c.94-.4,1.69-.74,2.46-1a8.91,8.91,0,0,0,3.28-2.65c.3-.33.25-1,.36-1.54a3,3,0,0,0-2.62.8,3.25,3.25,0,0,1-1.85,1,2,2,0,0,1-.41-2,5.29,5.29,0,0,0,.08-2.06c-.07-.46,0-1.19-1-1.25-.37,1.16-1,2.24-.81,3.56a4.25,4.25,0,0,1,0,1.38,1.38,1.38,0,0,1-.52.89c-.41.2-.78-.06-1-.5a2.89,2.89,0,0,0-1.66-1.41c-1-.38-1.28-.21-1.59,1a9.88,9.88,0,0,0,1,1.11C24.46,8.32,25.45,10,27.37,9.9ZM23,4.14c-.66-.77-1.08-.65-1.46.4Z" fill="#fff"/><path d="M51.69,16.74c-.9-.44-1.51-.73-2.11-1a1.12,1.12,0,0,1-.4-.38Q47.8,13,46.43,10.73c0-.07,0-.18,0-.27s.11-.17.17-.17c.23,0,.63-.09.67,0,.39.85,1.31.21,1.77.67A3.17,3.17,0,0,1,49.65,12a10.26,10.26,0,0,0,1.87,3.35C51.75,15.59,51.63,16.16,51.69,16.74Z" fill="#fff"/><path d="M37.14,2.18a1.07,1.07,0,0,1,1.32.56c.43.7.9,1.38,1.42,2.17,1.5-.53,2.93-1.27,4.53-1,.16,0,.26.33.35.46-1.56,1.29-3.45,1.32-5.24,1.64-.6.1-.91-.31-1.12-.83C38,4.26,37.6,3.29,37.14,2.18Z" fill="#fff"/><path d="M1.48,11.3c.86,1,.72,2.62-.32,4.69C0,15.77-.15,15.6.1,14.62A12.58,12.58,0,0,1,.78,13C1,12.45,1.21,11.94,1.48,11.3Z" fill="#fff"/><path d="M10,16.39c.35,1.8.7,3.54,1,5.29a3.78,3.78,0,0,0,1,2.07c.83.86,1.59,1.8,2.37,2.7-.21.71-.47.73-1.11.41-2-1-2.65-2.95-3.59-4.74a6,6,0,0,1-.81-4.36A1.77,1.77,0,0,1,10,16.39Z" fill="#fff"/><path d="M44.24,17.19c-.34,0-.47,0-.51,0q-2.67-2.61-5.32-5.24c.63-.3.64-.31,1.9.36a5.63,5.63,0,0,1,1.78,1C43,14.45,44.38,15.37,44.24,17.19Z" fill="#fff"/><path d="M44.72,22.7c-.72.91.62,2-.48,2.87a2.73,2.73,0,0,1-.91-2.22C43.37,22.42,43.41,22.37,44.72,22.7Z" fill="#fff"/><path d="M41.26,29.56c-.18,1.35-.18,1.35-1.26,1.91-.42-.26-.83-.51-.6-1.16C39.72,29.41,40.47,29.61,41.26,29.56Z" fill="#fff"/></g></g></svg>