<svg xmlns="http://www.w3.org/2000/svg" viewBox="0 0 61.42 57.25"><g id="Layer_2" data-name="Layer 2"><g id="Layer_4" data-name="Layer 4"><path d="M43.06,57.25a4.34,4.34,0,0,0-2.71-.19,9.74,9.74,0,0,1-4.29-.16c-1.47-.42-3-.7-4.47-1a1.18,1.18,0,0,0-.55-.06c-2,.62-3.7-.3-5.4-1.21a12.13,12.13,0,0,0-2.18-.73A18.3,18.3,0,0,1,18,51.33s-.06-.09-.1-.09C16,51,14.64,49.64,13,48.94A23.27,23.27,0,0,1,7.59,45.7c-.14-.11-.23-.37-.38-.39-1.66-.32-2.59-1.69-3.84-2.6-.8-.58-1.5-1.28-2.53-2.17a17.33,17.33,0,0,1-.71-2.06A2.39,2.39,0,0,1,.7,35.93,36.18,36.18,0,0,0,3.35,32.6c1-1.25,2.11-2.43,3.06-3.72,1.65-2.23,3.22-4.52,4.83-6.78.18-.26.39-.69.59-.69.93,0,1.1-.8,1.48-1.32.78-1.07,1.46-2.19,2.15-3.23-1.29-1.35-2.63-2.61-3.79-4a5.67,5.67,0,0,1-.05-6.63A16,16,0,0,1,15,2.71a11.75,11.75,0,0,1,4.65-2,19.43,19.43,0,0,1,7.2-.57c.58.09,1.22-.15,1.79,0A32.11,32.11,0,0,1,32.25,1c1.9.6,3.79,1.23,5.66,1.92.9.33,1.75.81,2.63,1.19a13.15,13.15,0,0,0,2.42,1,13.69,13.69,0,0,1,4,1.86c2.19,1.26,4.21,2.82,6.43,4a19.61,19.61,0,0,1,2.33,2c.33.25.58.6.91.85a11.31,11.31,0,0,1,2.72,3.43,16.9,16.9,0,0,1,2,6.41,7.23,7.23,0,0,1-2.78,6.76,6.75,6.75,0,0,1-4.38,1.83,4.08,4.08,0,0,0-1.42.32,1.48,1.48,0,0,0-.8.67c-.52,1.28-1,2.59-1.44,3.9.62,2-1,3.37-1.39,5.09a16,16,0,0,1-.89,2.45,25.74,25.74,0,0,1-1.79,4.47c-1,1.6-1.23,3.48-2.17,5.08A20.81,20.81,0,0,0,43.06,57.25ZM.7,37.92a4.76,4.76,0,0,0,.53.75,33.41,33.41,0,0,0,3.15,2.92c1.93,1.44,3.92,2.8,6,4s4.28,2.18,6.32,3.43c1.35.82,3.06.69,4.27,1.78.05,0,.19,0,.27,0,.6.24,1.21.45,1.78.74a9.84,9.84,0,0,0,1.82.88c2,.58,4,1.18,6,1.65,2.42.57,4.85,1.15,7.31,1.48a18.67,18.67,0,0,0,4-.26c.34-1,.62-1.82.91-2.64s.61-1.89,1-2.81.72-1.58,1-2.4a13.27,13.27,0,0,0,.52-1.87,16.25,16.25,0,0,1,.35-1.87c.27-.78.74-1.49,1-2.26,1.39-3.51,2.76-7,4.21-10.76a9.44,9.44,0,0,0,1.35.09,12.63,12.63,0,0,0,2.61-.26c.69-.19,1.28-.74,2-1,2.83-1.06,3.64-4,3-6.49a23.48,23.48,0,0,0-1.25-4,7.73,7.73,0,0,0-2.92-3.8,45.41,45.41,0,0,1-4.21-3,22.26,22.26,0,0,0-5.25-3.29c-2.28-.89-4.29-2.42-6.75-2.91-.25,0-.46-.28-.67-.46s-.35-.47-.59-.57c-1.75-.69-3.51-1.39-5.29-2a15,15,0,0,0-2.24-.39c-1.41-.24-2.83-.44-4.22-.75a12.25,12.25,0,0,0-5.22-.05c-1.15.23-2.25.59-3.37.91a5.34,5.34,0,0,0-2.5,1.42,2.65,2.65,0,0,1-.73.65c-1.69.8-2.13,2.61-3.2,3.92a1.2,1.2,0,0,0-.09.94A8.65,8.65,0,0,0,17,15.85a5.87,5.87,0,0,1-1.17,2.69,55,55,0,0,1-4.21,6.28c-1.51,1.8-2.84,3.76-4.35,5.56C5.14,32.9,3,35.34.7,37.92Z" fill="#fff"/><path d="M49.8,28.93a25,25,0,0,1-1.07,3.27c-.79,1.63-1,3.45-1.82,5.08a43.26,43.26,0,0,0-1.77,4.65c-.69,1.78-1.42,3.55-2.11,5.34-.29.73-.5,1.49-.82,2.21a10.54,10.54,0,0,1-1.15,2.21,2.91,2.91,0,0,1-3,1c-2.75-.61-5.43-1.52-8.19-2.1a55.18,55.18,0,0,1-8.53-3c-2.41-.93-4.83-1.81-7.21-2.79a35.84,35.84,0,0,1-3.19-1.67,19,19,0,0,1-2.28-1.31C7.43,41,6.27,40,5.11,39A1.07,1.07,0,0,1,5,37.4c1.42-2,2.82-4,4.23-6a25.36,25.36,0,0,1,2-2.67c1.5-1.61,2.32-3.65,3.63-5.36A77.09,77.09,0,0,0,19,16.68c.46-.76.42-1-.43-1.36-2-.72-2.76-2.51-3.67-4.11-.72-1.28.11-3.36,1.46-4.44a8.94,8.94,0,0,1,4.14-1.88c1.6-.26,3.19-.59,4.8-.7a12,12,0,0,1,3,.33,37.73,37.73,0,0,1,6.42,1.7c2.29.87,4.65,1.55,7,2.4a25,25,0,0,1,3.11,1.55c1.18.62,2.32,1.31,3.51,1.93a23.29,23.29,0,0,1,6.55,5.27,10.75,10.75,0,0,1,2.69,4.16,5.63,5.63,0,0,1,.24,1.35,19.9,19.9,0,0,1-.07,2.56,5.18,5.18,0,0,1-3.21,3.46A4.93,4.93,0,0,1,51.4,29,4.94,4.94,0,0,0,49.8,28.93ZM6.1,38.2c1.45,2.37,3.77,3.35,5.81,4.65A30.23,30.23,0,0,0,18,45.44c2.66,1,5.25,2.07,7.89,3.08a74.16,74.16,0,0,0,10,2.89c.81.19,1.64.3,2.47.41.21,0,.61-.06.62-.14.15-1,1.23-1.12,1.55-1.87.56-1.32,1-2.67,1.56-4l.81-2.06c.84-2.14,1.83-4.25,2.46-6.45C46.31,34,47.74,31,49,27.86a40.51,40.51,0,0,0,4.23.47,3.52,3.52,0,0,0,3.08-4.78c-.24-.55-.43-1.12-.66-1.68C55,20.46,54.62,19,53.3,18c-.7-.53-1.31-1.17-2-1.77A8.23,8.23,0,0,0,50.05,15c-2.16-1.32-4-3.05-6.37-4.17-2.1-1-4.25-1.78-6.4-2.61C35.4,7.49,33.44,7,31.52,6.36a6.14,6.14,0,0,0-1-.17A26.09,26.09,0,0,1,27,5.67a11.49,11.49,0,0,0-7.37.66,8.45,8.45,0,0,0-2.8,2,3,3,0,0,0-.84,2c0,1.92,2.32,4.36,4.27,4.53,1,.08,1.37.61,2,1.44H20.39c-1.26,2.18-2.43,4.22-3.63,6.25A114,114,0,0,1,9.54,33.07C8.31,34.69,7.26,36.45,6.1,38.2Z" fill="#fff"/><path d="M37.2,40,36,41.27l-1-.43,2.34-1.74c1.81.32,1.48,1.67,1.51,2.61A3.46,3.46,0,0,1,36.91,45a2.14,2.14,0,0,1-3-1.1c-.32-.95-.07-1.22,1-1.12l.7,1.41C37.69,43.37,37.88,42,37.2,40Z" fill="#fff"/><path d="M24.91,13.19c.23-.93.62-1.65,1.68-1.75s1.93-.24,2.89-.26a1.18,1.18,0,0,1,1.27,1.07c-.95,1.51-1.82,0-2.69,0l-1.63.43.55.69A1.68,1.68,0,0,1,24.91,13.19Z" fill="#fff"/><path d="M23,26.22c.34-1.15,1.44-1.09,2.23-1.55C25.25,25.93,24.41,26.51,23,26.22Z" fill="#fff"/><path d="M37.64,35.31c.71-.5,1.4-1.07,2.36-.67C39.85,35.74,39,36,37.64,35.31Z" fill="#fff"/></g></g></svg>