<svg xmlns="http://www.w3.org/2000/svg" viewBox="0 0 46.78 40"><g id="Layer_2" data-name="Layer 2"><g id="Layer_4" data-name="Layer 4"><path d="M17.25,31.91a8.7,8.7,0,0,0-1,1.17A6.81,6.81,0,0,1,8.14,36a1.48,1.48,0,0,0-.27-.1C5.53,35.66,4.19,34,2.72,32.43A11.6,11.6,0,0,1,.26,27.64a5.07,5.07,0,0,1,2.08-5.9A13.56,13.56,0,0,1,4.7,20.32a5.33,5.33,0,0,1,4.6-.15,3.38,3.38,0,0,0,1,.13c-.07-1.22-.91-2-1.35-3S8,15.23,8.36,14a5.22,5.22,0,0,1,1-1.59c2.24-3,5.32-4.95,8.5-6.8,1.39-.81,2.95-1.28,4.22-2.39a10.86,10.86,0,0,1,3.07-1.38A27.06,27.06,0,0,1,32.44.09c2.79-.34,5.27.27,7.1,2.57a5.11,5.11,0,0,1,.59,1.5,10,10,0,0,0,.78,2.35A21,21,0,0,1,44.3,17.59c0,.87.24,1.74.22,2.62-.05,2.62-1,5.07-1.64,7.56-.85,3.06-3.06,5.12-5.42,7A12,12,0,0,1,34.1,36c-1.05.38-2.11.72-3.16,1.12a4.46,4.46,0,0,1-2.58.41,4.1,4.1,0,0,0-1.52,0,6.76,6.76,0,0,1-5-1.26A13.09,13.09,0,0,1,17.25,31.91ZM12.91,10.58a.88.88,0,0,0-.28,0c-1.38.32-1.84,1.56-2.47,2.59-.19.3.15.68.73.6a18.54,18.54,0,0,1,.85-1.65c.33-.54.74-1,1.11-1.54l.77-.71C13.11,9.89,12.37,9.8,12.91,10.58ZM12,20.31c1.44,2.44,2.76,4.76,4.18,7a12.32,12.32,0,0,0,3.1,3.86c1.75,1.25,3.29,2.85,5.58,3.17s4.3.7,6.46,1a3.14,3.14,0,0,0,1.09-.21A11.79,11.79,0,0,0,37,32.62a10.67,10.67,0,0,0,4.06-5.95,51.77,51.77,0,0,0,1.35-9.87c.13-3.48-1.26-6.36-2.54-9.39-.16.12-.25.16-.29.23a23.73,23.73,0,0,1-3.09,4.88,20.39,20.39,0,0,1-6.27,4.93,19.6,19.6,0,0,1-8,2c-2.54.11-5.08.28-7.63.18-.22,0-.59,0-.63.1C13.61,20.69,12.81,20.25,12,20.31Zm2.17-4c.08.18.09.24.12.26a1.57,1.57,0,0,0,.33.26,11.16,11.16,0,0,0,8.75.64,36.73,36.73,0,0,0,5.33-2.29c1.5-.79,3.07-1.48,4.53-2.35a8.17,8.17,0,0,0,3.35-3.65A9.52,9.52,0,0,0,34.84,8a6.22,6.22,0,0,0-3.69-.28,7.65,7.65,0,0,1-2.76.2c-.29.29-.46.59-.7.67a29.48,29.48,0,0,0-3,1,42.7,42.7,0,0,0-7,3.67C16.43,14.18,15,14.87,14.17,16.34Zm23.19-8a19.68,19.68,0,0,0,0-2.82C36.91,2.87,35.24,1.8,33,2a18.69,18.69,0,0,0-3.13.64,29.88,29.88,0,0,0-6.6,2.53,64.6,64.6,0,0,0-5.67,3.22,19.34,19.34,0,0,0-4,3.32,4.57,4.57,0,0,0-1,2.83,20.25,20.25,0,0,0,3.23-2.42,11,11,0,0,1,3.46-2.25,52.19,52.19,0,0,1,7.36-2.81,18.55,18.55,0,0,1,5.67-1.33c1.18,0,2.22-.12,3,1.12C35.64,7.45,36.49,7.76,37.36,8.37ZM15.8,30.23a4.77,4.77,0,0,0-.88.32c-.68.4-1.32.86-2,1.24a6.12,6.12,0,0,1-3.33.62c-2.26-.07-3.37-.7-4.1-2.79-.1-.31-.2-.63-.32-.93-1-2.46.55-4.25,2.65-4.76a20.06,20.06,0,0,1,3.81-.23c0-1.27-.92-1.86-2.19-2.05a15.62,15.62,0,0,0-2.62-.32c-1,0-2-.18-2.8.58a5.77,5.77,0,0,0-1.91,3.34,10,10,0,0,0,1,5.7A6.52,6.52,0,0,0,11.56,34a28.68,28.68,0,0,0,3.15-1.76A1.79,1.79,0,0,0,15.8,30.23Zm-3.2-.75.81-.45c.91-.52,1-.73.42-1.61a5.18,5.18,0,0,1-.56-1.1,1.59,1.59,0,0,0-1.51-1.21c-.32,0-.65-.08-1-.13a3.1,3.1,0,0,0-3.53,1.79,2.76,2.76,0,0,0,1.48,3.31,1.17,1.17,0,0,0,.41.06ZM35.8,1.54c.65,1.24,1.36,1.94,2.11,2.11C37.94,2.22,36.94,1.89,35.8,1.54ZM13,17.13l-.2.42c.54.48,1,1.15,2,.75ZM27.45,35.72l.1-.28c-.35-.28-.7-.57-1.32,0Zm15.8-16.06h.25c0-.36,0-.71,0-1.07h-.23ZM25.73,35.4l.11-.35-1.07-.22-.05.24ZM.83,25.82l.3,0,.16-1.39-.31,0Z" fill="#fff"/><path d="M46.27,23.29c-1-2.25-.68-4.57-1-6.8a.75.75,0,0,1,0-.42c.71-1.38.07-2.62-.38-3.88-.07-.21-.11-.43-.16-.63.62-.39.87,0,1,.43a27.31,27.31,0,0,1,.75,3.66c.19,1.83.22,3.68.34,5.52A3.41,3.41,0,0,1,46.27,23.29Z" fill="#fff"/><path d="M24.48,39.77c-2.41.58-4.51-.1-6.82-.42l.84-1.2-.89-.67c.21-.06.32-.13.4-.11a9.82,9.82,0,0,1,3.19,1.05,4.29,4.29,0,0,0,1.43.34,11.66,11.66,0,0,1,1.47.35C24.26,39.16,24.32,39.47,24.48,39.77Z" fill="#fff"/><path d="M43.5,5.9c.36,1.1,1.37,1.93.48,3.33a7.43,7.43,0,0,1-1-2.79C43,6.33,43.26,6.15,43.5,5.9Z" fill="#fff"/><path d="M17.08,23.87a10.55,10.55,0,0,1,1,2.13,3.71,3.71,0,0,0,1,1.89,13.44,13.44,0,0,0,4,3.23c.64.31,1.34.49,2.19.8a1.87,1.87,0,0,1-2.55-.09,2.55,2.55,0,0,0-2.52-.58c-1-1.22-1.6-2.64-2.94-3.42-.14-.08-.3-.37-.26-.47.4-.88-.31-1.55-.38-2.33C16.7,24.76,16.89,24.47,17.08,23.87Z" fill="#fff"/></g></g></svg>