<svg xmlns="http://www.w3.org/2000/svg" viewBox="0 0 59.65 58.75"><g id="Layer_2" data-name="Layer 2"><g id="Layer_4" data-name="Layer 4"><path d="M37.64,54.82A1.79,1.79,0,0,1,35.92,56a14.35,14.35,0,0,0-2.49,1c-1.21.41-2.39,1.05-3.72.82-1.11-.18-2.2-.44-3.27-.65-.15-.79.27-1.64-.78-2a6.49,6.49,0,0,1-3,2.45,9.52,9.52,0,0,1-4.38.93,8.44,8.44,0,0,0-1.18.18c-1.18.12-1.59-.35-1.39-1.67a3.92,3.92,0,0,1-2.5-1.37c-.59-.79-1.15-1.59-1.82-2.52a8.81,8.81,0,0,1-4.9-1.87,5.75,5.75,0,0,1-2.37-3.88,9.6,9.6,0,0,1,.15-4.61,7.79,7.79,0,0,0,.21-2.13c.12-1.64.3-3.28.3-4.92a21.57,21.57,0,0,0-.39-3.18c-.06-.39-.2-.78-.25-1.18a23.3,23.3,0,0,1,.17-5.34,22.59,22.59,0,0,1,2-6.59c.18-.42.28-.87.5-1.27a8.26,8.26,0,0,1,.78-1A23.37,23.37,0,0,0,9.22,15c.76-1.31,2.09-1.77,3.33-2.37.52-.26,1.14-.33,1.63-.63s1.17-.69,1.87-.22a.75.75,0,0,0,.53,0c1.74-.45,3.15.3,4.48,1.27.88.63,1.21.59,1.76-.37.34-.59,1.37-1.16,1.9-.91,1.55.72,2.92.09,4.29-.46.37-.14.64-.52,1-.65,1.21-1.79.89-4,.91-6.07A4.92,4.92,0,0,1,34.09.18,3,3,0,0,1,37.35,1a2.6,2.6,0,0,1,.43,2.64A12.39,12.39,0,0,0,37.49,6c-.07.71-.13,1.43-.17,2.15a2.3,2.3,0,0,0,0,.64,12.4,12.4,0,0,0,.37,1.71c.19.56-.08,1.22.5,1.72.24.2.16.76.25,1.37.62.29,1.41.59,2.15,1,1,.57,2.29.86,3,2,.34.56.67,1.13,1.11,1.88a3.52,3.52,0,0,1,2.58,2,.72.72,0,0,0,.19.2,7,7,0,0,1,2.35,3A3.46,3.46,0,0,1,50.23,25a6,6,0,0,0,.43,2.56c.11.3.34.67.25.9-.71,1.87,0,3.86-.55,5.73-.21.77-.54,1.5-.83,2.3l-1.38-.14,1.15.77c-.55,1.48-1,3-1.63,4.33S46.12,44,45.35,45.24a22,22,0,0,0-1.16,2.13c-.24.52-.56.68-1.08.47-.09-.59-.33-1.16.09-1.76.63-.87,1.17-1.8,1.8-2.77l.72,0A2.93,2.93,0,0,1,46,41c.2-.4.74-.64.91-1.05a8.09,8.09,0,0,0,.86-2.84c0-1.42,1.34-2.37,1.14-3.81,0-.19.38-.45.47-.55a9.19,9.19,0,0,1-.28-1.22,14.07,14.07,0,0,0-.18-2.62c-.24-.86.63-1.8-.27-2.57,0-.05,0-.4.1-.43.69-.26.29-.61.11-.94s-.48-.75-.65-1.14a5.11,5.11,0,0,0-1.69-2.2L44.14,20a1.85,1.85,0,0,0-1.81-.08c-1.38.49-2.77,1-4.12,1.42a9.6,9.6,0,0,1,.08,1.16c0,.33-.2.65-.19,1,.06,1.47,1.31,2.93,0,4.41,0,0,0,.09,0,.14-.15,1.95-.26,3.91-.46,5.86A6.34,6.34,0,0,1,37,36.43a13.85,13.85,0,0,0-.92,2.48c-.8,1.91-1.74,3.75-2.62,5.62-.48,1-1,2-1.41,3.08s-1.63,1.59-1.54,2.88c0,.1-.15.22-.25.31-.95.87-1.88,1.79-2.89,2.59-.43.34-.65.7-.47,1.13a1.94,1.94,0,0,0,.83.77c.25.14.69,0,.86.21,1.25,1.29,2.78.35,4.15.48.59.06,1.69.08,2-1,0-.09.23-.18.35-.18.71,0,.8-.61,1-1.08a6.07,6.07,0,0,0,1.14-.15A4.37,4.37,0,0,0,38.54,53c.45-.33,1-.73,1.15-1.2.15-.65.6-.85.93-1.26a10.48,10.48,0,0,0,1.2-2.74l1.34,0c.1.38.19.76.3,1.17a10.91,10.91,0,0,1-2.74,3,1.37,1.37,0,0,0-.52.77c-.42,1.26-1.51,1.66-2.59,2.07,0-.28,0-.57-.09-1.12l-.68,1Zm-6.58-8.16-.48-.22c.57-2.17.63-2.25,1.92-2.56.52-1,1.11-2,1.55-3,.87-2,1.7-4.11,2.46-6.19a5.81,5.81,0,0,0,.42-3.77,5.94,5.94,0,0,1,0-1.45c0-1.61.46-3.16.26-4.8a10.74,10.74,0,0,0-3.77-7.09,16.94,16.94,0,0,0-2.94-1.89,2.1,2.1,0,0,0-1.41-.2q-2.69.72-5.31,1.62a3.58,3.58,0,0,0-1.19.85,21.15,21.15,0,0,0-3.1,4.22,43.45,43.45,0,0,0-3.93,8.16,22.18,22.18,0,0,0-.75,3.27c-.54,2.27-1.12,4.53-1.61,6.81a27.66,27.66,0,0,0-.71,6.54,22.38,22.38,0,0,0,.11,4c.13.64.26,1.27.4,1.91.78,1.28,2.14,1.83,3.44,2.55,1.64.92,3.19,1.6,5,.6.23-.12.55,0,.8-.14,1.32-.5,2.8-.75,3.33-2.41a2.47,2.47,0,0,1,1-1.09,4.83,4.83,0,0,0,1.86-2.52,2.72,2.72,0,0,1,1.24-1.56c.42.75-1,.86-.39,1.73,1.19-.86,1.3-2.21,1.74-3.39.77-.35.65-1.11.79-1.75C31.54,45.45,30.8,45.83,31.06,46.66ZM23.14,15.77a3,3,0,0,0-2.21-1.42,20.13,20.13,0,0,0-3-.7,18.27,18.27,0,0,0-4.11-.14,4,4,0,0,0-3.15,1.85c-.59.94-1.41,1.74-2.05,2.66a10.2,10.2,0,0,0-1.9,4.58,10,10,0,0,1-.27,1.45,15,15,0,0,0-.71,6.78,11.94,11.94,0,0,1,0,1.2c.15,2.12.22,4.24.49,6.34a18.74,18.74,0,0,1-.42,6.39c-.4,1.88-.09,3.44,1.48,4.59.36.26.78.42.72,1,0,.18.31.46.54.59.06,0,.34-.28.58-.5l1.83.67c0-.23.11-.37.08-.48a8.3,8.3,0,0,1-.37-1.57A7.28,7.28,0,0,1,11,47.62a1.82,1.82,0,0,0-.07-.5l-1.18.31-.17-.24c.5-.83.33-1.9,1.2-2.64A1.48,1.48,0,0,0,11,43.32a3.45,3.45,0,0,1,.44-2.59,1.59,1.59,0,0,0,.17-.61,30.12,30.12,0,0,1,1.89-8.27,40.45,40.45,0,0,1,1.85-4.62,34.45,34.45,0,0,0,1.83-4.07A9.78,9.78,0,0,1,18,21.29C19.41,19.2,20.8,17.1,23.14,15.77Zm19.39,2.56a5.58,5.58,0,0,0-.63-1.12c-.42-.45-.91-1.12-1.39-1.14a7.47,7.47,0,0,1-2.71-1,3.49,3.49,0,0,1-2-2.94,16.09,16.09,0,0,1-.06-5.45c.09-.7.18-1.39.33-2.49a4.82,4.82,0,0,1-4,1.42c.7,1.36.92,2.66.09,3.83-.67.95-.94,2.23-2.27,2.67a13.74,13.74,0,0,1-3.88,1c-.68,0-1.35.14-2,.21s-.79.37-.73,1.11c.46.19,1.16.75,1.54.58,1.25-.54,2.57-.35,3.83-.6a16.61,16.61,0,0,1,3.08-.12.68.68,0,0,1,.49.19c.54.69.95,1.54,2.08,1.31,0,0,.1.13.16.2.93,1,2.09,1.84,2.63,3.18a8.73,8.73,0,0,0,.65,1.09C39,18.94,40.94,19.37,42.53,18.33Zm-7-17.12a1.47,1.47,0,0,0-1.66.21,10.18,10.18,0,0,0-1.2,1.08,1.11,1.11,0,0,0-.14,1.67,1.09,1.09,0,0,0,1.55.13,11.8,11.8,0,0,0,1.78-1.44C36.56,2.17,36.4,1.56,35.54,1.21ZM17.75,58c-.87-.49-.87-.49-1.14.12ZM46.8,40.93c-.4.31-.4.31-.55.91C46.74,41.54,46.74,41.54,46.8,40.93Zm-5.2,8.7c.82-.15.82-.15.92-.89Z" fill="#fff"/><path d="M51.58,38.33c-.43,1-.72,1.71-1.06,2.39-.12.24-.4.39-.6.58-.1-.25-.3-.52-.27-.76a13.18,13.18,0,0,1,1.18-4.67,12.69,12.69,0,0,0,.58-2.59c.06-.21.28-.38.42-.57.19.16.53.33.53.49a21.26,21.26,0,0,1-.17,3.09A12.43,12.43,0,0,1,51.58,38.33Z" fill="#fff"/><path d="M41.25,12.7c-.84-.18-1.87,0-2.27-1.12s-1-2-.35-3.33l2.84,4.22Z" fill="#fff"/><path d="M56.94,21.53l.64,1.77c1-.14,1.29-.81,1.61-1.76.26.47.51.74.45.84A3.19,3.19,0,0,1,57,24.2c-.88.07-1.12-.19-1.16-1.13l-1.22-.32Z" fill="#fff"/><path d="M3.29,29.35c-.93.1-1.13-.39-1.12-.72a9.07,9.07,0,0,1,1-4.62c.21.45.45.72.42.94a8.62,8.62,0,0,1-.43,1.82C2.82,27.62,2.31,28.43,3.29,29.35Z" fill="#fff"/><path d="M50.8,11.64l-1.72-.24c-.42.23-.6,1.12-1.51.45.54-.7,1.06-1.38,1.68-2.17C49.74,10.29,50.16,10.82,50.8,11.64Z" fill="#fff"/><path d="M0,21.21c.81-.73,1.59-1.49,2.44-2.17.17-.14.57,0,1,0-.62.54-1.08,1-1.58,1.38S.8,21.17.27,21.54Z" fill="#fff"/><path d="M55.8,15.94c1.28-.89,2.23-.63,3.14.8a14.23,14.23,0,0,0-1.59-.61A13.12,13.12,0,0,0,55.8,15.94Z" fill="#fff"/><path d="M2.84,34.51c.91-.44.93.49,1.44.54,0,.7-.19,1.2-.92,1.28C2.62,35.87,3.06,35.13,2.84,34.51Z" fill="#fff"/><path d="M45.93,16.73a3.9,3.9,0,0,1,3.22,1.58c-.38,0-.57.05-.69,0C47.61,17.78,46.77,17.25,45.93,16.73Z" fill="#fff"/><path d="M18.7,29.51c-.65,1.54-1.3,2.83-1.73,4.18s-.66,2.74-1,4.29C14.73,36.15,16.47,30.8,18.7,29.51Z" fill="#fff"/><path d="M13.67,48.7c-.14-2.14.06-2.59,1.16-2.78C14.66,48.28,14.66,48.28,13.67,48.7Z" fill="#fff"/><path d="M34.12,45.82l1.39-1.19C35.32,46.31,35.24,46.38,34.12,45.82Z" fill="#fff"/><path d="M9.27,19.9c0-.88.35-1,1-.9C10.24,19.63,9.85,19.74,9.27,19.9Z" fill="#fff"/></g></g></svg>