<svg xmlns="http://www.w3.org/2000/svg" viewBox="0 0 53.79 63.2"><g id="Layer_2" data-name="Layer 2"><g id="Layer_4" data-name="Layer 4"><path d="M.12,37.58c.19-.86.32-1.4.41-1.95.11-.73.12-1.48.29-2.2a61.27,61.27,0,0,1,2.63-8.59,3.08,3.08,0,0,0,.17-.8c.09-.67,0-1.4.81-1.76a.66.66,0,0,0,.24-.34l2-4.58A3.45,3.45,0,0,1,7,16.62q2.5-3.41,5-6.8a9.89,9.89,0,0,1,.95-1,13.4,13.4,0,0,0,1.26-1.24A3.57,3.57,0,0,1,16.57,6c.13,0,.32,0,.38-.1C18,4.51,19.63,3.92,21,3.08A18.84,18.84,0,0,1,25.12,1a25.44,25.44,0,0,0,3.26-1,.83.83,0,0,1,.65.1A4.39,4.39,0,0,0,32.4.57a6.34,6.34,0,0,1,3.15.28c.47.18,1,.22,1.47.38a8.42,8.42,0,0,1,2.87,1.3c1.18,1,2.68,1.5,4,2.34,2,1.31,4,2.72,6,4.05a1.7,1.7,0,0,1,.8,1.23,1.67,1.67,0,0,0,.56,1.06c1.59,1,1.66,2.57,1.91,4.11a27.87,27.87,0,0,1,.4,3c.08,1.43,0,2.87.06,4.3,0,.67.22,1.34.24,2a6.42,6.42,0,0,1-.19,2c-.37,1.19-.92,2.33-1.32,3.52a13.69,13.69,0,0,0-.25,1.6,7.29,7.29,0,0,1-.75,2.5c-.51.82-.77,1.81-1.22,2.68S49,38.68,48.52,39.61a5.49,5.49,0,0,1-1.16,1.94.46.46,0,0,0-.12.39c.38.74-.13,1.27-.28,1.92A10.9,10.9,0,0,1,45.88,46c-.39.84-.84,1.76-1.92,2a.53.53,0,0,0-.25.31c-.69,1.87-2.34,3.14-3.15,4.94a.23.23,0,0,1-.08.11,13.63,13.63,0,0,0-3.17,3.35,16.08,16.08,0,0,1-3.86,3.13,1.4,1.4,0,0,0-.52.76c-.14.51-.32.82-.92.84a11,11,0,0,0-3.45.8,10.23,10.23,0,0,1-4.1.1c-.75-.06-1.28,0-1.56.82l-2.44-1.15c-.5.13-.58,1.05-1.35.69a1.58,1.58,0,0,1-1-1.61c-.35,0-.67-.06-1-.06s-.65,0-1.11.06a8,8,0,0,0-1-2.05c-.82-1-.82-2.11-1.1-3.2a1.4,1.4,0,0,1,.06-.67c.23-.94.43-1.88.74-2.79s.71-1.55,1-2.35c.48-1.23.9-2.47,1.45-4a3.82,3.82,0,0,0-.66.38c-1,1-2,2-2.91,3.09a9.88,9.88,0,0,1-2.11,2.27c-.4.24-.68.59-1.21.53a1.89,1.89,0,0,0-.67.17c-2.63.88-4.8,0-6.79-1.71-.35-.3-.7-.59-1-.9-.16-.16-.4-.36-.4-.54,0-1.93-1.16-3.59-1.31-5.48,0-.23-.19-.47-.14-.67A10.59,10.59,0,0,0,.12,37.58ZM31.43,4a2.64,2.64,0,0,0,.8,0,1.2,1.2,0,0,1,1.37.36c-1.78,1-3.48,2.07-5.21,3.05-3.33,1.88-6.69,3.74-10,5.61-.89.5-1.78,1-2.65,1.53a1.2,1.2,0,0,1-1.42.08.7.7,0,0,0-1.07.29c-1,1.77-2.13,3.5-3,5.33-1,2.07-1.82,4.25-2.78,6.35a19.91,19.91,0,0,0-1.82,5.82,11.06,11.06,0,0,1-.17,1.92A29,29,0,0,0,4.71,41a1.67,1.67,0,0,0,0,.54c.47,1.51,1,3,1.47,4.57a6.38,6.38,0,0,0,1.36.2c1.35-.08,2.75-.21,3.68-1.33a17.83,17.83,0,0,0,3.23-4.69,3.26,3.26,0,0,1,.41-.73c1-1.38,2-2.76,3.07-4.11,1.18-1.53,2.4-3,3.61-4.54a.79.79,0,0,1,.35-.19,7.39,7.39,0,0,1,1.27-.45c1.2-.24,2.43-.72,3.62,0a4.69,4.69,0,0,1,1.72,4.79c-.37,1.18-.75,2.37-1.14,3.54-.25.73-.53,1.45-.86,2.35l.75-.34c2-.95,3.9-1.92,5.86-2.85.59-.28,1.22-.47,1.81-.74l7.56-3.42c.35-.15.73-.25.92.31-.3.55-1.21.7-1.12,1.57,0,.12-.32.3-.52.4-1.18.53-2.35,1.08-3.55,1.56-2.09.84-4.22,1.6-6.31,2.45a10.4,10.4,0,0,0-2.57,1.32,4.75,4.75,0,0,1-3,.71c-.14,0-.3-.27-.41-.39-.15.24-.28.47-.43.68-1,1.36-2,2.65-2.9,4.08-1,1.67-1.78,3.46-2.69,5.18a1.31,1.31,0,0,0,.19,1.65,3.68,3.68,0,0,1,.78,1.44c.18.86.58,1.34,1.5,1.32a1.1,1.1,0,0,1,.54.09c1.31.58,2.56.24,3.89,0a31.33,31.33,0,0,0,5-1.93A3.79,3.79,0,0,0,33.6,53c1.12-1.66,2.74-2.85,3.8-4.59,1.47-2.4,3.4-4.51,4.71-7a5.3,5.3,0,0,1,.64-1.08c1.12-1.23,1.93-2.52,1.23-4.14A22,22,0,0,0,46.79,31L48,27.88a10,10,0,0,0,.64-1.64,24.08,24.08,0,0,0,.55-6.33,5.72,5.72,0,0,0-.07-1.25c-.5-1.69-1.09-3.35-1.56-5a3.92,3.92,0,0,0-1.43-2.25,3.38,3.38,0,0,0-1.72.83,16.72,16.72,0,0,1-3.1,1.61c.07-1.24.07-1.24,3.94-3.28a2.83,2.83,0,0,0-.3-.42,27.54,27.54,0,0,0-3-2.4c-1.12-.7-2.07-1.72-3.43-2C37.36,4.27,35.48,4.23,34,3.45A1.77,1.77,0,0,0,31.44,4a10.93,10.93,0,0,0-4.07.11,2.18,2.18,0,0,0-.64.25c-.74.45-1.45,1-2.22,1.37C22.33,6.84,20.62,8.55,18.7,10a4.73,4.73,0,0,0-.64.87,10.27,10.27,0,0,0,1.29-.48c1.43-.83,2.82-1.73,4.27-2.52s3-1.45,4.51-2.18C29.24,5.13,30.33,4.55,31.43,4ZM24.22,35.35a6.09,6.09,0,0,1-.62,3.86A35.14,35.14,0,0,1,21.39,43a23.08,23.08,0,0,1-1.21,2.44,18.55,18.55,0,0,0-3,4.84A29.09,29.09,0,0,0,16,54.55a2.22,2.22,0,0,0,1.05,2.68c.74.39,1,1.44,2.08,1.44.14,0,.29.21.43.33,1.15,1,2.33,1.75,4,1.41a5.82,5.82,0,0,1,2.48.17c2.57.63,4.65-.47,6.58-1.89A28.63,28.63,0,0,0,36,55.63c1-1.09,2.35-2,3-3.45a18.28,18.28,0,0,1,1.27-2.12c.94-1.55,1.92-3.07,2.78-4.66.51-.92.77-2,1.25-2.92s1.23-1.58,1.25-2.68c0-.26.4-.49.57-.76.91-1.39,1.82-2.79,2.71-4.19a9.67,9.67,0,0,0,.85-1.54c.44-1.16.77-2.37,1.22-3.53a9.87,9.87,0,0,0,.63-4.84,9.08,9.08,0,0,1,.2-1.61,3.73,3.73,0,0,0-.1-.8,22.54,22.54,0,0,0-1,3.76,35.15,35.15,0,0,1-2.92,8.22,2.6,2.6,0,0,1-.5.84c-1.25,1.18-1.6,2.85-2.37,4.29s-1.54,3.21-2.41,4.76C41.65,45.74,40.7,47,40,48.3a13,13,0,0,1-3.24,3.75,4.13,4.13,0,0,0-1.35,1.69,3.52,3.52,0,0,1-1.86,1.93,11.35,11.35,0,0,0-2.41,1.7,5.9,5.9,0,0,1-2.92,1.5c-.36.1-.75.1-1.09.22a6.68,6.68,0,0,1-5.65-.27,5.23,5.23,0,0,1-2.71-2.26A8.92,8.92,0,0,1,18,52c.26-2,1.33-3.84,2-5.74A4.29,4.29,0,0,1,20.76,45c1.19-1.47,2.45-2.87,3.62-4.36a5.89,5.89,0,0,0,1-1.95c.47-1.56.83-3.16,1.28-4.92L26,32.84a3.06,3.06,0,0,1-3.11,0c-.69.84-1.3,1.65-2,2.4-.81.93-1.65,1.86-2.54,2.72a7.23,7.23,0,0,0-2.05,3.16,5.09,5.09,0,0,1-.47,1.29c-.65,1-1.39,1.95-2,2.95a8.65,8.65,0,0,0-.54,1.15c1.53-1.41,3.17-2.67,3.81-4.72a3.31,3.31,0,0,1,.88-1c.19-.19.47-.31.64-.51,1.25-1.54,2.47-3.1,3.72-4.64C23.06,34.62,23.07,34.63,24.22,35.35ZM8.48,18.74l-.28-.15A27.91,27.91,0,0,0,3.66,27.7a29.49,29.49,0,0,0-1.41,8.18A4.62,4.62,0,0,1,2,37.76c-.7,1.36-.16,2.59.15,3.86.28-1.71.5-3.42.63-5.14a11,11,0,0,1,.75-4.27,10.1,10.1,0,0,0,.34-1.88q.72-2.74,1.52-5.46c.16-.57.3-1.49.65-1.6C7,23,7,22.2,7.24,21.59,7.69,20.66,8.07,19.69,8.48,18.74ZM6.77,50.31c-.53-.61-.85-1.31-1.32-1.43C4.31,48.57,4,47.7,3.64,46.8c-.46-1.18-.86-2.37-1.38-3.79-.61,2.35.06,4.29.81,6.31,1-.42,1.61.27,2.23.87a1.58,1.58,0,0,0,1.16.55,8.87,8.87,0,0,0,3.1-.24,4.7,4.7,0,0,0,2.38-1.35A7.09,7.09,0,0,0,12.87,47C11.05,48.53,8.83,49.27,6.77,50.31ZM51.52,18.67c.79-2.56.39-4.81-1.76-6.54a4,4,0,0,1-.64-.72c-.61-.8-1.13-1.67-1.81-2.4A20.87,20.87,0,0,0,45,7c-.43-.34-.83-.28-1.15.26a2.77,2.77,0,0,0,.42.42A21.35,21.35,0,0,1,48.2,11a9,9,0,0,1,2.3,3.89C50.8,16.13,51.18,17.39,51.52,18.67Zm-8.37-12,.17-.25c-.3-.24-.6-.49-.92-.71a18.72,18.72,0,0,1-1.73-1.17,11.24,11.24,0,0,0-5.42-2.6,1.34,1.34,0,0,0-1.45.34C37.39,2.9,40.08,5.2,43.15,6.66ZM9.79,15.29l.44.28c.91-1.15,1.79-2.31,2.73-3.43S14.87,10,15.83,9l-.24-.23a12.63,12.63,0,0,1-1.85,1.6c-1.5.89-2.27,2.38-3.26,3.69A11.2,11.2,0,0,0,9.79,15.29ZM23.21,3.62A22.22,22.22,0,0,1,31.09,2,9.06,9.06,0,0,0,23.21,3.62Zm-.93,33.89-.23-.1c-.72,1.12-1.44,2.24-2.15,3.38a1.25,1.25,0,0,0-.14.52,1.8,1.8,0,0,0,0,.4l.24,0Zm-2.94,4.67c-1.62,2-1.62,2-1.51,2.54C18.84,43.71,19.4,42.77,19.34,42.18ZM48,39.3c-1,.71-1,.83-1,1.68C47.38,40.29,47.68,39.79,48,39.3Z" fill="#fff"/><path d="M8.72,30.9a1.37,1.37,0,0,1,.49-1.77,49.84,49.84,0,0,1,7.49-4.49c2.6-1.39,5.19-2.8,7.78-4.21C25.3,20,26,19.25,27.2,20a18.48,18.48,0,0,1,.87-7.3c-1,.56-1.94,1.14-2.93,1.69S23,15.49,22,16.1s-2,1.21-3,1.8S17,19,16,19.67s-2,1.43-3,2-1.68,1.51-3.18,1.68a6.53,6.53,0,0,1,.52-.82,25.81,25.81,0,0,0,2.43-2.47A6.92,6.92,0,0,1,15,18.59c3.31-2,6.61-4,10.06-5.75,2.29-1.17,4.46-2.57,6.69-3.86l5.72-3.33.28.24c-.11.25-.14.57-.32.71-.69.56-1.43,1.05-2.14,1.56a15.72,15.72,0,0,0-2.56,2.09,14.27,14.27,0,0,1,1.77-.52,4.3,4.3,0,0,1,1.47.1,5.49,5.49,0,0,1,1.54.52,3.57,3.57,0,0,1,1.16,1,7.4,7.4,0,0,1,1.71,3.49,8.71,8.71,0,0,1-1.45,6.07,1.29,1.29,0,0,0-.14.94c.82-.36,1.66-.7,2.47-1.09s1.51-.85,2.31-1.18,1.43-1.15,2.54-1.21A2.65,2.65,0,0,1,44.57,20c-1.67,1-3.4,1.86-5.11,2.75q-2.9,1.5-5.8,3c-1.54.78-3.1,1.54-4.65,2.31-.54.27-1.08.53-1.58.84s-.8,0-.93-.53L23,30l-.41-.65,10.7-5c-.68-.22-1.09-.37-1.49-.49a6.76,6.76,0,0,1-4.17-2.72c-.27-.43-.71-.36-1.12-.13l-2,1.18L19,25.25,11.4,29.56c-.6.34-1.17.73-1.78,1.06A5,5,0,0,1,8.72,30.9ZM31.58,20.58a6.75,6.75,0,0,0,3.09.72,3.47,3.47,0,0,0,3.77-3.08c.39-3.69-1-6-4.66-6.35a2.49,2.49,0,0,0-2.23.78C30.22,14,30,15.75,29.84,17.49A3.21,3.21,0,0,0,31.58,20.58Zm-2.47-1.24c0,2.4,2.46,3.75,5.3,2.95C31.58,21.68,31.58,21.68,29.11,19.34Z" fill="#fff"/><path d="M38.31,44.93c0,.51,0,.81,0,1.3-1,.31-2,.61-3.08,1-.75.24-1.49.49-2.22.78-2.89,1.2-5.76,2.45-8.67,3.6-1.38.55-1.42.46-2.88-.69A88.44,88.44,0,0,1,38.31,44.93Z" fill="#fff"/><path d="M32.29,33.26l-1.7-.32c.13-.27.18-.59.36-.7a16.68,16.68,0,0,1,1.75-.86l6.75-2.83c1.48-.62,3-1.22,4.44-1.85.82-.35,1.55-1,2.54-.8a4.69,4.69,0,0,1,.79.29c-.13.28-.2.66-.42.82a5.75,5.75,0,0,1-1.24.54c-2.17.92-4.34,1.83-6.5,2.76Z" fill="#fff"/><path d="M5.17,39.18a2.65,2.65,0,0,1,.42-.74,7.57,7.57,0,0,1,1.26-.82c1.63-.94,3.28-1.85,4.91-2.78,1.85-1.05,3.67-2.14,5.53-3.14a23.64,23.64,0,0,1,2.92-1.27c.17-.07.44.12.95.28C15.9,34,10.45,36.36,5.38,39.41Z" fill="#fff"/><path d="M13.27,41.32A3,3,0,0,1,11,43.24c-1.15.35-2.21.93-3.33,1.36a10.15,10.15,0,0,1-1.44.33C7.32,43.5,11.75,41.28,13.27,41.32Z" fill="#fff"/></g></g></svg>